<?xml version="1.0" standalone="no"?>
<!DOCTYPE svg PUBLIC "-//W3C//DTD SVG 20010904//EN"
 "http://www.w3.org/TR/2001/REC-SVG-20010904/DTD/svg10.dtd">
<svg version="1.0" xmlns="http://www.w3.org/2000/svg"
 width="500.000000pt" height="500.000000pt" viewBox="0 0 500.000000 500.000000"
 preserveAspectRatio="xMidYMid meet">
<metadata>
Created by potrace 1.14, written by Peter Selinger 2001-2017
</metadata>
<g transform="translate(0.000000,500.000000) scale(0.100000,-0.100000)"
fill="#000000" stroke="none">
<path d="M0 2500 l0 -2500 2500 0 2500 0 0 2500 0 2500 -2500 0 -2500 0 0
-2500z m2830 1873 c474 -117 813 -470 907 -940 22 -115 22 -338 -1 -444 -33
-154 -92 -301 -169 -419 -23 -35 -126 -165 -229 -288 -157 -188 -188 -229
-188 -256 1 -26 79 -125 521 -650 285 -341 522 -630 526 -643 4 -17 -1 -34
-14 -51 l-20 -27 -382 -3 c-210 -1 -388 1 -395 5 -27 16 -1126 1335 -1132
1359 -4 14 0 33 9 47 8 12 174 212 369 445 196 233 367 444 381 471 36 66 57
152 57 236 0 221 -141 411 -354 478 -70 22 -77 22 -678 22 l-607 0 -23 -23
-23 -23 -3 -549 c-1 -303 1 -550 5 -549 5 0 157 178 338 396 182 217 340 406
352 419 l22 24 259 0 c252 0 260 -1 303 -23 91 -48 130 -170 83 -259 -10 -20
-212 -267 -449 -549 -236 -282 -434 -523 -438 -536 -6 -17 -4 -31 9 -51 13
-20 904 -1087 1022 -1225 23 -26 19 -77 -7 -99 -22 -17 -49 -18 -403 -18
l-379 0 -22 22 c-12 13 -173 203 -357 422 l-335 400 -5 -408 c-5 -389 -6 -408
-24 -422 -16 -11 -75 -14 -312 -14 -280 0 -292 1 -318 21 l-26 20 0 1832 0
1831 22 23 22 24 1001 -4 c977 -3 1002 -4 1085 -24z"/>
</g>
</svg>
