<svg width="25" height="50" viewBox="0 0 25 50" fill="none" xmlns="http://www.w3.org/2000/svg">
<path fill-rule="evenodd" clip-rule="evenodd" d="M3.67921 47.4599L3 25.4679C3 25.4679 3.01889 25.3899 3.67921 25.2975C4.63582 25.1638 6.93866 25 12.4806 25C18.0225 25 20.3642 25.1638 21.3208 25.2975C21.9811 25.3899 22 25.4679 22 25.4679L21.3208 47.4599C21.3208 47.4599 21.6216 50 12.4806 50C3.3396 50 3.67921 47.4599 3.67921 47.4599ZM12.4807 45.254C4.58487 45.254 5 42.9144 5 42.9144L4 26.7045C4.95662 26.5708 6.93866 26.1364 12.4806 26.1364C18.0225 26.1364 20.0434 26.5708 21 26.7045L20 42.9144C20 42.9144 20.3764 45.254 12.4807 45.254Z" fill="#FDFDFD"/>
</svg>
