<svg width="20" height="21" viewBox="0 0 20 21" fill="none" xmlns="http://www.w3.org/2000/svg">
<path fill-rule="evenodd" clip-rule="evenodd" d="M5.05033 15.1772C4.75743 14.8843 4.75743 14.4095 5.05033 14.1166L12.5725 6.59442L6.8328 6.73469C6.41866 6.74281 6.07636 6.41367 6.06824 5.99953C6.06012 5.5854 6.38926 5.2431 6.80339 5.23498L14.4048 5.0582C14.6088 5.0542 14.8056 5.13347 14.9498 5.27772C15.0941 5.42198 15.1733 5.61878 15.1693 5.82276L14.9926 13.4242C14.9845 13.8383 14.6421 14.1674 14.228 14.1593C13.8139 14.1512 13.4847 13.8089 13.4929 13.3947L13.6331 7.65508L6.11099 15.1772C5.81809 15.4701 5.34322 15.4701 5.05033 15.1772Z" fill="#E4E4E5"/>
</svg>
