<svg width="20" height="21" viewBox="0 0 20 21" fill="none" xmlns="http://www.w3.org/2000/svg">
<path d="M10.625 10.8525C10.625 11.1977 10.3452 11.4775 10 11.4775C9.65482 11.4775 9.375 11.1977 9.375 10.8525C9.375 10.5074 9.65482 10.2275 10 10.2275C10.3452 10.2275 10.625 10.5074 10.625 10.8525Z" fill="#CF4520"/>
<path d="M6.25 13.3525C6.59518 13.3525 6.875 13.0727 6.875 12.7275C6.875 12.3824 6.59518 12.1025 6.25 12.1025C5.90482 12.1025 5.625 12.3824 5.625 12.7275C5.625 13.0727 5.90482 13.3525 6.25 13.3525Z" fill="#CF4520"/>
<path d="M6.875 14.6025C6.875 14.9477 6.59518 15.2275 6.25 15.2275C5.90482 15.2275 5.625 14.9477 5.625 14.6025C5.625 14.2574 5.90482 13.9775 6.25 13.9775C6.59518 13.9775 6.875 14.2574 6.875 14.6025Z" fill="#CF4520"/>
<path d="M8.125 13.3525C8.47018 13.3525 8.75 13.0727 8.75 12.7275C8.75 12.3824 8.47018 12.1025 8.125 12.1025C7.77982 12.1025 7.5 12.3824 7.5 12.7275C7.5 13.0727 7.77982 13.3525 8.125 13.3525Z" fill="#CF4520"/>
<path d="M8.75 14.6025C8.75 14.9477 8.47018 15.2275 8.125 15.2275C7.77982 15.2275 7.5 14.9477 7.5 14.6025C7.5 14.2574 7.77982 13.9775 8.125 13.9775C8.47018 13.9775 8.75 14.2574 8.75 14.6025Z" fill="#CF4520"/>
<path d="M10 13.3525C10.3452 13.3525 10.625 13.0727 10.625 12.7275C10.625 12.3824 10.3452 12.1025 10 12.1025C9.65482 12.1025 9.375 12.3824 9.375 12.7275C9.375 13.0727 9.65482 13.3525 10 13.3525Z" fill="#CF4520"/>
<path d="M10.625 14.6025C10.625 14.9477 10.3452 15.2275 10 15.2275C9.65482 15.2275 9.375 14.9477 9.375 14.6025C9.375 14.2574 9.65482 13.9775 10 13.9775C10.3452 13.9775 10.625 14.2574 10.625 14.6025Z" fill="#CF4520"/>
<path d="M11.875 13.3525C12.2202 13.3525 12.5 13.0727 12.5 12.7275C12.5 12.3824 12.2202 12.1025 11.875 12.1025C11.5298 12.1025 11.25 12.3824 11.25 12.7275C11.25 13.0727 11.5298 13.3525 11.875 13.3525Z" fill="#CF4520"/>
<path d="M12.5 14.6025C12.5 14.9477 12.2202 15.2275 11.875 15.2275C11.5298 15.2275 11.25 14.9477 11.25 14.6025C11.25 14.2574 11.5298 13.9775 11.875 13.9775C12.2202 13.9775 12.5 14.2574 12.5 14.6025Z" fill="#CF4520"/>
<path d="M13.75 13.3525C14.0952 13.3525 14.375 13.0727 14.375 12.7275C14.375 12.3824 14.0952 12.1025 13.75 12.1025C13.4048 12.1025 13.125 12.3824 13.125 12.7275C13.125 13.0727 13.4048 13.3525 13.75 13.3525Z" fill="#CF4520"/>
<path d="M12.5 10.8525C12.5 11.1977 12.2202 11.4775 11.875 11.4775C11.5298 11.4775 11.25 11.1977 11.25 10.8525C11.25 10.5074 11.5298 10.2275 11.875 10.2275C12.2202 10.2275 12.5 10.5074 12.5 10.8525Z" fill="#CF4520"/>
<path d="M13.75 11.4775C14.0952 11.4775 14.375 11.1977 14.375 10.8525C14.375 10.5074 14.0952 10.2275 13.75 10.2275C13.4048 10.2275 13.125 10.5074 13.125 10.8525C13.125 11.1977 13.4048 11.4775 13.75 11.4775Z" fill="#CF4520"/>
<path fill-rule="evenodd" clip-rule="evenodd" d="M5.625 2.10254C5.97018 2.10254 6.25 2.38236 6.25 2.72754V3.97754H13.75V2.72754C13.75 2.38236 14.0298 2.10254 14.375 2.10254C14.7202 2.10254 15 2.38236 15 2.72754V3.97754H15.625C17.0057 3.97754 18.125 5.09683 18.125 6.47754V15.8525C18.125 17.2333 17.0057 18.3525 15.625 18.3525H4.375C2.99429 18.3525 1.875 17.2333 1.875 15.8525V6.47754C1.875 5.09683 2.99429 3.97754 4.375 3.97754H5V2.72754C5 2.38236 5.27982 2.10254 5.625 2.10254ZM16.875 9.60254C16.875 8.91218 16.3154 8.35254 15.625 8.35254H4.375C3.68464 8.35254 3.125 8.91218 3.125 9.60254V15.8525C3.125 16.5429 3.68464 17.1025 4.375 17.1025H15.625C16.3154 17.1025 16.875 16.5429 16.875 15.8525V9.60254Z" fill="#CF4520"/>
</svg>
