<svg width="880" height="94" viewBox="0 0 880 94" fill="none" xmlns="http://www.w3.org/2000/svg">
<g filter="url(#filter0_d_5163_15946)">
<rect x="72" y="14" width="32" height="32" rx="16" fill="#CF4520"/>
<path d="M90.2564 23.9091V37H87.4886V26.5362H87.4119L84.4141 28.4155V25.9609L87.6548 23.9091H90.2564Z" fill="#E4E4E5"/>
<path d="M104 30H176" stroke="#CF4520" stroke-width="2"/>
</g>
<path d="M46.098 89V74.4545H51.2827C52.4096 74.4545 53.3447 74.6487 54.0881 75.0369C54.8362 75.4252 55.3949 75.9626 55.7642 76.6491C56.1335 77.331 56.3182 78.1193 56.3182 79.0142C56.3182 79.9044 56.1312 80.688 55.7571 81.3651C55.3878 82.0374 54.8291 82.5606 54.081 82.9347C53.3376 83.3087 52.4025 83.4957 51.2756 83.4957H47.348V81.6065H51.0767C51.7869 81.6065 52.3646 81.5047 52.8097 81.3011C53.2595 81.0975 53.5885 80.8016 53.7969 80.4134C54.0052 80.0251 54.1094 79.5587 54.1094 79.0142C54.1094 78.465 54.0028 77.9891 53.7898 77.5866C53.5814 77.1842 53.2524 76.8764 52.8026 76.6634C52.3575 76.4455 51.7727 76.3366 51.0483 76.3366H48.2926V89H46.098ZM53.2784 82.4375L56.8722 89H54.3722L50.8494 82.4375H53.2784ZM63.0632 89.2202C61.9884 89.2202 61.0627 88.9905 60.2862 88.5312C59.5144 88.0672 58.9178 87.4162 58.4964 86.5781C58.0797 85.7353 57.8714 84.7481 57.8714 83.6165C57.8714 82.4991 58.0797 81.5142 58.4964 80.6619C58.9178 79.8097 59.5049 79.1444 60.2578 78.6662C61.0153 78.188 61.9008 77.9489 62.914 77.9489C63.5296 77.9489 64.1261 78.0507 64.7038 78.2543C65.2814 78.4579 65.7999 78.7775 66.2592 79.2131C66.7185 79.6487 67.0807 80.2145 67.3458 80.9105C67.611 81.6018 67.7436 82.4422 67.7436 83.4318V84.1847H59.0717V82.5938H65.6626C65.6626 82.035 65.549 81.5402 65.3217 81.1094C65.0944 80.6738 64.7748 80.3305 64.3629 80.0795C63.9557 79.8286 63.4775 79.7031 62.9282 79.7031C62.3316 79.7031 61.8108 79.8499 61.3657 80.1435C60.9254 80.4323 60.5845 80.8111 60.343 81.2798C60.1063 81.7438 59.9879 82.2481 59.9879 82.7926V84.0355C59.9879 84.7647 60.1157 85.3849 60.3714 85.8963C60.6318 86.4077 60.994 86.7983 61.4581 87.0682C61.9221 87.3333 62.4642 87.4659 63.0845 87.4659C63.4869 87.4659 63.8539 87.4091 64.1853 87.2955C64.5168 87.1771 64.8032 87.0019 65.0447 86.7699C65.2862 86.5379 65.4708 86.2514 65.5987 85.9105L67.6086 86.2727C67.4476 86.8646 67.1588 87.383 66.7421 87.8281C66.3302 88.2685 65.8117 88.6117 65.1867 88.858C64.5665 89.0994 63.8586 89.2202 63.0632 89.2202ZM77.9545 80.7543L76.0297 81.0952C75.9493 80.849 75.8214 80.6146 75.6462 80.392C75.4758 80.1695 75.2438 79.9872 74.9502 79.8452C74.6566 79.7031 74.2897 79.6321 73.8493 79.6321C73.248 79.6321 72.7461 79.767 72.3437 80.0369C71.9412 80.3021 71.74 80.6454 71.74 81.0668C71.74 81.4313 71.8749 81.7249 72.1448 81.9474C72.4147 82.17 72.8503 82.3523 73.4516 82.4943L75.1846 82.892C76.1884 83.1241 76.9365 83.4815 77.4289 83.9645C77.9213 84.4474 78.1675 85.0748 78.1675 85.8466C78.1675 86.5 77.9781 87.0824 77.5993 87.5938C77.2253 88.1004 76.7021 88.4981 76.0297 88.7869C75.3621 89.0758 74.588 89.2202 73.7073 89.2202C72.4857 89.2202 71.489 88.9598 70.7172 88.4389C69.9455 87.9134 69.472 87.1676 69.2968 86.2017L71.3493 85.8892C71.4772 86.4242 71.74 86.8291 72.1377 87.1037C72.5354 87.3736 73.0539 87.5085 73.6931 87.5085C74.3891 87.5085 74.9455 87.3641 75.3621 87.0753C75.7788 86.7817 75.9871 86.4242 75.9871 86.0028C75.9871 85.6619 75.8593 85.3755 75.6036 85.1435C75.3527 84.9115 74.9668 84.7363 74.4459 84.6179L72.5993 84.2131C71.5814 83.9811 70.8285 83.6117 70.3408 83.1051C69.8579 82.5985 69.6164 81.9569 69.6164 81.1804C69.6164 80.5365 69.7963 79.973 70.1562 79.4901C70.516 79.0071 71.0132 78.6307 71.6476 78.3608C72.2821 78.0862 73.0089 77.9489 73.828 77.9489C75.007 77.9489 75.935 78.2045 76.6121 78.7159C77.2892 79.2225 77.7367 79.902 77.9545 80.7543ZM84.8841 89.2202C83.8093 89.2202 82.8836 88.9905 82.1071 88.5312C81.3353 88.0672 80.7387 87.4162 80.3173 86.5781C79.9007 85.7353 79.6923 84.7481 79.6923 83.6165C79.6923 82.4991 79.9007 81.5142 80.3173 80.6619C80.7387 79.8097 81.3259 79.1444 82.0787 78.6662C82.8363 78.188 83.7217 77.9489 84.735 77.9489C85.3505 77.9489 85.9471 78.0507 86.5247 78.2543C87.1024 78.4579 87.6208 78.7775 88.0801 79.2131C88.5394 79.6487 88.9016 80.2145 89.1668 80.9105C89.4319 81.6018 89.5645 82.4422 89.5645 83.4318V84.1847H80.8926V82.5938H87.4835C87.4835 82.035 87.3699 81.5402 87.1426 81.1094C86.9154 80.6738 86.5958 80.3305 86.1838 80.0795C85.7766 79.8286 85.2984 79.7031 84.7492 79.7031C84.1526 79.7031 83.6317 79.8499 83.1867 80.1435C82.7463 80.4323 82.4054 80.8111 82.1639 81.2798C81.9272 81.7438 81.8088 82.2481 81.8088 82.7926V84.0355C81.8088 84.7647 81.9367 85.3849 82.1923 85.8963C82.4528 86.4077 82.815 86.7983 83.279 87.0682C83.743 87.3333 84.2851 87.4659 84.9054 87.4659C85.3079 87.4659 85.6748 87.4091 86.0063 87.2955C86.3377 87.1771 86.6242 87.0019 86.8656 86.7699C87.1071 86.5379 87.2918 86.2514 87.4196 85.9105L89.4296 86.2727C89.2686 86.8646 88.9798 87.383 88.5631 87.8281C88.1512 88.2685 87.6327 88.6117 87.0077 88.858C86.3874 89.0994 85.6796 89.2202 84.8841 89.2202ZM94.7754 89.2415C94.0841 89.2415 93.4591 89.1136 92.9004 88.858C92.3417 88.5975 91.899 88.2211 91.5723 87.7287C91.2503 87.2363 91.0893 86.6326 91.0893 85.9176C91.0893 85.3021 91.2077 84.7955 91.4444 84.3977C91.6812 84 92.0008 83.6851 92.4032 83.4531C92.8057 83.2211 93.2555 83.0459 93.7527 82.9276C94.2498 82.8092 94.7565 82.7192 95.2726 82.6577C95.926 82.5819 96.4563 82.5204 96.8635 82.473C97.2707 82.4209 97.5666 82.3381 97.7513 82.2244C97.9359 82.1108 98.0282 81.9261 98.0282 81.6705V81.6207C98.0282 81.0005 97.8531 80.5199 97.5027 80.179C97.157 79.8381 96.6409 79.6676 95.9544 79.6676C95.2394 79.6676 94.676 79.8262 94.264 80.1435C93.8568 80.456 93.5751 80.804 93.4189 81.1875L91.4231 80.733C91.6599 80.0701 92.0055 79.535 92.4601 79.1278C92.9193 78.7159 93.4473 78.4176 94.0439 78.233C94.6405 78.0436 95.2678 77.9489 95.926 77.9489C96.3616 77.9489 96.8232 78.0009 97.3109 78.1051C97.8033 78.2045 98.2626 78.3892 98.6888 78.6591C99.1196 78.929 99.4724 79.3149 99.747 79.8168C100.022 80.3139 100.159 80.9602 100.159 81.7557V89H98.0851V87.5085H97.9998C97.8625 87.7831 97.6566 88.053 97.3819 88.3182C97.1073 88.5833 96.7546 88.8035 96.3237 88.9787C95.8928 89.1539 95.3767 89.2415 94.7754 89.2415ZM95.237 87.5369C95.8242 87.5369 96.3261 87.4209 96.7427 87.1889C97.1641 86.9569 97.4837 86.6539 97.7015 86.2798C97.9241 85.901 98.0353 85.4962 98.0353 85.0653V83.6591C97.9596 83.7348 97.8128 83.8059 97.595 83.8722C97.3819 83.9337 97.1381 83.9882 96.8635 84.0355C96.5888 84.0781 96.3213 84.1184 96.0609 84.1562C95.8005 84.1894 95.5827 84.2178 95.4075 84.2415C94.9956 84.2936 94.6191 84.3812 94.2782 84.5043C93.9421 84.6274 93.6722 84.8049 93.4686 85.0369C93.2697 85.2642 93.1703 85.5672 93.1703 85.946C93.1703 86.4716 93.3644 86.8693 93.7527 87.1392C94.1409 87.4044 94.6357 87.5369 95.237 87.5369ZM102.667 89V78.0909H104.72V79.8239H104.834C105.032 79.2367 105.383 78.7751 105.885 78.4389C106.391 78.098 106.964 77.9276 107.603 77.9276C107.736 77.9276 107.892 77.9323 108.072 77.9418C108.257 77.9512 108.401 77.9631 108.505 77.9773V80.0085C108.42 79.9848 108.269 79.9588 108.051 79.9304C107.833 79.8973 107.615 79.8807 107.398 79.8807C106.896 79.8807 106.448 79.9872 106.055 80.2003C105.667 80.4086 105.359 80.6998 105.132 81.0739C104.905 81.4432 104.791 81.8646 104.791 82.3381V89H102.667ZM114.228 89.2202C113.172 89.2202 112.263 88.9811 111.5 88.5028C110.743 88.0199 110.16 87.3546 109.753 86.5071C109.346 85.6596 109.143 84.6889 109.143 83.5952C109.143 82.4872 109.351 81.5095 109.768 80.6619C110.184 79.8097 110.771 79.1444 111.529 78.6662C112.286 78.188 113.179 77.9489 114.206 77.9489C115.035 77.9489 115.774 78.1027 116.422 78.4105C117.071 78.7135 117.594 79.1397 117.992 79.6889C118.394 80.2382 118.634 80.8797 118.709 81.6136H116.643C116.529 81.1023 116.268 80.6619 115.861 80.2926C115.459 79.9233 114.919 79.7386 114.242 79.7386C113.65 79.7386 113.132 79.8949 112.687 80.2074C112.246 80.5152 111.903 80.9555 111.657 81.5284C111.41 82.0966 111.287 82.7689 111.287 83.5455C111.287 84.3409 111.408 85.0275 111.65 85.6051C111.891 86.1828 112.232 86.6302 112.672 86.9474C113.117 87.2647 113.641 87.4233 114.242 87.4233C114.644 87.4233 115.009 87.3499 115.336 87.2031C115.667 87.0516 115.944 86.8362 116.167 86.5568C116.394 86.2775 116.553 85.9413 116.643 85.5483H118.709C118.634 86.2538 118.404 86.8835 118.02 87.4375C117.637 87.9915 117.123 88.4271 116.479 88.7443C115.84 89.0616 115.089 89.2202 114.228 89.2202ZM122.784 82.5227V89H120.66V74.4545H122.755V79.8665H122.89C123.146 79.2794 123.537 78.813 124.062 78.4673C124.588 78.1217 125.274 77.9489 126.122 77.9489C126.87 77.9489 127.523 78.1027 128.082 78.4105C128.646 78.7183 129.081 79.1776 129.389 79.7884C129.701 80.3944 129.858 81.152 129.858 82.0611V89H127.734V82.3168C127.734 81.5166 127.528 80.8963 127.116 80.456C126.704 80.0109 126.131 79.7884 125.397 79.7884C124.896 79.7884 124.446 79.8949 124.048 80.108C123.655 80.321 123.345 80.6335 123.118 81.0455C122.895 81.4527 122.784 81.9451 122.784 82.5227Z" fill="#E4E4E5"/>
<g filter="url(#filter1_d_5163_15946)">
<path d="M176 30H248" stroke="#CF4520" stroke-width="2"/>
<rect x="248" y="14" width="32" height="32" rx="16" fill="#CF4520"/>
<path d="M259.061 37V35.0057L263.721 30.6911C264.117 30.3075 264.45 29.9624 264.718 29.6555C264.991 29.3487 265.197 29.0483 265.338 28.7543C265.479 28.456 265.549 28.1342 265.549 27.7891C265.549 27.4055 265.462 27.0753 265.287 26.7983C265.112 26.517 264.874 26.3018 264.571 26.1527C264.268 25.9993 263.925 25.9226 263.542 25.9226C263.141 25.9226 262.792 26.0036 262.494 26.1655C262.195 26.3274 261.965 26.5597 261.803 26.8622C261.641 27.1648 261.56 27.5249 261.56 27.9425H258.933C258.933 27.0859 259.127 26.3423 259.515 25.7116C259.903 25.081 260.446 24.593 261.145 24.2479C261.844 23.9027 262.649 23.7301 263.561 23.7301C264.499 23.7301 265.315 23.8963 266.009 24.2287C266.708 24.5568 267.251 25.0128 267.639 25.5966C268.027 26.1804 268.221 26.8494 268.221 27.6037C268.221 28.098 268.123 28.5859 267.927 29.0675C267.735 29.549 267.392 30.0838 266.898 30.6719C266.403 31.2557 265.707 31.9567 264.808 32.7749L262.896 34.6477V34.7372H268.393V37H259.061Z" fill="#E4E4E5"/>
<path d="M280 30H352" stroke="#CF4520" stroke-width="2"/>
</g>
<path d="M227.827 89H225.497L230.732 74.4545H233.267L238.501 89H236.172L232.06 77.0966H231.946L227.827 89ZM228.217 83.304H235.774V85.1506H228.217V83.304ZM242.235 82.5227V89H240.111V78.0909H242.15V79.8665H242.285C242.536 79.2888 242.929 78.8248 243.464 78.4744C244.004 78.1241 244.683 77.9489 245.502 77.9489C246.245 77.9489 246.897 78.1051 247.455 78.4176C248.014 78.7254 248.447 79.1847 248.755 79.7955C249.063 80.4062 249.217 81.1615 249.217 82.0611V89H247.093V82.3168C247.093 81.526 246.887 80.9081 246.475 80.4631C246.063 80.0133 245.497 79.7884 244.778 79.7884C244.285 79.7884 243.847 79.8949 243.464 80.108C243.085 80.321 242.784 80.6335 242.562 81.0455C242.344 81.4527 242.235 81.9451 242.235 82.5227ZM254.919 89.2415C254.228 89.2415 253.603 89.1136 253.044 88.858C252.486 88.5975 252.043 88.2211 251.716 87.7287C251.394 87.2363 251.233 86.6326 251.233 85.9176C251.233 85.3021 251.352 84.7955 251.588 84.3977C251.825 84 252.145 83.6851 252.547 83.4531C252.95 83.2211 253.399 83.0459 253.897 82.9276C254.394 82.8092 254.9 82.7192 255.416 82.6577C256.07 82.5819 256.6 82.5204 257.007 82.473C257.415 82.4209 257.71 82.3381 257.895 82.2244C258.08 82.1108 258.172 81.9261 258.172 81.6705V81.6207C258.172 81.0005 257.997 80.5199 257.647 80.179C257.301 79.8381 256.785 79.6676 256.098 79.6676C255.383 79.6676 254.82 79.8262 254.408 80.1435C254.001 80.456 253.719 80.804 253.563 81.1875L251.567 80.733C251.804 80.0701 252.149 79.535 252.604 79.1278C253.063 78.7159 253.591 78.4176 254.188 78.233C254.784 78.0436 255.412 77.9489 256.07 77.9489C256.505 77.9489 256.967 78.0009 257.455 78.1051C257.947 78.2045 258.407 78.3892 258.833 78.6591C259.264 78.929 259.616 79.3149 259.891 79.8168C260.166 80.3139 260.303 80.9602 260.303 81.7557V89H258.229V87.5085H258.144C258.006 87.7831 257.8 88.053 257.526 88.3182C257.251 88.5833 256.898 88.8035 256.468 88.9787C256.037 89.1539 255.521 89.2415 254.919 89.2415ZM255.381 87.5369C255.968 87.5369 256.47 87.4209 256.887 87.1889C257.308 86.9569 257.628 86.6539 257.845 86.2798C258.068 85.901 258.179 85.4962 258.179 85.0653V83.6591C258.103 83.7348 257.957 83.8059 257.739 83.8722C257.526 83.9337 257.282 83.9882 257.007 84.0355C256.733 84.0781 256.465 84.1184 256.205 84.1562C255.944 84.1894 255.727 84.2178 255.551 84.2415C255.139 84.2936 254.763 84.3812 254.422 84.5043C254.086 84.6274 253.816 84.8049 253.612 85.0369C253.414 85.2642 253.314 85.5672 253.314 85.946C253.314 86.4716 253.508 86.8693 253.897 87.1392C254.285 87.4044 254.78 87.5369 255.381 87.5369ZM264.935 74.4545V89H262.811V74.4545H264.935ZM268.814 93.0909C268.497 93.0909 268.208 93.0649 267.948 93.0128C267.687 92.9654 267.493 92.9134 267.365 92.8565L267.877 91.1165C268.265 91.2206 268.611 91.2656 268.914 91.2514C269.217 91.2372 269.484 91.1236 269.716 90.9105C269.953 90.6974 270.161 90.3494 270.341 89.8665L270.604 89.142L266.612 78.0909H268.885L271.648 86.5568H271.762L274.524 78.0909H276.804L272.308 90.456C272.1 91.0241 271.835 91.5047 271.513 91.8977C271.191 92.2955 270.807 92.5938 270.362 92.7926C269.917 92.9915 269.401 93.0909 268.814 93.0909ZM286.655 80.7543L284.73 81.0952C284.649 80.849 284.522 80.6146 284.346 80.392C284.176 80.1695 283.944 79.9872 283.65 79.8452C283.357 79.7031 282.99 79.6321 282.55 79.6321C281.948 79.6321 281.446 79.767 281.044 80.0369C280.641 80.3021 280.44 80.6454 280.44 81.0668C280.44 81.4313 280.575 81.7249 280.845 81.9474C281.115 82.17 281.55 82.3523 282.152 82.4943L283.885 82.892C284.889 83.1241 285.637 83.4815 286.129 83.9645C286.621 84.4474 286.868 85.0748 286.868 85.8466C286.868 86.5 286.678 87.0824 286.3 87.5938C285.925 88.1004 285.402 88.4981 284.73 88.7869C284.062 89.0758 283.288 89.2202 282.407 89.2202C281.186 89.2202 280.189 88.9598 279.417 88.4389C278.646 87.9134 278.172 87.1676 277.997 86.2017L280.05 85.8892C280.177 86.4242 280.44 86.8291 280.838 87.1037C281.236 87.3736 281.754 87.5085 282.393 87.5085C283.089 87.5085 283.646 87.3641 284.062 87.0753C284.479 86.7817 284.687 86.4242 284.687 86.0028C284.687 85.6619 284.559 85.3755 284.304 85.1435C284.053 84.9115 283.667 84.7363 283.146 84.6179L281.3 84.2131C280.282 83.9811 279.529 83.6117 279.041 83.1051C278.558 82.5985 278.317 81.9569 278.317 81.1804C278.317 80.5365 278.496 79.973 278.856 79.4901C279.216 79.0071 279.713 78.6307 280.348 78.3608C280.982 78.0862 281.709 77.9489 282.528 77.9489C283.707 77.9489 284.635 78.2045 285.312 78.7159C285.989 79.2225 286.437 79.902 286.655 80.7543ZM288.883 89V78.0909H291.006V89H288.883ZM289.955 76.4077C289.586 76.4077 289.268 76.2846 289.003 76.0384C288.743 75.7874 288.613 75.4891 288.613 75.1435C288.613 74.7931 288.743 74.4948 289.003 74.2486C289.268 73.9976 289.586 73.8722 289.955 73.8722C290.324 73.8722 290.639 73.9976 290.9 74.2486C291.165 74.4948 291.297 74.7931 291.297 75.1435C291.297 75.4891 291.165 75.7874 290.9 76.0384C290.639 76.2846 290.324 76.4077 289.955 76.4077ZM301.718 80.7543L299.793 81.0952C299.713 80.849 299.585 80.6146 299.41 80.392C299.239 80.1695 299.007 79.9872 298.713 79.8452C298.42 79.7031 298.053 79.6321 297.613 79.6321C297.011 79.6321 296.509 79.767 296.107 80.0369C295.704 80.3021 295.503 80.6454 295.503 81.0668C295.503 81.4313 295.638 81.7249 295.908 81.9474C296.178 82.17 296.614 82.3523 297.215 82.4943L298.948 82.892C299.952 83.1241 300.7 83.4815 301.192 83.9645C301.685 84.4474 301.931 85.0748 301.931 85.8466C301.931 86.5 301.741 87.0824 301.363 87.5938C300.989 88.1004 300.465 88.4981 299.793 88.7869C299.125 89.0758 298.351 89.2202 297.471 89.2202C296.249 89.2202 295.252 88.9598 294.481 88.4389C293.709 87.9134 293.235 87.1676 293.06 86.2017L295.113 85.8892C295.24 86.4242 295.503 86.8291 295.901 87.1037C296.299 87.3736 296.817 87.5085 297.456 87.5085C298.152 87.5085 298.709 87.3641 299.125 87.0753C299.542 86.7817 299.75 86.4242 299.75 86.0028C299.75 85.6619 299.623 85.3755 299.367 85.1435C299.116 84.9115 298.73 84.7363 298.209 84.6179L296.363 84.2131C295.345 83.9811 294.592 83.6117 294.104 83.1051C293.621 82.5985 293.38 81.9569 293.38 81.1804C293.38 80.5365 293.56 79.973 293.919 79.4901C294.279 79.0071 294.776 78.6307 295.411 78.3608C296.045 78.0862 296.772 77.9489 297.591 77.9489C298.77 77.9489 299.698 78.2045 300.375 78.7159C301.052 79.2225 301.5 79.902 301.718 80.7543Z" fill="#E4E4E5"/>
<g filter="url(#filter2_d_5163_15946)">
<path d="M352 30H424" stroke="#CF4520" stroke-width="2"/>
<rect x="424" y="14" width="32" height="32" rx="16" fill="#CF4520"/>
<path d="M434.857 33.299H437.65C437.675 33.6271 437.786 33.9126 437.982 34.1555C438.183 34.3942 438.445 34.5774 438.768 34.7053C439.092 34.8331 439.45 34.897 439.842 34.897C440.268 34.897 440.641 34.8246 440.961 34.6797C441.285 34.5348 441.538 34.326 441.722 34.0533C441.905 33.7805 441.996 33.4588 441.996 33.0881C441.996 32.7259 441.905 32.4041 441.722 32.1229C441.538 31.8374 441.263 31.6136 440.897 31.4517C440.531 31.2855 440.077 31.2024 439.536 31.2024H438.123V29.2784L441.025 26.2614V26.1719H435.515V23.9091H444.425V25.9034L440.91 29.4574V29.5597C441.6 29.6278 442.195 29.777 442.693 30.0071C443.196 30.2372 443.607 30.5249 443.927 30.87C444.246 31.2109 444.485 31.5881 444.643 32.0014C444.8 32.4148 444.879 32.8388 444.879 33.2734C444.879 34.0447 444.658 34.7244 444.214 35.3125C443.776 35.9006 443.177 36.3587 442.418 36.6868C441.66 37.0149 440.799 37.179 439.836 37.179C438.877 37.179 438.027 37.017 437.286 36.6932C436.548 36.3693 435.964 35.9176 435.534 35.3381C435.108 34.7543 434.882 34.0746 434.857 33.299Z" fill="#E4E4E5"/>
<path d="M456 30H528" stroke="#CF4520" stroke-width="2"/>
</g>
<path d="M413.807 89H409.098V74.4545H413.956C415.381 74.4545 416.605 74.7457 417.628 75.3281C418.651 75.9058 419.434 76.7367 419.979 77.821C420.528 78.9006 420.803 80.1955 420.803 81.706C420.803 83.2211 420.526 84.5232 419.972 85.6122C419.422 86.7012 418.627 87.5393 417.585 88.1264C416.544 88.7088 415.284 89 413.807 89ZM411.293 87.0824H413.686C414.794 87.0824 415.715 86.8741 416.449 86.4574C417.183 86.036 417.732 85.4276 418.097 84.6321C418.461 83.8319 418.643 82.8565 418.643 81.706C418.643 80.5649 418.461 79.5966 418.097 78.8011C417.737 78.0057 417.199 77.402 416.484 76.9901C415.769 76.5781 414.882 76.3722 413.821 76.3722H411.293V87.0824ZM427.743 89.2202C426.668 89.2202 425.742 88.9905 424.966 88.5312C424.194 88.0672 423.597 87.4162 423.176 86.5781C422.759 85.7353 422.551 84.7481 422.551 83.6165C422.551 82.4991 422.759 81.5142 423.176 80.6619C423.597 79.8097 424.185 79.1444 424.937 78.6662C425.695 78.188 426.58 77.9489 427.594 77.9489C428.209 77.9489 428.806 78.0507 429.383 78.2543C429.961 78.4579 430.48 78.7775 430.939 79.2131C431.398 79.6487 431.76 80.2145 432.026 80.9105C432.291 81.6018 432.423 82.4422 432.423 83.4318V84.1847H423.751V82.5938H430.342C430.342 82.035 430.229 81.5402 430.001 81.1094C429.774 80.6738 429.455 80.3305 429.043 80.0795C428.635 79.8286 428.157 79.7031 427.608 79.7031C427.011 79.7031 426.49 79.8499 426.045 80.1435C425.605 80.4323 425.264 80.8111 425.023 81.2798C424.786 81.7438 424.668 82.2481 424.668 82.7926V84.0355C424.668 84.7647 424.795 85.3849 425.051 85.8963C425.312 86.4077 425.674 86.7983 426.138 87.0682C426.602 87.3333 427.144 87.4659 427.764 87.4659C428.167 87.4659 428.534 87.4091 428.865 87.2955C429.196 87.1771 429.483 87.0019 429.724 86.7699C429.966 86.5379 430.151 86.2514 430.278 85.9105L432.288 86.2727C432.127 86.8646 431.838 87.383 431.422 87.8281C431.01 88.2685 430.491 88.6117 429.866 88.858C429.246 89.0994 428.538 89.2202 427.743 89.2202ZM442.634 80.7543L440.709 81.0952C440.629 80.849 440.501 80.6146 440.326 80.392C440.155 80.1695 439.923 79.9872 439.63 79.8452C439.336 79.7031 438.969 79.6321 438.529 79.6321C437.928 79.6321 437.426 79.767 437.023 80.0369C436.621 80.3021 436.42 80.6454 436.42 81.0668C436.42 81.4313 436.555 81.7249 436.824 81.9474C437.094 82.17 437.53 82.3523 438.131 82.4943L439.864 82.892C440.868 83.1241 441.616 83.4815 442.109 83.9645C442.601 84.4474 442.847 85.0748 442.847 85.8466C442.847 86.5 442.658 87.0824 442.279 87.5938C441.905 88.1004 441.382 88.4981 440.709 88.7869C440.042 89.0758 439.268 89.2202 438.387 89.2202C437.165 89.2202 436.169 88.9598 435.397 88.4389C434.625 87.9134 434.152 87.1676 433.976 86.2017L436.029 85.8892C436.157 86.4242 436.42 86.8291 436.817 87.1037C437.215 87.3736 437.734 87.5085 438.373 87.5085C439.069 87.5085 439.625 87.3641 440.042 87.0753C440.458 86.7817 440.667 86.4242 440.667 86.0028C440.667 85.6619 440.539 85.3755 440.283 85.1435C440.032 84.9115 439.646 84.7363 439.126 84.6179L437.279 84.2131C436.261 83.9811 435.508 83.6117 435.021 83.1051C434.538 82.5985 434.296 81.9569 434.296 81.1804C434.296 80.5365 434.476 79.973 434.836 79.4901C435.196 79.0071 435.693 78.6307 436.327 78.3608C436.962 78.0862 437.689 77.9489 438.508 77.9489C439.687 77.9489 440.615 78.2045 441.292 78.7159C441.969 79.2225 442.416 79.902 442.634 80.7543ZM444.862 89V78.0909H446.986V89H444.862ZM445.935 76.4077C445.565 76.4077 445.248 76.2846 444.983 76.0384C444.722 75.7874 444.592 75.4891 444.592 75.1435C444.592 74.7931 444.722 74.4948 444.983 74.2486C445.248 73.9976 445.565 73.8722 445.935 73.8722C446.304 73.8722 446.619 73.9976 446.879 74.2486C447.144 74.4948 447.277 74.7931 447.277 75.1435C447.277 75.4891 447.144 75.7874 446.879 76.0384C446.619 76.2846 446.304 76.4077 445.935 76.4077ZM454.096 93.3182C453.23 93.3182 452.484 93.2045 451.859 92.9773C451.239 92.75 450.732 92.4493 450.339 92.0753C449.946 91.7012 449.653 91.2917 449.459 90.8466L451.284 90.0938C451.412 90.3021 451.582 90.5223 451.795 90.7543C452.013 90.991 452.307 91.1922 452.676 91.358C453.05 91.5237 453.531 91.6065 454.118 91.6065C454.923 91.6065 455.588 91.41 456.113 91.017C456.639 90.6288 456.902 90.0085 456.902 89.1562V87.0114H456.767C456.639 87.2434 456.454 87.5014 456.213 87.7855C455.976 88.0696 455.649 88.3158 455.233 88.5241C454.816 88.7325 454.274 88.8366 453.606 88.8366C452.745 88.8366 451.968 88.6354 451.277 88.233C450.59 87.8258 450.046 87.2268 449.643 86.4361C449.246 85.6406 449.047 84.6629 449.047 83.5028C449.047 82.3428 449.243 81.3485 449.636 80.5199C450.034 79.6913 450.578 79.0568 451.27 78.6165C451.961 78.1714 452.745 77.9489 453.621 77.9489C454.298 77.9489 454.845 78.0625 455.261 78.2898C455.678 78.5123 456.002 78.7727 456.234 79.071C456.471 79.3693 456.653 79.6321 456.781 79.8594H456.937V78.0909H459.018V89.2415C459.018 90.179 458.8 90.9484 458.365 91.5497C457.929 92.151 457.34 92.5961 456.596 92.8849C455.858 93.1738 455.024 93.3182 454.096 93.3182ZM454.075 87.0753C454.686 87.0753 455.202 86.9332 455.623 86.6491C456.05 86.3603 456.372 85.9484 456.589 85.4134C456.812 84.8736 456.923 84.2273 456.923 83.4744C456.923 82.7405 456.814 82.0942 456.596 81.5355C456.379 80.9768 456.059 80.5412 455.638 80.2287C455.216 79.9115 454.695 79.7528 454.075 79.7528C453.436 79.7528 452.903 79.9186 452.477 80.25C452.051 80.5767 451.729 81.0218 451.511 81.5852C451.298 82.1487 451.192 82.7784 451.192 83.4744C451.192 84.1894 451.3 84.8168 451.518 85.3565C451.736 85.8963 452.058 86.3177 452.484 86.6207C452.915 86.9238 453.445 87.0753 454.075 87.0753ZM463.67 82.5227V89H461.546V78.0909H463.585V79.8665H463.72C463.971 79.2888 464.364 78.8248 464.899 78.4744C465.438 78.1241 466.118 77.9489 466.937 77.9489C467.68 77.9489 468.331 78.1051 468.89 78.4176C469.449 78.7254 469.882 79.1847 470.19 79.7955C470.498 80.4062 470.651 81.1615 470.651 82.0611V89H468.528V82.3168C468.528 81.526 468.322 80.9081 467.91 80.4631C467.498 80.0133 466.932 79.7884 466.213 79.7884C465.72 79.7884 465.282 79.8949 464.899 80.108C464.52 80.321 464.219 80.6335 463.997 81.0455C463.779 81.4527 463.67 81.9451 463.67 82.5227Z" fill="#E4E4E5"/>
<g filter="url(#filter3_d_5163_15946)">
<path d="M528 30H600" stroke="#CF4520" stroke-width="2"/>
<rect x="600" y="14" width="32" height="32" rx="16" fill="#CF4520"/>
<path d="M610.363 34.6989V32.5192L615.253 23.9091H617.918L613.143 32.3786V32.4808H620.916V34.6989H610.363ZM616.646 37V34.0533L616.723 33.0689V28.8182H619.248V37H616.646Z" fill="#E4E4E5"/>
<path d="M632 30H704" stroke="#CF4520" stroke-width="2"/>
</g>
<path d="M596.381 76.3438V74.4545H607.638V76.3438H603.099V89H600.912V76.3438H596.381ZM612.755 89.2202C611.68 89.2202 610.754 88.9905 609.978 88.5312C609.206 88.0672 608.609 87.4162 608.188 86.5781C607.771 85.7353 607.563 84.7481 607.563 83.6165C607.563 82.4991 607.771 81.5142 608.188 80.6619C608.609 79.8097 609.196 79.1444 609.949 78.6662C610.707 78.188 611.592 77.9489 612.605 77.9489C613.221 77.9489 613.818 78.0507 614.395 78.2543C614.973 78.4579 615.491 78.7775 615.951 79.2131C616.41 79.6487 616.772 80.2145 617.037 80.9105C617.302 81.6018 617.435 82.4422 617.435 83.4318V84.1847H608.763V82.5938H615.354C615.354 82.035 615.24 81.5402 615.013 81.1094C614.786 80.6738 614.466 80.3305 614.054 80.0795C613.647 79.8286 613.169 79.7031 612.62 79.7031C612.023 79.7031 611.502 79.8499 611.057 80.1435C610.617 80.4323 610.276 80.8111 610.034 81.2798C609.798 81.7438 609.679 82.2481 609.679 82.7926V84.0355C609.679 84.7647 609.807 85.3849 610.063 85.8963C610.323 86.4077 610.685 86.7983 611.149 87.0682C611.613 87.3333 612.156 87.4659 612.776 87.4659C613.178 87.4659 613.545 87.4091 613.877 87.2955C614.208 87.1771 614.495 87.0019 614.736 86.7699C614.978 86.5379 615.162 86.2514 615.29 85.9105L617.3 86.2727C617.139 86.8646 616.85 87.383 616.434 87.8281C616.022 88.2685 615.503 88.6117 614.878 88.858C614.258 89.0994 613.55 89.2202 612.755 89.2202ZM627.646 80.7543L625.721 81.0952C625.641 80.849 625.513 80.6146 625.338 80.392C625.167 80.1695 624.935 79.9872 624.642 79.8452C624.348 79.7031 623.981 79.6321 623.541 79.6321C622.939 79.6321 622.438 79.767 622.035 80.0369C621.633 80.3021 621.431 80.6454 621.431 81.0668C621.431 81.4313 621.566 81.7249 621.836 81.9474C622.106 82.17 622.542 82.3523 623.143 82.4943L624.876 82.892C625.88 83.1241 626.628 83.4815 627.12 83.9645C627.613 84.4474 627.859 85.0748 627.859 85.8466C627.859 86.5 627.67 87.0824 627.291 87.5938C626.917 88.1004 626.393 88.4981 625.721 88.7869C625.054 89.0758 624.279 89.2202 623.399 89.2202C622.177 89.2202 621.18 88.9598 620.409 88.4389C619.637 87.9134 619.163 87.1676 618.988 86.2017L621.041 85.8892C621.169 86.4242 621.431 86.8291 621.829 87.1037C622.227 87.3736 622.745 87.5085 623.385 87.5085C624.081 87.5085 624.637 87.3641 625.054 87.0753C625.47 86.7817 625.679 86.4242 625.679 86.0028C625.679 85.6619 625.551 85.3755 625.295 85.1435C625.044 84.9115 624.658 84.7363 624.137 84.6179L622.291 84.2131C621.273 83.9811 620.52 83.6117 620.032 83.1051C619.549 82.5985 619.308 81.9569 619.308 81.1804C619.308 80.5365 619.488 79.973 619.848 79.4901C620.207 79.0071 620.705 78.6307 621.339 78.3608C621.974 78.0862 622.7 77.9489 623.519 77.9489C624.698 77.9489 625.626 78.2045 626.304 78.7159C626.981 79.2225 627.428 79.902 627.646 80.7543ZM634.966 78.0909V79.7955H629.007V78.0909H634.966ZM630.605 75.4773H632.729V85.7969C632.729 86.2088 632.79 86.5189 632.914 86.7273C633.037 86.9309 633.195 87.0705 633.389 87.1463C633.588 87.2173 633.804 87.2528 634.036 87.2528C634.206 87.2528 634.355 87.241 634.483 87.2173C634.611 87.1937 634.71 87.1747 634.781 87.1605L635.165 88.9148C635.042 88.9621 634.867 89.0095 634.639 89.0568C634.412 89.1089 634.128 89.1373 633.787 89.142C633.228 89.1515 632.708 89.0521 632.225 88.8438C631.742 88.6354 631.351 88.3134 631.053 87.8778C630.754 87.4422 630.605 86.8954 630.605 86.2372V75.4773Z" fill="#E4E4E5"/>
<g filter="url(#filter4_d_5163_15946)">
<path d="M704 30H776" stroke="#CF4520" stroke-width="2"/>
<rect x="776" y="14" width="32" height="32" rx="16" fill="#CF4520"/>
<path d="M791.842 37.179C790.939 37.179 790.134 37.0128 789.426 36.6804C788.723 36.348 788.165 35.8899 787.751 35.3061C787.338 34.7223 787.123 34.0533 787.106 33.299H789.79C789.82 33.8061 790.033 34.2173 790.43 34.5327C790.826 34.848 791.297 35.0057 791.842 35.0057C792.277 35.0057 792.661 34.9098 792.993 34.718C793.33 34.522 793.592 34.2514 793.779 33.9062C793.971 33.5568 794.067 33.1562 794.067 32.7045C794.067 32.2443 793.969 31.8395 793.773 31.4901C793.581 31.1406 793.315 30.8679 792.974 30.6719C792.633 30.4759 792.243 30.3757 791.804 30.3714C791.42 30.3714 791.048 30.4503 790.685 30.608C790.327 30.7656 790.048 30.9808 789.848 31.2536L787.387 30.8125L788.007 23.9091H796.01V26.1719H790.289L789.95 29.451H790.027C790.257 29.1271 790.604 28.8587 791.069 28.6456C791.533 28.4325 792.053 28.326 792.629 28.326C793.417 28.326 794.12 28.5114 794.738 28.8821C795.356 29.2528 795.844 29.7621 796.202 30.4098C796.56 31.0533 796.737 31.7947 796.732 32.6342C796.737 33.5163 796.532 34.3004 796.119 34.9865C795.71 35.6683 795.136 36.2053 794.399 36.5973C793.666 36.9851 792.814 37.179 791.842 37.179Z" fill="#E4E4E5"/>
</g>
<path d="M755.598 89V74.4545H757.793V80.7756H765.044V74.4545H767.246V89H765.044V82.6577H757.793V89H755.598ZM773.126 89.2415C772.435 89.2415 771.81 89.1136 771.251 88.858C770.692 88.5975 770.25 88.2211 769.923 87.7287C769.601 87.2363 769.44 86.6326 769.44 85.9176C769.44 85.3021 769.558 84.7955 769.795 84.3977C770.032 84 770.351 83.6851 770.754 83.4531C771.156 83.2211 771.606 83.0459 772.103 82.9276C772.6 82.8092 773.107 82.7192 773.623 82.6577C774.277 82.5819 774.807 82.5204 775.214 82.473C775.621 82.4209 775.917 82.3381 776.102 82.2244C776.287 82.1108 776.379 81.9261 776.379 81.6705V81.6207C776.379 81.0005 776.204 80.5199 775.853 80.179C775.508 79.8381 774.992 79.6676 774.305 79.6676C773.59 79.6676 773.027 79.8262 772.615 80.1435C772.207 80.456 771.926 80.804 771.769 81.1875L769.774 80.733C770.01 80.0701 770.356 79.535 770.811 79.1278C771.27 78.7159 771.798 78.4176 772.394 78.233C772.991 78.0436 773.618 77.9489 774.277 77.9489C774.712 77.9489 775.174 78.0009 775.662 78.1051C776.154 78.2045 776.613 78.3892 777.039 78.6591C777.47 78.929 777.823 79.3149 778.098 79.8168C778.372 80.3139 778.51 80.9602 778.51 81.7557V89H776.436V87.5085H776.35C776.213 87.7831 776.007 88.053 775.733 88.3182C775.458 88.5833 775.105 88.8035 774.674 88.9787C774.243 89.1539 773.727 89.2415 773.126 89.2415ZM773.588 87.5369C774.175 87.5369 774.677 87.4209 775.093 87.1889C775.515 86.9569 775.834 86.6539 776.052 86.2798C776.275 85.901 776.386 85.4962 776.386 85.0653V83.6591C776.31 83.7348 776.163 83.8059 775.946 83.8722C775.733 83.9337 775.489 83.9882 775.214 84.0355C774.939 84.0781 774.672 84.1184 774.412 84.1562C774.151 84.1894 773.933 84.2178 773.758 84.2415C773.346 84.2936 772.97 84.3812 772.629 84.5043C772.293 84.6274 772.023 84.8049 771.819 85.0369C771.62 85.2642 771.521 85.5672 771.521 85.946C771.521 86.4716 771.715 86.8693 772.103 87.1392C772.492 87.4044 772.986 87.5369 773.588 87.5369ZM783.142 82.5227V89H781.018V78.0909H783.056V79.8665H783.191C783.442 79.2888 783.835 78.8248 784.37 78.4744C784.91 78.1241 785.59 77.9489 786.409 77.9489C787.152 77.9489 787.803 78.1051 788.362 78.4176C788.92 78.7254 789.354 79.1847 789.661 79.7955C789.969 80.4062 790.123 81.1615 790.123 82.0611V89H788V82.3168C788 81.526 787.794 80.9081 787.382 80.4631C786.97 80.0133 786.404 79.7884 785.684 79.7884C785.192 79.7884 784.754 79.8949 784.37 80.108C783.992 80.321 783.691 80.6335 783.468 81.0455C783.251 81.4527 783.142 81.9451 783.142 82.5227ZM796.735 89.2131C795.854 89.2131 795.068 88.9882 794.377 88.5384C793.69 88.0838 793.151 87.4375 792.758 86.5994C792.369 85.7566 792.175 84.7457 792.175 83.5668C792.175 82.3878 792.372 81.3793 792.765 80.5412C793.163 79.7031 793.707 79.0616 794.398 78.6165C795.09 78.1714 795.873 77.9489 796.749 77.9489C797.426 77.9489 797.971 78.0625 798.383 78.2898C798.799 78.5123 799.121 78.7727 799.349 79.071C799.581 79.3693 799.761 79.6321 799.888 79.8594H800.016V74.4545H802.14V89H800.066V87.3026H799.888C799.761 87.5346 799.576 87.7997 799.334 88.098C799.098 88.3963 798.771 88.6567 798.354 88.8793C797.938 89.1018 797.398 89.2131 796.735 89.2131ZM797.204 87.402C797.815 87.402 798.331 87.241 798.752 86.919C799.178 86.5923 799.5 86.1402 799.718 85.5625C799.94 84.9848 800.052 84.3125 800.052 83.5455C800.052 82.7879 799.943 82.125 799.725 81.5568C799.507 80.9886 799.188 80.5459 798.766 80.2287C798.345 79.9115 797.824 79.7528 797.204 79.7528C796.565 79.7528 796.032 79.9186 795.606 80.25C795.18 80.5814 794.858 81.0336 794.64 81.6065C794.427 82.1795 794.32 82.8258 794.32 83.5455C794.32 84.2746 794.429 84.9304 794.647 85.5128C794.865 86.0952 795.187 86.5568 795.613 86.8977C796.044 87.2339 796.574 87.402 797.204 87.402ZM809.446 89.2202C808.423 89.2202 807.531 88.9858 806.768 88.517C806.006 88.0483 805.414 87.3925 804.993 86.5497C804.571 85.7069 804.361 84.7221 804.361 83.5952C804.361 82.4635 804.571 81.474 804.993 80.6264C805.414 79.7789 806.006 79.1207 806.768 78.652C807.531 78.1832 808.423 77.9489 809.446 77.9489C810.469 77.9489 811.361 78.1832 812.123 78.652C812.886 79.1207 813.478 79.7789 813.899 80.6264C814.32 81.474 814.531 82.4635 814.531 83.5952C814.531 84.7221 814.32 85.7069 813.899 86.5497C813.478 87.3925 812.886 88.0483 812.123 88.517C811.361 88.9858 810.469 89.2202 809.446 89.2202ZM809.453 87.4375C810.116 87.4375 810.665 87.2623 811.101 86.9119C811.536 86.5616 811.858 86.0952 812.067 85.5128C812.28 84.9304 812.386 84.2888 812.386 83.5881C812.386 82.892 812.28 82.2528 812.067 81.6705C811.858 81.0833 811.536 80.6122 811.101 80.2571C810.665 79.902 810.116 79.7244 809.453 79.7244C808.785 79.7244 808.231 79.902 807.791 80.2571C807.355 80.6122 807.031 81.0833 806.818 81.6705C806.61 82.2528 806.506 82.892 806.506 83.5881C806.506 84.2888 806.61 84.9304 806.818 85.5128C807.031 86.0952 807.355 86.5616 807.791 86.9119C808.231 87.2623 808.785 87.4375 809.453 87.4375ZM821.773 78.0909V79.7955H815.608V78.0909H821.773ZM817.299 89V76.8267C817.299 76.1449 817.448 75.5791 817.746 75.1293C818.045 74.6747 818.44 74.3362 818.932 74.1136C819.425 73.8864 819.96 73.7727 820.537 73.7727C820.964 73.7727 821.328 73.8082 821.631 73.8793C821.934 73.9455 822.159 74.0071 822.306 74.0639L821.809 75.7827C821.709 75.7543 821.581 75.7211 821.425 75.6832C821.269 75.6406 821.08 75.6193 820.857 75.6193C820.341 75.6193 819.972 75.7472 819.749 76.0028C819.531 76.2585 819.422 76.6278 819.422 77.1108V89H817.299ZM828.836 78.0909V79.7955H822.671V78.0909H828.836ZM824.362 89V76.8267C824.362 76.1449 824.511 75.5791 824.809 75.1293C825.107 74.6747 825.503 74.3362 825.995 74.1136C826.488 73.8864 827.023 73.7727 827.6 73.7727C828.026 73.7727 828.391 73.8082 828.694 73.8793C828.997 73.9455 829.222 74.0071 829.369 74.0639L828.872 75.7827C828.772 75.7543 828.644 75.7211 828.488 75.6832C828.332 75.6406 828.142 75.6193 827.92 75.6193C827.404 75.6193 827.034 75.7472 826.812 76.0028C826.594 76.2585 826.485 76.6278 826.485 77.1108V89H824.362Z" fill="#E4E4E5"/>
<defs>
<filter id="filter0_d_5163_15946" x="-16" y="0" width="208" height="64" filterUnits="userSpaceOnUse" color-interpolation-filters="sRGB">
<feFlood flood-opacity="0" result="BackgroundImageFix"/>
<feColorMatrix in="SourceAlpha" type="matrix" values="0 0 0 0 0 0 0 0 0 0 0 0 0 0 0 0 0 0 127 0" result="hardAlpha"/>
<feMorphology radius="4" operator="dilate" in="SourceAlpha" result="effect1_dropShadow_5163_15946"/>
<feOffset dy="2"/>
<feGaussianBlur stdDeviation="6"/>
<feComposite in2="hardAlpha" operator="out"/>
<feColorMatrix type="matrix" values="0 0 0 0 0 0 0 0 0 0 0 0 0 0 0 0 0 0 0.4 0"/>
<feBlend mode="normal" in2="BackgroundImageFix" result="effect1_dropShadow_5163_15946"/>
<feBlend mode="normal" in="SourceGraphic" in2="effect1_dropShadow_5163_15946" result="shape"/>
</filter>
<filter id="filter1_d_5163_15946" x="160" y="0" width="208" height="64" filterUnits="userSpaceOnUse" color-interpolation-filters="sRGB">
<feFlood flood-opacity="0" result="BackgroundImageFix"/>
<feColorMatrix in="SourceAlpha" type="matrix" values="0 0 0 0 0 0 0 0 0 0 0 0 0 0 0 0 0 0 127 0" result="hardAlpha"/>
<feMorphology radius="4" operator="dilate" in="SourceAlpha" result="effect1_dropShadow_5163_15946"/>
<feOffset dy="2"/>
<feGaussianBlur stdDeviation="6"/>
<feComposite in2="hardAlpha" operator="out"/>
<feColorMatrix type="matrix" values="0 0 0 0 0 0 0 0 0 0 0 0 0 0 0 0 0 0 0.4 0"/>
<feBlend mode="normal" in2="BackgroundImageFix" result="effect1_dropShadow_5163_15946"/>
<feBlend mode="normal" in="SourceGraphic" in2="effect1_dropShadow_5163_15946" result="shape"/>
</filter>
<filter id="filter2_d_5163_15946" x="336" y="0" width="208" height="64" filterUnits="userSpaceOnUse" color-interpolation-filters="sRGB">
<feFlood flood-opacity="0" result="BackgroundImageFix"/>
<feColorMatrix in="SourceAlpha" type="matrix" values="0 0 0 0 0 0 0 0 0 0 0 0 0 0 0 0 0 0 127 0" result="hardAlpha"/>
<feMorphology radius="4" operator="dilate" in="SourceAlpha" result="effect1_dropShadow_5163_15946"/>
<feOffset dy="2"/>
<feGaussianBlur stdDeviation="6"/>
<feComposite in2="hardAlpha" operator="out"/>
<feColorMatrix type="matrix" values="0 0 0 0 0 0 0 0 0 0 0 0 0 0 0 0 0 0 0.4 0"/>
<feBlend mode="normal" in2="BackgroundImageFix" result="effect1_dropShadow_5163_15946"/>
<feBlend mode="normal" in="SourceGraphic" in2="effect1_dropShadow_5163_15946" result="shape"/>
</filter>
<filter id="filter3_d_5163_15946" x="512" y="0" width="208" height="64" filterUnits="userSpaceOnUse" color-interpolation-filters="sRGB">
<feFlood flood-opacity="0" result="BackgroundImageFix"/>
<feColorMatrix in="SourceAlpha" type="matrix" values="0 0 0 0 0 0 0 0 0 0 0 0 0 0 0 0 0 0 127 0" result="hardAlpha"/>
<feMorphology radius="4" operator="dilate" in="SourceAlpha" result="effect1_dropShadow_5163_15946"/>
<feOffset dy="2"/>
<feGaussianBlur stdDeviation="6"/>
<feComposite in2="hardAlpha" operator="out"/>
<feColorMatrix type="matrix" values="0 0 0 0 0 0 0 0 0 0 0 0 0 0 0 0 0 0 0.4 0"/>
<feBlend mode="normal" in2="BackgroundImageFix" result="effect1_dropShadow_5163_15946"/>
<feBlend mode="normal" in="SourceGraphic" in2="effect1_dropShadow_5163_15946" result="shape"/>
</filter>
<filter id="filter4_d_5163_15946" x="688" y="0" width="208" height="64" filterUnits="userSpaceOnUse" color-interpolation-filters="sRGB">
<feFlood flood-opacity="0" result="BackgroundImageFix"/>
<feColorMatrix in="SourceAlpha" type="matrix" values="0 0 0 0 0 0 0 0 0 0 0 0 0 0 0 0 0 0 127 0" result="hardAlpha"/>
<feMorphology radius="4" operator="dilate" in="SourceAlpha" result="effect1_dropShadow_5163_15946"/>
<feOffset dy="2"/>
<feGaussianBlur stdDeviation="6"/>
<feComposite in2="hardAlpha" operator="out"/>
<feColorMatrix type="matrix" values="0 0 0 0 0 0 0 0 0 0 0 0 0 0 0 0 0 0 0.4 0"/>
<feBlend mode="normal" in2="BackgroundImageFix" result="effect1_dropShadow_5163_15946"/>
<feBlend mode="normal" in="SourceGraphic" in2="effect1_dropShadow_5163_15946" result="shape"/>
</filter>
</defs>
</svg>
