<svg width="13" height="17" viewBox="0 0 13 17" fill="none" xmlns="http://www.w3.org/2000/svg">
<path d="M10.625 15.4062C10.8906 15.4062 11.1562 15.1738 11.1562 14.875V13.8125H12.75V14.875C12.75 16.0703 11.7871 17 10.625 17H2.125C0.929688 17 0 16.0703 0 14.875V13.8125H1.59375V14.875C1.59375 15.1738 1.82617 15.4062 2.125 15.4062H10.625ZM8.5 5.3125C7.90234 5.3125 7.4375 4.84766 7.4375 4.25V1.59375H2.125C1.82617 1.59375 1.59375 1.85938 1.59375 2.125V6.375H0V2.125C0 0.962891 0.929688 0 2.125 0H7.60352C8.16797 0 8.69922 0.232422 9.09766 0.630859L12.1191 3.65234C12.5176 4.05078 12.75 4.58203 12.75 5.14648V6.375H11.1562V5.3125H8.5ZM2.92188 7.4375C3.91797 7.4375 4.78125 8.30078 4.78125 9.29688C4.78125 10.3262 3.91797 11.1562 2.92188 11.1562H2.65625V12.2188C2.65625 12.5176 2.39062 12.75 2.125 12.75C1.82617 12.75 1.59375 12.5176 1.59375 12.2188V7.96875C1.59375 7.70312 1.82617 7.4375 2.125 7.4375H2.92188ZM3.71875 9.29688C3.71875 8.86523 3.35352 8.5 2.92188 8.5H2.65625V10.0938H2.92188C3.35352 10.0938 3.71875 9.76172 3.71875 9.29688ZM5.3125 7.96875C5.3125 7.70312 5.54492 7.4375 5.84375 7.4375H6.64062C7.50391 7.4375 8.23438 8.16797 8.23438 9.03125V11.1562C8.23438 12.0527 7.50391 12.75 6.64062 12.75H5.84375C5.54492 12.75 5.3125 12.5176 5.3125 12.2188V7.96875ZM6.375 11.6875H6.64062C6.90625 11.6875 7.17188 11.4551 7.17188 11.1562V9.03125C7.17188 8.76562 6.90625 8.5 6.64062 8.5H6.375V11.6875ZM11.1562 7.4375C11.4219 7.4375 11.6875 7.70312 11.6875 7.96875C11.6875 8.26758 11.4219 8.5 11.1562 8.5H10.0938V9.5625H11.1562C11.4219 9.5625 11.6875 9.82812 11.6875 10.0938C11.6875 10.3926 11.4219 10.625 11.1562 10.625H10.0938V12.2188C10.0938 12.5176 9.82812 12.75 9.5625 12.75C9.26367 12.75 9.03125 12.5176 9.03125 12.2188V7.96875C9.03125 7.70312 9.26367 7.4375 9.5625 7.4375H11.1562Z" fill="#12273A"/>
</svg>
