<svg width="50" height="50" viewBox="0 0 50 50" fill="none" xmlns="http://www.w3.org/2000/svg">
<rect width="50" height="50" rx="10" fill="#980C13"/>
<path fill-rule="evenodd" clip-rule="evenodd" d="M15.222 19.4498C14.7928 20.1253 14.036 21.1679 12.0682 21.3084C9.74161 21.4746 7.67643 19.3907 7.872 16.6136C8.07973 13.6638 9.8246 11.6345 12.0682 11.6695C14.7272 11.7111 17.7096 12.589 20.9593 14.2039C27.7315 17.5692 32.1354 17.7354 32.1354 17.7354L28.1009 24.4244L26.8339 26.5251L17.8017 41.5002H21.4579L29.9107 26.5958L31.1422 24.4244L34.7944 17.9847C37.398 18.2339 42.4391 16.6552 42.7299 12.0019C42.8206 10.5506 42.2526 9.72936 40.5695 9.46753C38.6999 9.1767 35.9578 11.2541 33.1741 15.8242C30.246 15.8242 27.5584 14.6865 24.4817 12.9395C21.0975 11.0179 17.544 9.00024 13.647 9.00024C9.36769 9.00024 6.99951 13.5807 6.99951 16.6136C6.99951 18.1509 7.91356 22.1809 12.0682 22.2225C14.0625 22.2424 15.3089 20.0205 15.3089 19.3142C15.2814 19.3564 15.2525 19.4018 15.222 19.4498ZM39.697 11.2541C38.4918 11.2541 36.3594 14.3147 35.7085 15.9073C36.1793 15.9489 37.0168 15.9495 37.7027 15.7411C38.8982 15.3779 39.6139 14.6609 40.2371 13.7884C40.8603 12.9159 41.3319 11.2541 39.697 11.2541Z" fill="white"/>
<path d="M26.8339 26.5251L28.1009 24.4244H26.2358C20.0453 24.4244 19.1312 29.1608 19.1312 29.1608C22.3303 26.5018 24.8647 26.5018 25.8203 26.5018L26.8339 26.5251Z" fill="white"/>
<path d="M31.1422 24.4244L29.9107 26.5958L33.0495 26.668L34.0881 24.4244H31.1422Z" fill="white"/>
<path d="M34.0881 24.4244L33.0495 26.668L29.9107 26.5958M34.0881 24.4244H31.1422M34.0881 24.4244C33.5823 24.4244 32.5555 24.4244 31.1422 24.4244M26.2358 24.4244C20.0453 24.4244 19.1312 29.1608 19.1312 29.1608C22.3303 26.5018 24.8647 26.5018 25.8203 26.5018L26.8339 26.5251M26.2358 24.4244H28.1009M26.2358 24.4244C26.8859 24.4244 27.5091 24.4244 28.1009 24.4244M26.8339 26.5251L28.1009 24.4244M26.8339 26.5251L17.8017 41.5002H21.4579L29.9107 26.5958M26.8339 26.5251L29.9107 26.5958M28.1009 24.4244L32.1354 17.7354C32.1354 17.7354 27.7315 17.5692 20.9593 14.2039C17.7096 12.589 14.7272 11.7111 12.0682 11.6695C9.8246 11.6345 8.07973 13.6638 7.872 16.6136C7.67643 19.3907 9.74161 21.4746 12.0682 21.3084C14.036 21.1679 14.7928 20.1253 15.222 19.4498C15.2525 19.4018 15.2814 19.3564 15.3089 19.3142C15.3089 20.0205 14.0625 22.2424 12.0682 22.2225C7.91356 22.1809 6.99951 18.1509 6.99951 16.6136C6.99951 13.5807 9.36769 9.00024 13.647 9.00024C17.544 9.00024 21.0975 11.0179 24.4817 12.9395C27.5584 14.6865 30.246 15.8242 33.1741 15.8242C35.9578 11.2541 38.6999 9.1767 40.5695 9.46753C42.2526 9.72936 42.8206 10.5506 42.7299 12.0019C42.4391 16.6552 37.398 18.2339 34.7944 17.9847L31.1422 24.4244M28.1009 24.4244C29.2418 24.4244 30.2663 24.4244 31.1422 24.4244M31.1422 24.4244L29.9107 26.5958M35.7085 15.9073C36.3594 14.3147 38.4918 11.2541 39.697 11.2541C41.3319 11.2541 40.8603 12.9159 40.2371 13.7884C39.6139 14.6609 38.8982 15.3779 37.7027 15.7411C37.0168 15.9495 36.1793 15.9489 35.7085 15.9073Z" stroke="white" stroke-width="0.520833"/>
</svg>
