<svg width="321" height="321" viewBox="0 0 321 321" fill="none" xmlns="http://www.w3.org/2000/svg">
<path d="M304.25 165.805C305.635 165.618 307.399 164.71 308.861 162.909C309.584 162.024 310.068 161.114 310.295 160.21L310.966 160.236C311.328 162.059 312.475 163.881 314.078 165.08C314.887 165.688 315.688 166.087 316.529 166.279L316.503 166.951C314.878 167.16 313.039 168.338 311.775 169.987C311.151 170.795 310.718 171.643 310.492 172.515L309.821 172.489C309.521 170.7 308.018 168.577 306.443 167.491C305.647 166.948 304.908 166.615 304.224 166.477L304.25 165.805Z" fill="#CF4520"/>
<path d="M300.864 194.76L301.867 190.759L313.155 193.589L312.143 197.623C311.858 198.759 311.387 199.679 310.73 200.385C310.076 201.092 309.274 201.561 308.322 201.791C307.369 202.024 306.306 201.994 305.134 201.7C303.959 201.405 303.004 200.93 302.27 200.273C301.536 199.621 301.046 198.824 300.802 197.884C300.556 196.948 300.577 195.907 300.864 194.76ZM303.314 193.658L302.934 195.174C302.757 195.879 302.733 196.504 302.862 197.048C302.994 197.596 303.294 198.058 303.763 198.433C304.234 198.813 304.89 199.108 305.731 199.319C306.565 199.528 307.278 199.576 307.869 199.463C308.458 199.353 308.939 199.089 309.309 198.67C309.68 198.251 309.953 197.689 310.13 196.984L310.512 195.463L303.314 193.658Z" fill="#CF4520"/>
<path d="M296.826 208.493L307.674 212.703L304.837 220.013L302.946 219.279L304.893 214.263L302.308 213.26L300.507 217.9L298.616 217.166L300.417 212.526L297.827 211.52L295.872 216.558L293.981 215.824L296.826 208.493Z" fill="#CF4520"/>
<path d="M294.975 232.892C295.402 233.064 295.808 233.057 296.193 232.869C296.578 232.681 296.907 232.325 297.181 231.802C297.367 231.446 297.474 231.119 297.501 230.821C297.532 230.526 297.494 230.266 297.388 230.044C297.28 229.825 297.116 229.658 296.894 229.542C296.713 229.439 296.532 229.393 296.35 229.405C296.167 229.42 295.986 229.477 295.806 229.576C295.63 229.676 295.453 229.806 295.275 229.965C295.101 230.126 294.93 230.306 294.762 230.505L294.056 231.315C293.72 231.712 293.37 232.055 293.006 232.343C292.641 232.631 292.264 232.849 291.875 232.996C291.486 233.143 291.086 233.205 290.675 233.182C290.262 233.163 289.84 233.042 289.408 232.821C288.779 232.488 288.316 232.04 288.02 231.479C287.725 230.923 287.606 230.28 287.664 229.549C287.723 228.823 287.972 228.041 288.411 227.202C288.846 226.369 289.353 225.711 289.931 225.227C290.507 224.746 291.136 224.463 291.817 224.379C292.499 224.3 293.216 224.446 293.966 224.818L292.863 226.927C292.505 226.77 292.165 226.718 291.842 226.771C291.52 226.83 291.224 226.976 290.952 227.21C290.682 227.449 290.448 227.756 290.251 228.132C290.058 228.502 289.944 228.85 289.91 229.178C289.873 229.51 289.911 229.801 290.023 230.052C290.135 230.303 290.316 230.494 290.564 230.624C290.796 230.745 291.026 230.778 291.256 230.723C291.484 230.671 291.722 230.543 291.97 230.339C292.216 230.139 292.482 229.874 292.77 229.546L293.639 228.57C294.305 227.812 294.994 227.298 295.708 227.03C296.421 226.762 297.157 226.829 297.918 227.23C298.544 227.554 299.002 228.005 299.293 228.585C299.582 229.168 299.703 229.823 299.656 230.551C299.609 231.278 299.389 232.018 298.995 232.77C298.595 233.535 298.115 234.135 297.555 234.568C296.993 235.005 296.395 235.261 295.762 235.336C295.128 235.411 294.502 235.293 293.882 234.982L294.975 232.892Z" fill="#CF4520"/>
<path d="M290.75 246.409L281.049 239.984L282.408 237.932L292.109 244.358L290.75 246.409Z" fill="#CF4520"/>
<path d="M277.798 257.607C278.064 257.717 278.325 257.782 278.58 257.802C278.839 257.824 279.091 257.799 279.336 257.728C279.582 257.663 279.819 257.551 280.046 257.393C280.271 257.238 280.483 257.036 280.681 256.787C281.052 256.322 281.262 255.821 281.312 255.285C281.359 254.751 281.24 254.211 280.954 253.663C280.672 253.119 280.213 252.594 279.579 252.089C278.945 251.583 278.329 251.25 277.731 251.089C277.134 250.927 276.577 250.93 276.062 251.096C275.55 251.264 275.103 251.589 274.721 252.068C274.374 252.504 274.155 252.937 274.063 253.368C273.973 253.804 274.005 254.217 274.159 254.607C274.311 254.999 274.582 255.35 274.97 255.659L274.6 256.004L276.47 253.658L277.918 254.812L274.885 258.62L273.738 257.707C272.938 257.07 272.385 256.353 272.079 255.558C271.777 254.764 271.706 253.948 271.867 253.107C272.031 252.269 272.417 251.468 273.026 250.704C273.706 249.85 274.491 249.251 275.382 248.905C276.275 248.561 277.214 248.485 278.199 248.679C279.183 248.877 280.156 249.359 281.116 250.123C281.853 250.711 282.426 251.342 282.834 252.015C283.242 252.694 283.493 253.388 283.587 254.097C283.681 254.806 283.628 255.502 283.427 256.185C283.227 256.869 282.887 257.511 282.408 258.112C281.998 258.628 281.54 259.048 281.035 259.372C280.532 259.698 280.008 259.924 279.462 260.051C278.913 260.181 278.363 260.205 277.812 260.125C277.264 260.046 276.74 259.859 276.241 259.563L277.798 257.607Z" fill="#CF4520"/>
<path d="M265.891 275.641L257.753 267.324L259.272 265.838L268.012 267.532L268.073 267.473L262.951 262.238L264.71 260.517L272.848 268.834L271.305 270.344L262.596 268.626L262.523 268.698L267.641 273.929L265.891 275.641Z" fill="#CF4520"/>
<path d="M237.556 281.84C238.501 282.869 240.255 283.796 242.569 283.966C243.708 284.052 244.731 283.929 245.602 283.598L245.965 284.163C244.677 285.503 243.838 287.486 243.772 289.486C243.736 290.497 243.867 291.383 244.19 292.183L243.625 292.546C242.523 291.333 240.505 290.498 238.43 290.404C237.41 290.354 236.466 290.484 235.622 290.798L235.259 290.232C236.556 288.964 237.438 286.516 237.427 284.603C237.417 283.639 237.267 282.842 236.99 282.203L237.556 281.84Z" fill="#CF4520"/>
<path d="M215.488 294.15L219.657 305.014L212.465 307.774L211.738 305.881L216.634 304.002L215.64 301.413L211.222 303.109L210.495 301.215L214.913 299.519L213.191 295.032L215.488 294.15Z" fill="#CF4520"/>
<path d="M201.536 311.155L198.45 299.935L200.822 299.282L203.908 310.502L201.536 311.155Z" fill="#CF4520"/>
<path d="M184.314 311.061C184.441 311.319 184.594 311.54 184.773 311.723C184.953 311.91 185.158 312.058 185.389 312.167C185.617 312.28 185.869 312.353 186.144 312.384C186.415 312.417 186.707 312.405 187.02 312.349C187.606 312.244 188.094 312.006 188.486 311.636C188.874 311.267 189.141 310.782 189.288 310.183C189.435 309.587 189.438 308.89 189.295 308.092C189.152 307.294 188.91 306.637 188.567 306.121C188.225 305.605 187.805 305.239 187.309 305.024C186.813 304.813 186.263 304.761 185.659 304.869C185.111 304.967 184.661 305.148 184.308 305.411C183.951 305.679 183.703 306.01 183.562 306.405C183.417 306.8 183.388 307.242 183.476 307.73L182.97 307.745L185.924 307.217L186.25 309.041L181.456 309.898L181.198 308.455C181.018 307.448 181.076 306.545 181.372 305.746C181.668 304.95 182.154 304.29 182.83 303.765C183.506 303.244 184.325 302.897 185.287 302.725C186.361 302.533 187.347 302.601 188.245 302.929C189.143 303.261 189.898 303.824 190.509 304.619C191.118 305.419 191.53 306.422 191.746 307.63C191.912 308.559 191.926 309.41 191.788 310.186C191.646 310.965 191.377 311.652 190.979 312.247C190.581 312.841 190.082 313.329 189.48 313.71C188.879 314.09 188.2 314.348 187.443 314.484C186.794 314.6 186.173 314.613 185.579 314.523C184.987 314.436 184.444 314.26 183.95 313.995C183.452 313.73 183.023 313.385 182.662 312.961C182.302 312.54 182.033 312.054 181.853 311.501L184.314 311.061Z" fill="#CF4520"/>
<path d="M173.22 316.271L170.189 316.412L166.626 308.75L166.49 308.757L163.651 316.715L160.62 316.855L160.082 305.231L162.465 305.121L162.816 312.687L162.912 312.682L165.573 305.034L167.196 304.959L170.553 312.357L170.65 312.352L170.298 304.758L172.682 304.648L173.22 316.271Z" fill="#CF4520"/>
<path d="M149.146 304.698L151.771 304.942L146.695 316.157L143.539 315.864L140.62 303.907L143.245 304.15L145.317 313.358L145.408 313.367L149.146 304.698ZM148.887 309.267L142.686 308.692L142.864 306.78L149.064 307.355L148.887 309.267Z" fill="#CF4520"/>
<path d="M117.444 298.021C117.269 299.406 117.693 301.345 119.057 303.222C119.726 304.148 120.481 304.849 121.297 305.301L121.099 305.943C119.244 305.824 117.189 306.463 115.618 307.704C114.823 308.33 114.231 309.001 113.828 309.765L113.186 309.567C113.402 307.942 112.736 305.862 111.468 304.216C110.848 303.406 110.14 302.769 109.355 302.327L109.553 301.685C111.358 301.855 113.797 300.949 115.251 299.706C115.981 299.077 116.493 298.448 116.802 297.823L117.444 298.021Z" fill="#CF4520"/>
<path d="M81.9446 295.909L79.7948 294.713L83.4693 288.109C83.8819 287.368 84.4199 286.818 85.0835 286.459C85.7438 286.098 86.4766 285.938 87.2819 285.979C88.0854 286.022 88.9075 286.278 89.7483 286.746C90.5923 287.216 91.2448 287.781 91.7057 288.44C92.1647 289.103 92.415 289.81 92.4564 290.561C92.4978 291.313 92.3123 292.059 91.8997 292.801L88.2252 299.404L86.0754 298.208L89.6477 291.788C89.8632 291.401 89.9703 291.01 89.9691 290.614C89.9646 290.217 89.8547 289.846 89.6393 289.501C89.4239 289.156 89.1094 288.868 88.6957 288.638C88.2786 288.406 87.8683 288.29 87.4647 288.291C87.0578 288.29 86.6861 288.393 86.3497 288.6C86.01 288.806 85.7324 289.102 85.5169 289.489L81.9446 295.909Z" fill="#CF4520"/>
<path d="M68.3003 282.916C68.0675 283.313 68.0158 283.716 68.1452 284.124C68.2747 284.532 68.5783 284.91 69.0562 285.257C69.3809 285.494 69.6885 285.647 69.9789 285.718C70.2672 285.792 70.5289 285.792 70.7643 285.72C70.9965 285.645 71.1862 285.507 71.3333 285.305C71.4619 285.141 71.5337 284.968 71.5485 284.787C71.5602 284.603 71.5305 284.415 71.4595 284.223C71.3863 284.034 71.2838 283.84 71.1521 283.641C71.0182 283.446 70.8653 283.25 70.6935 283.055L69.9951 282.238C69.6515 281.847 69.3639 281.451 69.1322 281.048C68.9005 280.645 68.7405 280.241 68.6519 279.834C68.5634 279.428 68.5605 279.023 68.6433 278.62C68.723 278.214 68.9039 277.814 69.186 277.419C69.608 276.846 70.1182 276.453 70.7167 276.242C71.3099 276.032 71.9638 276.009 72.6784 276.173C73.3877 276.337 74.1253 276.698 74.8911 277.255C75.6507 277.808 76.2277 278.406 76.622 279.048C77.0132 279.689 77.2006 280.352 77.1841 281.038C77.1623 281.725 76.9128 282.412 76.4357 283.1L74.5105 281.7C74.7186 281.369 74.8198 281.04 74.8143 280.713C74.8034 280.386 74.7023 280.071 74.5107 279.768C74.3138 279.466 74.0438 279.19 73.7008 278.94C73.3638 278.695 73.0356 278.531 72.7162 278.449C72.3937 278.364 72.1001 278.359 71.8352 278.433C71.5704 278.507 71.3555 278.658 71.1906 278.885C71.0369 279.096 70.9704 279.319 70.9913 279.555C71.0091 279.788 71.1007 280.042 71.2661 280.317C71.4284 280.589 71.651 280.892 71.9339 281.224L72.7714 282.227C73.4244 282.997 73.8313 283.754 73.9922 284.499C74.1531 285.244 73.9791 285.962 73.4703 286.656C73.0589 287.227 72.5452 287.615 71.9291 287.818C71.31 288.019 70.644 288.042 69.9311 287.889C69.2182 287.736 68.5186 287.41 67.8325 286.911C67.1341 286.403 66.6114 285.84 66.2645 285.222C65.9145 284.602 65.7488 283.973 65.7675 283.336C65.7863 282.698 65.9949 282.096 66.3935 281.529L68.3003 282.916Z" fill="#CF4520"/>
<path d="M65.3332 269.969L57.4715 278.548L51.6907 273.251L53.0612 271.755L57.0281 275.39L58.9014 273.346L55.2319 269.983L56.6023 268.488L60.2718 271.851L62.1489 269.802L58.1652 266.152L59.5356 264.656L65.3332 269.969Z" fill="#CF4520"/>
<path d="M53.672 258.71L44.9236 266.383L41.8965 262.931C41.317 262.271 40.9407 261.603 40.7674 260.929C40.5888 260.254 40.6072 259.606 40.8224 258.984C41.0323 258.361 41.4262 257.796 42.0044 257.289C42.5853 256.78 43.195 256.467 43.8334 256.35C44.469 256.236 45.1064 256.32 45.7456 256.6C46.3823 256.878 46.9954 257.353 47.5849 258.025L49.6117 260.336L48.1251 261.64L46.3605 259.628C46.0508 259.275 45.7452 259.024 45.4436 258.876C45.1419 258.727 44.8443 258.681 44.5508 258.737C44.2547 258.79 43.9629 258.942 43.6753 259.195C43.3848 259.449 43.1911 259.723 43.0941 260.014C42.9947 260.303 42.9974 260.61 43.1021 260.937C43.2016 261.263 43.4074 261.604 43.7196 261.96L44.8135 263.207L52.0498 256.86L53.672 258.71ZM45.5472 257.477L47.6215 251.811L49.4123 253.853L47.2968 259.472L45.5472 257.477Z" fill="#CF4520"/>
<path d="M37.1837 237.249L27.1649 243.167L23.1768 236.416L24.9233 235.384L27.66 240.017L30.0473 238.607L27.5158 234.322L29.2622 233.29L31.7938 237.575L34.1859 236.162L31.4376 231.51L33.1841 230.478L37.1837 237.249Z" fill="#CF4520"/>
<path d="M17.7417 225.685L20.4106 221.928L20.3736 221.845L15.7916 221.304L14.6617 218.766L21.4212 219.644L25.2601 213.961L26.4107 216.546L23.7528 220.341L23.7898 220.424L28.3886 220.989L29.5346 223.564L22.7382 222.603L18.8762 228.234L17.7417 225.685Z" fill="#CF4520"/>
<path d="M22.7076 206.96L11.5865 210.384L10.2355 205.997C9.97574 205.153 9.91556 204.385 10.0549 203.692C10.1907 203 10.4948 202.411 10.9673 201.925C11.4351 201.436 12.0382 201.078 12.7767 200.85C13.5152 200.623 14.2159 200.582 14.8787 200.726C15.5416 200.871 16.1235 201.197 16.6247 201.705C17.1247 202.209 17.5062 202.888 17.7693 203.742L18.6304 206.539L16.7461 207.119L16.002 204.703C15.8627 204.25 15.67 203.901 15.4241 203.656C15.1734 203.408 14.8864 203.255 14.563 203.196C14.235 203.134 13.8881 203.16 13.5225 203.272C13.1532 203.386 12.8539 203.559 12.6244 203.793C12.3903 204.023 12.2429 204.31 12.1822 204.654C12.118 204.999 12.1561 205.399 12.2965 205.855L12.7848 207.441L21.9836 204.609L22.7076 206.96Z" fill="#CF4520"/>
<path d="M18.3084 191.188L6.86985 193.325L5.43024 185.617L7.42416 185.245L8.41207 190.534L11.1377 190.025L10.2238 185.132L12.2177 184.76L13.1316 189.653L15.8628 189.143L14.8707 183.831L16.8646 183.459L18.3084 191.188Z" fill="#CF4520"/>
<path d="M15.7485 175.224L4.14339 176.076L3.80721 171.497C3.74286 170.621 3.84471 169.861 4.11277 169.219C4.37678 168.572 4.78207 168.066 5.32865 167.699C5.87117 167.329 6.52587 167.116 7.29275 167.059C8.0634 167.003 8.73859 167.12 9.31833 167.412C9.89428 167.704 10.3527 168.155 10.6937 168.764C11.0344 169.369 11.2375 170.118 11.303 171.009L11.5281 174.075L9.55611 174.22L9.36015 171.551C9.32575 171.082 9.23296 170.698 9.08177 170.398C8.93059 170.097 8.721 169.881 8.45302 169.749C8.18477 169.613 7.85986 169.559 7.47831 169.587C7.09299 169.615 6.77379 169.716 6.52072 169.891C6.26738 170.061 6.08422 170.308 5.97124 170.632C5.85421 170.952 5.81304 171.348 5.84771 171.82L5.9692 173.475L15.5684 172.77L15.7485 175.224ZM10.0071 169.344L15.0766 166.072L15.2754 168.781L10.2014 171.99L10.0071 169.344Z" fill="#CF4520"/>
<path d="M3.46926 155.28L15.1001 155.639L15.0241 158.098L3.39331 157.739L3.46926 155.28Z" fill="#CF4520"/>
<path d="M15.5005 147.533L3.9418 146.19L4.84643 138.402L6.86129 138.636L6.24051 143.98L8.99472 144.3L9.56896 139.356L11.5838 139.59L11.0096 144.534L13.7694 144.855L14.3928 139.488L16.4077 139.722L15.5005 147.533Z" fill="#CF4520"/>
<path d="M8.59013 119.655L19.9189 122.313L19.4336 124.381L11.147 127.637L11.1275 127.72L18.2578 129.393L17.6959 131.788L6.36711 129.13L6.86025 127.028L15.1322 123.81L15.1555 123.71L8.03081 122.039L8.59013 119.655Z" fill="#CF4520"/>
<path d="M18.986 101.583L18.1117 103.913C17.7943 103.843 17.4939 103.829 17.2106 103.873C16.9238 103.915 16.6584 104.007 16.4146 104.15C16.1707 104.294 15.9539 104.483 15.7641 104.719C15.5756 104.952 15.4228 105.225 15.3057 105.537C15.0941 106.101 15.0499 106.644 15.1731 107.168C15.2927 107.69 15.5752 108.166 16.0207 108.597C16.4626 109.025 17.0613 109.381 17.8166 109.665C18.5933 109.956 19.2891 110.086 19.904 110.054C20.5203 110.018 21.0417 109.841 21.4682 109.524C21.8948 109.207 22.2112 108.773 22.4174 108.223C22.5332 107.915 22.5996 107.614 22.6165 107.321C22.6347 107.024 22.6044 106.744 22.5255 106.48C22.4431 106.214 22.3137 105.971 22.1373 105.751C21.9622 105.528 21.7393 105.335 21.4684 105.173L22.3533 102.847C22.8307 103.095 23.2565 103.426 23.6306 103.842C24.0025 104.252 24.2952 104.728 24.5088 105.27C24.7202 105.806 24.8278 106.393 24.8316 107.029C24.8333 107.661 24.703 108.326 24.4409 109.025C24.0763 109.997 23.5304 110.783 22.8032 111.384C22.0773 111.982 21.2145 112.346 20.2148 112.476C19.2163 112.603 18.1249 112.445 16.9404 112C15.7523 111.554 14.8254 110.952 14.1597 110.192C13.4939 109.433 13.0867 108.588 12.9379 107.658C12.7856 106.727 12.889 105.783 13.2483 104.825C13.4852 104.194 13.7934 103.642 14.173 103.17C14.5539 102.694 14.9931 102.31 15.4906 102.019C15.9846 101.727 16.5255 101.542 17.1133 101.463C17.7026 101.381 18.3268 101.421 18.986 101.583Z" fill="#CF4520"/>
<path d="M29.0752 97.5659L18.7443 92.2109L22.3526 85.2496L24.1535 86.1831L21.6773 90.9601L24.139 92.2361L26.4295 87.8172L28.2304 88.7507L25.9398 93.1696L28.4065 94.4482L30.8932 89.651L32.694 90.5844L29.0752 97.5659Z" fill="#CF4520"/>
<path d="M47.4272 69.7868C46.2038 69.1127 44.2453 68.7923 41.998 69.3685C40.8906 69.6492 39.9603 70.0925 39.2397 70.6836L38.7157 70.2629C39.5104 68.5825 39.6737 66.4363 39.0995 64.5188C38.8111 63.5489 38.4051 62.7511 37.8439 62.0956L38.2645 61.5715C39.695 62.3708 41.8738 62.5192 43.8712 61.9476C44.8536 61.6692 45.7064 61.2458 46.4069 60.6797L46.931 61.1003C46.1064 62.7157 46.0498 65.3168 46.6692 67.1269C46.9851 68.037 47.3813 68.7448 47.8478 69.2627L47.4272 69.7868Z" fill="#CF4520"/>
<path d="M67.4125 48.503L64.2239 51.1199L56.8418 42.1249L60.0568 39.4864C60.9615 38.7439 61.8882 38.2847 62.8367 38.109C63.7828 37.9303 64.7067 38.0321 65.6084 38.4143C66.513 38.794 67.3485 39.4509 68.1151 40.385C68.8841 41.3219 69.3678 42.2725 69.5662 43.2368C69.7675 44.1986 69.6865 45.1299 69.3233 46.0307C68.963 46.9292 68.3261 47.7532 67.4125 48.503ZM64.7884 47.9297L65.9962 46.9384C66.5584 46.477 66.9495 45.9894 67.1697 45.4755C67.3904 44.9562 67.4243 44.4065 67.2716 43.8263C67.1193 43.2407 66.768 42.6127 66.2177 41.9421C65.6722 41.2775 65.1284 40.8148 64.5862 40.5542C64.0469 40.2911 63.5038 40.2175 62.9568 40.3331C62.4098 40.4488 61.8552 40.7374 61.293 41.1988L60.0808 42.1936L64.7884 47.9297Z" fill="#CF4520"/>
<path d="M78.5345 40.0439L72.2879 30.2263L78.9033 26.0172L79.9922 27.7285L75.4525 30.617L76.9409 32.9563L81.1403 30.2844L82.2291 31.9958L78.0298 34.6677L79.5213 37.0118L84.0802 34.1112L85.1691 35.8225L78.5345 40.0439Z" fill="#CF4520"/>
<path d="M88.7237 20.5349L95.117 27.2578L95.2141 27.2107L93.8854 18.0271L96.3384 16.8352L97.8156 29.0547L94.9639 30.4402L86.2655 21.7292L88.7237 20.5349Z" fill="#CF4520"/>
<path d="M108.824 24.2939L105.066 13.2813L112.486 10.7487L113.141 12.6684L108.049 14.4063L108.945 17.0304L113.655 15.4228L114.31 17.3425L109.6 18.9501L110.497 21.5796L115.611 19.8343L116.266 21.754L108.824 24.2939Z" fill="#CF4520"/>
<path d="M123.939 19.5245L121.411 8.16614L123.813 7.63163L125.9 17.0101L130.77 15.9262L131.21 17.9062L123.939 19.5245Z" fill="#CF4520"/>
<path d="M149.817 9.49045C149.949 10.7525 149.822 11.8512 149.436 12.7865C149.054 13.7215 148.477 14.4654 147.704 15.0184C146.935 15.5671 146.04 15.8949 145.019 16.0015C143.991 16.109 143.043 15.9718 142.177 15.5901C141.311 15.2083 140.594 14.5996 140.027 13.7639C139.459 12.9281 139.11 11.8811 138.979 10.6228C138.847 9.36072 138.972 8.26222 139.354 7.3273C139.736 6.39237 140.312 5.65051 141.081 5.10172C141.85 4.54915 142.749 4.21915 143.777 4.1117C144.798 4.00504 145.742 4.14258 146.608 4.52433C147.478 4.90191 148.196 5.50858 148.763 6.34432C149.334 7.17967 149.686 8.22838 149.817 9.49045ZM147.337 9.74962C147.251 8.9321 147.057 8.25546 146.753 7.71971C146.453 7.18356 146.068 6.79347 145.597 6.54943C145.126 6.30539 144.595 6.21427 144.003 6.27606C143.412 6.33785 142.911 6.53682 142.5 6.87295C142.09 7.20909 141.791 7.67062 141.605 8.25754C141.423 8.84407 141.374 9.54609 141.46 10.3636C141.545 11.1811 141.738 11.858 142.037 12.3941C142.341 12.9299 142.728 13.3198 143.199 13.5638C143.67 13.8078 144.202 13.899 144.793 13.8372C145.385 13.7754 145.886 13.5764 146.296 13.2403C146.706 12.9041 147.003 12.4428 147.185 11.8563C147.372 11.2694 147.422 10.5671 147.337 9.74962Z" fill="#CF4520"/>
<path d="M158.449 15.0168L158.674 3.38257L163.264 3.47117C164.146 3.4882 164.895 3.67124 165.509 4.02029C166.124 4.36554 166.588 4.83861 166.902 5.43948C167.221 6.03664 167.372 6.72151 167.357 7.4941C167.342 8.26668 167.163 8.94516 166.818 9.52952C166.473 10.1139 165.981 10.5647 165.343 10.882C164.708 11.1993 163.943 11.3494 163.049 11.3321L160.124 11.2757L160.162 9.30444L162.69 9.35323C163.163 9.36237 163.555 9.28848 163.865 9.13155C164.179 8.97091 164.414 8.74624 164.571 8.45755C164.732 8.16515 164.816 7.8277 164.824 7.44519C164.831 7.0589 164.76 6.72034 164.61 6.42952C164.464 6.13499 164.238 5.90519 163.93 5.74013C163.623 5.57129 163.231 5.48227 162.753 5.47305L161.095 5.44104L160.909 15.0642L158.449 15.0168Z" fill="#CF4520"/>
<path d="M190.111 18.881C190.165 17.4853 189.574 15.591 188.051 13.8406C187.304 12.9765 186.49 12.3438 185.639 11.9647L185.78 11.3077C187.638 11.2646 189.63 10.4483 191.086 9.07536C191.824 8.38273 192.355 7.6621 192.689 6.86654L193.347 7.00754C193.273 8.64464 194.118 10.6586 195.524 12.1877C196.213 12.9411 196.974 13.5135 197.794 13.8859L197.653 14.5429C195.84 14.5301 193.489 15.6458 192.149 17.011C191.477 17.7014 191.022 18.3728 190.768 19.022L190.111 18.881Z" fill="#CF4520"/>
<path d="M214.64 25.6011L219.412 14.9881L221.656 15.9969L219.687 20.3758L224.242 22.4238L226.211 18.0449L228.449 19.0514L223.678 29.6645L221.439 28.6579L223.41 24.2739L218.855 22.2259L216.884 26.61L214.64 25.6011Z" fill="#CF4520"/>
<path d="M235.261 24.8544L236.312 23.1194L244.486 28.0707L243.435 29.8057L240.388 27.96L235.41 36.1779L233.33 34.918L238.308 26.7001L235.261 24.8544Z" fill="#CF4520"/>
<path d="M252.846 33.7408L255.219 35.6313L252.854 43.7431L252.961 43.828L260.339 39.7096L262.712 41.6L255.461 50.7016L253.595 49.2147L258.314 43.2907L258.238 43.2305L251.199 47.2338L249.928 46.2213L252.274 38.4432L252.199 38.383L247.462 44.3293L245.595 42.8424L252.846 33.7408Z" fill="#CF4520"/>
<path d="M261.441 56.3442L269.817 48.2669L271.525 50.0378L264.609 56.7072L268.071 60.2982L266.611 61.7062L261.441 56.3442Z" fill="#CF4520"/>
<path d="M280.962 81.257C281.984 80.3045 282.899 78.5433 283.051 76.2283C283.13 75.0886 282.998 74.0665 282.661 73.1977L283.224 72.8307C284.573 74.1095 286.562 74.9333 288.563 74.985C289.574 75.0132 290.459 74.8759 291.256 74.5469L291.623 75.1098C290.418 76.2202 289.598 78.2442 289.519 80.3203C289.478 81.3406 289.614 82.2828 289.934 83.1249L289.371 83.4918C288.093 82.205 285.639 81.3408 283.726 81.3654C282.763 81.3821 281.967 81.5381 281.329 81.8199L280.962 81.257Z" fill="#CF4520"/>
<path d="M304.403 110.335L303.511 108.011C303.795 107.853 304.029 107.664 304.212 107.444C304.399 107.222 304.536 106.977 304.623 106.708C304.711 106.439 304.747 106.153 304.733 105.85C304.719 105.551 304.653 105.246 304.533 104.935C304.317 104.373 303.99 103.936 303.55 103.626C303.114 103.315 302.587 103.146 301.968 103.12C301.353 103.092 300.669 103.223 299.916 103.512C299.141 103.809 298.535 104.174 298.096 104.606C297.659 105.042 297.386 105.52 297.277 106.04C297.168 106.561 297.219 107.095 297.43 107.643C297.548 107.951 297.698 108.22 297.88 108.45C298.063 108.684 298.271 108.874 298.506 109.019C298.744 109.163 299.001 109.259 299.279 109.307C299.559 109.358 299.853 109.354 300.164 109.296L301.045 111.623C300.523 111.755 299.985 111.789 299.429 111.726C298.878 111.666 298.343 111.504 297.825 111.24C297.31 110.979 296.841 110.612 296.415 110.138C295.995 109.666 295.651 109.082 295.384 108.386C295.012 107.417 294.899 106.466 295.044 105.534C295.191 104.605 295.595 103.761 296.256 103C296.919 102.242 297.841 101.637 299.022 101.183C300.207 100.729 301.3 100.565 302.302 100.691C303.304 100.818 304.169 101.18 304.897 101.777C305.629 102.372 306.178 103.147 306.545 104.102C306.786 104.732 306.922 105.349 306.951 105.954C306.982 106.563 306.908 107.142 306.728 107.689C306.553 108.235 306.271 108.733 305.883 109.182C305.497 109.635 305.004 110.019 304.403 110.335Z" fill="#CF4520"/>
<path d="M309.181 124.473C309.615 124.318 309.912 124.042 310.075 123.646C310.237 123.25 310.247 122.765 310.103 122.192C310.005 121.802 309.868 121.487 309.69 121.247C309.516 121.005 309.316 120.837 309.089 120.742C308.863 120.65 308.629 120.634 308.386 120.695C308.182 120.738 308.016 120.825 307.889 120.955C307.762 121.088 307.664 121.251 307.596 121.444C307.531 121.636 307.485 121.851 307.458 122.088C307.435 122.324 307.427 122.572 307.434 122.832L307.446 123.907C307.459 124.427 307.425 124.915 307.345 125.373C307.264 125.83 307.128 126.244 306.935 126.612C306.742 126.981 306.485 127.293 306.162 127.55C305.841 127.81 305.446 128.001 304.976 128.122C304.285 128.292 303.642 128.266 303.047 128.044C302.457 127.825 301.94 127.423 301.497 126.839C301.059 126.258 300.724 125.508 300.494 124.589C300.265 123.678 300.206 122.849 300.316 122.103C300.427 121.361 300.708 120.732 301.161 120.216C301.618 119.703 302.25 119.336 303.058 119.114L303.637 121.423C303.265 121.544 302.976 121.731 302.77 121.986C302.569 122.243 302.445 122.55 302.397 122.905C302.354 123.264 302.384 123.649 302.488 124.06C302.589 124.464 302.736 124.8 302.928 125.069C303.121 125.34 303.343 125.533 303.594 125.646C303.845 125.758 304.106 125.781 304.378 125.713C304.632 125.649 304.826 125.52 304.961 125.326C305.097 125.136 305.189 124.882 305.239 124.565C305.289 124.252 305.312 123.877 305.308 123.441L305.309 122.135C305.301 121.125 305.475 120.283 305.829 119.608C306.183 118.934 306.778 118.494 307.613 118.288C308.295 118.113 308.938 118.145 309.541 118.385C310.144 118.628 310.671 119.037 311.119 119.612C311.568 120.186 311.896 120.885 312.102 121.708C312.312 122.546 312.352 123.313 312.222 124.009C312.093 124.71 311.817 125.298 311.394 125.775C310.97 126.252 310.424 126.581 309.754 126.76L309.181 124.473Z" fill="#CF4520"/>
<path d="M312.253 141.756C312.701 141.651 313.029 141.411 313.236 141.036C313.442 140.662 313.507 140.181 313.43 139.595C313.377 139.197 313.277 138.869 313.128 138.609C312.983 138.349 312.803 138.159 312.588 138.038C312.374 137.922 312.143 137.879 311.895 137.912C311.688 137.932 311.513 137.999 311.372 138.113C311.231 138.231 311.115 138.382 311.025 138.565C310.938 138.749 310.868 138.957 310.814 139.189C310.765 139.421 310.728 139.667 310.705 139.926L310.594 140.995C310.547 141.513 310.458 141.995 310.326 142.44C310.193 142.885 310.01 143.28 309.777 143.624C309.543 143.968 309.252 144.249 308.902 144.467C308.553 144.689 308.139 144.833 307.658 144.9C306.952 144.99 306.316 144.89 305.751 144.602C305.19 144.316 304.723 143.858 304.349 143.227C303.98 142.6 303.733 141.817 303.61 140.878C303.487 139.946 303.523 139.116 303.717 138.388C303.912 137.663 304.264 137.07 304.772 136.61C305.285 136.152 305.955 135.86 306.783 135.732L307.094 138.092C306.71 138.169 306.402 138.323 306.169 138.552C305.939 138.785 305.781 139.075 305.693 139.423C305.609 139.774 305.595 140.16 305.651 140.58C305.705 140.993 305.812 141.344 305.973 141.632C306.133 141.924 306.332 142.141 306.568 142.282C306.805 142.422 307.062 142.475 307.34 142.438C307.599 142.404 307.806 142.298 307.963 142.121C308.119 141.947 308.24 141.706 308.326 141.397C308.412 141.091 308.478 140.722 308.523 140.288L308.673 138.99C308.782 137.986 309.051 137.169 309.48 136.54C309.909 135.91 310.55 135.541 311.403 135.432C312.101 135.337 312.735 135.442 313.307 135.749C313.879 136.059 314.355 136.526 314.735 137.148C315.115 137.771 315.36 138.502 315.471 139.344C315.584 140.2 315.536 140.966 315.327 141.643C315.119 142.324 314.777 142.877 314.302 143.303C313.827 143.728 313.247 143.992 312.561 144.094L312.253 141.756Z" fill="#CF4520"/>
</svg>
