<svg width="58" height="51" viewBox="0 0 58 51" fill="none" xmlns="http://www.w3.org/2000/svg">
<g clip-path="url(#clip0_4655_13164)">
<path fill-rule="evenodd" clip-rule="evenodd" d="M7.61944 1.74318C7.12923 1.92603 6.53992 2.3364 6.53992 2.49497C6.53992 2.52428 6.50698 2.56085 6.46706 2.57621C6.02738 2.74482 5.88724 4.43432 6.25434 5.14339C6.42435 5.47169 6.60887 5.68106 7.02734 6.01996C7.06084 6.04732 7.15045 6.0892 7.2261 6.11265C7.30176 6.13638 7.3802 6.18132 7.4003 6.21259C7.4204 6.24385 7.56752 6.2821 7.7272 6.29745C7.8866 6.31281 8.01725 6.3477 8.01725 6.37506C8.01725 6.43927 8.68305 6.43983 8.7227 6.37562C8.73944 6.34882 8.86228 6.31169 8.996 6.29327C9.22882 6.26144 9.55404 6.12828 9.71065 6.00154C9.97335 5.78826 10.4133 5.29972 10.4407 5.19085C10.4585 5.1191 10.4943 5.06076 10.5197 5.06076C10.5454 5.06076 10.5839 4.92006 10.6054 4.7481C10.6269 4.57613 10.6671 4.43571 10.6947 4.43571C10.7223 4.43571 10.745 4.24393 10.745 4.00943C10.745 3.77493 10.7226 3.58315 10.6955 3.58315C10.6682 3.58315 10.6294 3.45725 10.609 3.30343C10.5883 3.14933 10.5532 3.01505 10.5306 3.005C10.5079 2.99495 10.4412 2.89222 10.3826 2.77665C10.2592 2.53377 9.79329 2.04887 9.6833 2.04887C9.64198 2.04887 9.60848 2.02598 9.60848 1.99834C9.60848 1.97042 9.53841 1.92994 9.45271 1.90845C9.36701 1.88695 9.27851 1.83949 9.2559 1.80292C9.21319 1.73341 7.78555 1.68121 7.61944 1.74318ZM18.6014 1.74625C18.4686 1.75993 18.36 1.79204 18.36 1.81744C18.36 1.84284 18.233 1.88053 18.078 1.90119C17.9231 1.92157 17.7827 1.96037 17.7662 1.98717C17.7494 2.01397 17.6456 2.05305 17.535 2.07371C17.1705 2.14211 15.9273 2.82522 15.6256 3.12337C15.575 3.17306 15.4762 3.25206 15.4059 3.29896C15.2216 3.42179 14.6161 4.03065 14.5064 4.20345C14.455 4.28441 14.3805 4.37095 14.3406 4.39579C14.3009 4.42092 14.2683 4.47843 14.2683 4.52365C14.2683 4.56915 14.2432 4.606 14.2124 4.606C14.182 4.606 14.1413 4.66826 14.1223 4.74419C14.103 4.81984 14.0516 4.89577 14.0075 4.9128C13.9634 4.92955 13.9274 4.98259 13.9274 5.03061C13.9274 5.07835 13.9037 5.11743 13.8749 5.11743C13.8462 5.11743 13.806 5.1942 13.7853 5.288C13.7647 5.3818 13.7264 5.45857 13.6999 5.45857C13.6737 5.45857 13.6354 5.53534 13.6148 5.62886C13.5941 5.72266 13.5542 5.79943 13.5257 5.79943C13.4972 5.79943 13.4576 5.90188 13.4378 6.02666C13.4177 6.15173 13.3805 6.25418 13.3554 6.25418C13.33 6.25418 13.292 6.3692 13.2708 6.5099C13.2499 6.65059 13.2114 6.76561 13.1857 6.76561C13.1597 6.76561 13.1209 6.94455 13.0994 7.16342C13.0779 7.382 13.038 7.56122 13.0106 7.56122C12.9827 7.56122 12.9612 11.6127 12.9612 16.8465V26.1317L12.672 26.3174C11.9987 26.7495 11.427 27.5443 11.427 28.0485C11.427 28.1261 11.4013 28.1894 11.37 28.1894C11.2997 28.1894 11.2924 29.363 11.3627 29.4066C11.3898 29.4233 11.4283 29.5398 11.4484 29.6657C11.5255 30.1467 12.3635 31.258 12.6491 31.258C12.6957 31.258 12.734 31.2809 12.734 31.3088C12.734 31.3364 12.8041 31.3769 12.8898 31.3984C12.9752 31.4199 13.0612 31.4629 13.0804 31.4942C13.0997 31.5252 13.2214 31.5651 13.3509 31.5824C13.4805 31.5997 13.5863 31.6363 13.5863 31.6633C13.5863 31.6904 13.8934 31.7128 14.2683 31.7128C14.6435 31.7128 14.9503 31.6899 14.9503 31.6622C14.9503 31.6346 15.0653 31.5947 15.206 31.5735C15.3467 31.5525 15.4617 31.5132 15.4617 31.4864C15.4617 31.4596 15.5385 31.4208 15.6323 31.4001C15.7258 31.3794 15.8026 31.3392 15.8026 31.3102C15.8026 31.2815 15.8321 31.258 15.8684 31.258C15.9044 31.258 16.1027 31.0807 16.3087 30.8638C16.7975 30.3493 16.8145 30.3275 16.8578 30.1542C16.8782 30.0732 16.9161 29.9937 16.9421 29.9775C16.9681 29.9616 17.0066 29.8334 17.0278 29.6933C17.0487 29.5529 17.0887 29.4242 17.1163 29.4071C17.1813 29.3667 17.1822 28.1894 17.1169 28.1894C17.0898 28.1894 17.0504 28.0616 17.0298 27.9053C17.0091 27.7489 16.9675 27.6211 16.9371 27.6211C16.9069 27.6211 16.8824 27.5739 16.8824 27.5161C16.8824 27.4583 16.8313 27.3522 16.7687 27.2802C16.7062 27.2082 16.6551 27.1261 16.6551 27.0976C16.6551 27.0022 16.1169 26.5008 15.8168 26.3168L15.5184 26.134V17.3021C15.5184 12.4446 15.5401 8.47046 15.5669 8.47046C15.5935 8.47046 15.6314 8.26109 15.6512 8.00537C15.6708 7.74994 15.7099 7.52605 15.7378 7.50818C15.7657 7.49032 15.8067 7.36721 15.8291 7.23432C15.8514 7.10144 15.8908 6.99285 15.9167 6.99285C15.9427 6.99285 15.9809 6.91608 16.0016 6.82228C16.022 6.72848 16.0625 6.65199 16.0912 6.65199C16.12 6.65199 16.1437 6.61989 16.1437 6.5808C16.1437 6.29522 17.5487 4.89019 17.834 4.89019C17.8731 4.89019 17.9052 4.86479 17.9052 4.83352C17.9052 4.80225 17.9373 4.77573 17.9764 4.77462C18.0152 4.7735 18.1495 4.72325 18.2745 4.66295C18.3996 4.60265 18.5414 4.5524 18.59 4.55129C18.6386 4.55017 18.7047 4.52253 18.7374 4.48987C18.7701 4.45721 18.9805 4.41505 19.2053 4.39635C19.43 4.37737 19.6271 4.34024 19.6436 4.31344C19.6826 4.25063 20.2195 4.25035 20.2583 4.31344C20.2748 4.33996 20.4872 4.37848 20.7303 4.39914C20.9738 4.4198 21.1812 4.46195 21.1918 4.49294C21.2021 4.52393 21.2527 4.54933 21.3037 4.54933C21.4121 4.54933 22.2166 4.93932 22.3277 5.04568C22.369 5.08533 22.4251 5.11743 22.4528 5.11743C22.5276 5.11743 23.5091 6.09646 23.5493 6.21147C23.5686 6.26619 23.6088 6.31085 23.6384 6.31085C23.6683 6.31085 23.7093 6.38762 23.73 6.48142C23.7506 6.57522 23.7889 6.65199 23.8154 6.65199C23.8416 6.65199 23.8799 6.72848 23.9005 6.82228C23.9212 6.91608 23.9586 6.99285 23.984 6.99285C24.0091 6.99285 24.0479 7.0886 24.0697 7.20585C24.0918 7.3231 24.1328 7.44733 24.1613 7.48166C24.1897 7.51628 24.2277 7.70807 24.2458 7.90795C24.264 8.10783 24.3022 8.3225 24.331 8.38504C24.3617 8.45176 24.3891 11.5921 24.3977 15.9878C24.408 21.475 24.429 23.4878 24.4762 23.5174C24.5113 23.5397 24.5585 23.6921 24.5808 23.8563C24.6032 24.0204 24.6417 24.1547 24.6665 24.1547C24.6914 24.1547 24.7288 24.2697 24.75 24.4104C24.771 24.5511 24.8123 24.6661 24.8416 24.6661C24.8709 24.6661 24.8949 24.6915 24.8949 24.7222C24.8949 24.8177 25.1411 25.3481 25.1852 25.3481C25.2081 25.3481 25.2439 25.4246 25.2642 25.5184C25.2849 25.6122 25.3248 25.689 25.353 25.689C25.3812 25.689 25.4203 25.7529 25.4398 25.8311C25.4597 25.9092 25.4993 25.9732 25.528 25.9732C25.5568 25.9732 25.597 26.0178 25.6171 26.0725C25.6372 26.1273 25.7131 26.2283 25.7857 26.2973C25.8583 26.3659 25.9178 26.4436 25.9178 26.4695C25.9178 26.5373 26.6567 27.2827 26.8878 27.448C27.0886 27.5917 27.102 27.6021 27.3331 27.7927C27.4082 27.8544 27.504 27.9053 27.5461 27.9053C27.5883 27.9053 27.6226 27.9281 27.6226 27.9558C27.6226 27.9837 27.6865 28.0225 27.7647 28.0423C27.8429 28.0619 27.9068 28.1009 27.9068 28.1291C27.9068 28.1573 27.9836 28.1973 28.0774 28.2179C28.1712 28.2383 28.2477 28.2777 28.2477 28.305C28.2477 28.3324 28.3373 28.3715 28.4467 28.3921C28.5561 28.4125 28.6455 28.4519 28.6455 28.4792C28.6455 28.5066 28.7479 28.5454 28.873 28.5655C28.9978 28.5853 29.1002 28.6224 29.1002 28.6478C29.1002 28.6732 29.2217 28.7118 29.3702 28.7335C29.5187 28.7556 29.6538 28.7947 29.6705 28.8203C29.6873 28.8463 29.9503 28.8848 30.2548 28.9063C30.5597 28.9275 30.8224 28.9669 30.8386 28.9934C30.8776 29.0565 31.8846 29.0565 31.8846 28.9934C31.8846 28.9666 32.133 28.9275 32.4368 28.906C32.7402 28.8848 33.0024 28.8463 33.0191 28.8203C33.0359 28.7947 33.1713 28.7556 33.3195 28.7335C33.468 28.7118 33.5894 28.6727 33.5894 28.647C33.5894 28.621 33.7045 28.5828 33.8452 28.5618C33.9859 28.5406 34.1009 28.4993 34.1009 28.47C34.1009 28.4407 34.1321 28.4167 34.1704 28.4167C34.27 28.4167 35.0671 28.0108 35.0671 27.96C35.0671 27.9368 35.131 27.9016 35.2091 27.8818C35.2873 27.8623 35.3512 27.8212 35.3512 27.7905C35.3512 27.7598 35.3884 27.7347 35.4336 27.7347C35.4788 27.7347 35.5363 27.7023 35.5614 27.6624C35.5863 27.6225 35.6728 27.5479 35.7538 27.4968C35.9439 27.376 36.754 26.5658 36.8749 26.3757C36.926 26.2948 37.0005 26.2085 37.0405 26.1834C37.0801 26.1585 37.1128 26.1007 37.1128 26.0555C37.1128 26.0103 37.1379 25.9732 37.1686 25.9732C37.1993 25.9732 37.2403 25.9092 37.2599 25.8311C37.2794 25.7529 37.3135 25.689 37.3355 25.689C37.4098 25.689 37.9653 24.519 37.9653 24.3624C37.9653 24.3144 37.9893 24.2602 38.0186 24.2418C38.0482 24.2236 38.0901 24.088 38.1119 23.9403C38.1337 23.7926 38.1739 23.6572 38.2012 23.6394C38.2286 23.6218 38.2671 23.3211 38.2872 22.9716C38.3073 22.6221 38.3444 22.3362 38.3701 22.3362C38.3955 22.3362 38.4237 19.0108 38.4324 14.9465C38.4441 9.5525 38.4656 7.54587 38.5122 7.51628C38.5474 7.49423 38.5946 7.39094 38.6169 7.28737C38.6395 7.1838 38.6937 7.03026 38.7375 6.94651C38.781 6.86248 38.8171 6.76198 38.8173 6.7229C38.8173 6.68382 38.8433 6.65199 38.8746 6.65199C38.9058 6.65199 38.9312 6.61263 38.9312 6.56489C38.9312 6.51688 38.9698 6.463 39.0164 6.44513C39.0633 6.42726 39.1018 6.38176 39.1018 6.34407C39.1018 6.00852 40.8136 4.60796 41.2265 4.60572C41.2611 4.60544 41.3619 4.56776 41.4501 4.5217C41.5383 4.47563 41.7815 4.4212 41.99 4.40082C42.1986 4.38016 42.4007 4.33884 42.4386 4.30869C42.4769 4.27854 42.6304 4.26766 42.7798 4.28469C43.4154 4.35615 43.962 4.44883 43.9886 4.48931C44.0045 4.51332 44.1131 4.55045 44.2303 4.57194C44.3476 4.59372 44.4436 4.63559 44.4436 4.66546C44.4436 4.69533 44.4726 4.71962 44.5084 4.71962C44.6105 4.71962 45.0921 4.9678 45.1423 5.04652C45.1675 5.0856 45.2138 5.11743 45.2456 5.11743C45.3729 5.11743 46.3187 6.06742 46.3187 6.19556C46.3187 6.22962 46.3547 6.27149 46.3988 6.28852C46.443 6.30527 46.4946 6.3812 46.5136 6.45713C46.5326 6.53307 46.5733 6.59504 46.604 6.59504C46.6347 6.59504 46.6607 6.62714 46.6618 6.66595C46.6627 6.70503 46.7129 6.83931 46.7735 6.96437C46.8338 7.08944 46.884 7.24717 46.8852 7.315C46.8863 7.38256 46.9131 7.44677 46.9446 7.4571C46.9764 7.46771 47.0186 7.64972 47.0384 7.8616C47.0582 8.07349 47.0962 8.26025 47.1227 8.27672C47.2193 8.33618 47.1825 30.7466 47.0859 30.7466C47.039 30.7466 47.0007 30.7723 47.0007 30.8035C47.0007 30.8348 46.9675 30.8602 46.927 30.8602C46.7366 30.8602 45.9779 31.619 45.9779 31.8093C45.9779 31.8501 45.9544 31.883 45.9254 31.883C45.8966 31.883 45.8564 31.9598 45.8358 32.0536C45.8151 32.1474 45.7758 32.2242 45.7478 32.2242C45.7202 32.2242 45.6806 32.3526 45.6596 32.5095C45.639 32.6664 45.5996 32.8088 45.5725 32.8255C45.5027 32.8685 45.5097 33.8151 45.5801 33.8151C45.6113 33.8151 45.6378 33.9112 45.6387 34.0284C45.6398 34.1457 45.6901 34.3439 45.7506 34.4687C45.8109 34.5937 45.8612 34.728 45.8623 34.7671C45.8634 34.8062 45.888 34.8383 45.9173 34.8383C45.9463 34.8383 45.9882 34.8949 46.0103 34.9642C46.0823 35.1909 46.7372 35.7885 47.0716 35.9323C47.1576 35.9694 47.228 36.0166 47.228 36.0376C47.228 36.0585 47.3424 36.0926 47.4826 36.1135C47.6224 36.1344 47.7517 36.1757 47.7698 36.2053C47.815 36.2785 49.1034 36.2754 49.1034 36.202C49.1034 36.1707 49.1737 36.145 49.2597 36.1448C49.3454 36.1448 49.4892 36.1062 49.5785 36.0596C49.6681 36.013 49.7664 35.9747 49.7971 35.9747C49.8275 35.9747 49.9113 35.9298 49.9827 35.8754C50.0545 35.8206 50.1706 35.7375 50.2412 35.6906C50.6994 35.3857 51.0824 34.8291 51.285 34.1739C51.3883 33.8405 51.414 32.7085 51.3197 32.6502C51.2884 32.6309 51.2627 32.5581 51.2627 32.488C51.2627 32.1159 50.4417 31.0068 50.0816 30.8926C50.0123 30.8705 49.9557 30.8286 49.9557 30.7996C49.9557 30.7703 49.9183 30.7466 49.8722 30.7466C49.7991 30.7466 49.7868 29.3053 49.7728 19.1233C49.7614 10.7576 49.7393 7.48864 49.6944 7.45961C49.66 7.43728 49.6145 7.26727 49.5933 7.0819C49.5718 6.89626 49.5308 6.7162 49.5018 6.6813C49.473 6.64641 49.432 6.51045 49.411 6.37925C49.3901 6.24776 49.3535 6.14056 49.3298 6.14056C49.3058 6.14056 49.2698 6.05095 49.2491 5.94152C49.2287 5.83209 49.1902 5.74276 49.1637 5.74276C49.1372 5.74276 49.0981 5.67269 49.0766 5.58698C49.0551 5.50128 49.0205 5.41809 48.9993 5.40218C48.9783 5.38626 48.8974 5.24529 48.8192 5.08923C48.741 4.9329 48.6453 4.78467 48.6062 4.75954C48.5671 4.7347 48.535 4.6864 48.535 4.65234C48.535 4.61856 48.4711 4.53147 48.3929 4.45916C48.3147 4.38658 48.2508 4.30255 48.2508 4.2724C48.2508 4.20066 47.2355 3.18534 47.1638 3.18534C47.1336 3.18534 47.0496 3.12141 46.9773 3.04325C46.905 2.96536 46.8187 2.90115 46.7858 2.90115C46.7528 2.90115 46.7177 2.88077 46.707 2.85565C46.6518 2.72277 45.3146 2.04887 45.106 2.04887C45.0578 2.04887 45.0036 2.02486 44.9854 1.99527C44.9673 1.96596 44.8313 1.92436 44.6837 1.90286C44.536 1.88165 44.3791 1.83531 44.3353 1.80013C44.2242 1.71108 41.3103 1.71108 41.1989 1.80013C41.155 1.83531 40.9976 1.88165 40.8491 1.90314C40.7008 1.92464 40.5791 1.96316 40.5791 1.98913C40.5791 2.01481 40.4641 2.05333 40.3234 2.07427C40.183 2.09549 40.0677 2.13457 40.0677 2.16137C40.0677 2.18845 39.9912 2.22725 39.8974 2.24791C39.8036 2.26829 39.7268 2.30681 39.7268 2.33305C39.7268 2.3593 39.6501 2.39754 39.5563 2.4182C39.4625 2.43886 39.386 2.47934 39.386 2.50809C39.386 2.53684 39.3539 2.56029 39.3148 2.56057C39.2168 2.56057 38.4826 3.04883 38.3257 3.218C38.2554 3.29393 38.1755 3.35591 38.1485 3.35591C38.0862 3.35591 37.4539 3.97956 37.4539 4.0407C37.4539 4.06554 37.3819 4.15822 37.2942 4.24644C37.2066 4.33494 37.1178 4.4519 37.0971 4.50662C37.0765 4.56134 37.0349 4.606 37.0047 4.606C36.9746 4.606 36.9321 4.66239 36.9104 4.73135C36.8883 4.8003 36.842 4.88879 36.8071 4.92816C36.6387 5.11799 36.6033 5.17522 36.569 5.31145C36.5489 5.39241 36.5114 5.45857 36.486 5.45857C36.4606 5.45857 36.4229 5.53534 36.4026 5.62886C36.3819 5.72266 36.3437 5.79943 36.3177 5.79943C36.2917 5.79943 36.2532 5.90188 36.232 6.02666C36.2108 6.15173 36.1717 6.25418 36.1452 6.25418C36.1187 6.25418 36.0796 6.36948 36.0584 6.51045C36.0371 6.65143 35.9995 6.77957 35.9741 6.7952C35.9489 6.81083 35.9104 6.99592 35.8886 7.20641C35.8666 7.41718 35.8272 7.61678 35.8007 7.65C35.7742 7.68322 35.7454 11.0996 35.7365 15.2418C35.725 20.7093 35.703 22.7952 35.6566 22.8532C35.6215 22.8971 35.5751 23.0542 35.5536 23.2027C35.5321 23.3513 35.4919 23.4727 35.464 23.4727C35.4361 23.4727 35.3953 23.5679 35.3733 23.6843C35.3515 23.8007 35.3057 23.9277 35.2714 23.9665C35.1167 24.1416 35.0785 24.1996 35.0416 24.3152C35.0202 24.3833 34.9786 24.4389 34.9495 24.4389C34.9205 24.4389 34.8959 24.4707 34.8951 24.5098C34.894 24.5489 34.818 24.655 34.7256 24.7454C34.6335 24.8358 34.5445 24.9523 34.528 25.0042C34.5118 25.0558 34.3968 25.1608 34.2728 25.2373C34.1486 25.3138 34.0464 25.3936 34.0456 25.4148C34.0431 25.4813 33.1863 25.9771 33.0146 26.0114C32.9245 26.0293 32.8508 26.0642 32.8508 26.0887C32.8508 26.1136 32.7422 26.1518 32.6093 26.1739C32.4764 26.1962 32.3497 26.2428 32.3276 26.2774C32.271 26.3671 30.4748 26.3668 30.4193 26.2769C30.3969 26.2409 30.2573 26.1934 30.1088 26.1711C29.9603 26.1488 29.8389 26.108 29.8389 26.0804C29.8389 26.0527 29.8099 26.0298 29.7741 26.0298C29.6879 26.0298 29.1907 25.7858 29.1664 25.7317C29.1561 25.7082 29.1164 25.689 29.0787 25.689C28.8755 25.689 27.6226 24.4319 27.6226 24.2284C27.6226 24.1879 27.5992 24.1547 27.5704 24.1547C27.5416 24.1547 27.5012 24.0779 27.4805 23.9841C27.4601 23.8903 27.4208 23.8136 27.3934 23.8136C27.3661 23.8136 27.327 23.7242 27.3063 23.6148C27.2859 23.5054 27.2488 23.4157 27.224 23.4157C27.1991 23.4157 27.1603 23.2817 27.138 23.1176C27.1156 22.9535 27.0685 22.801 27.0333 22.7787C26.9864 22.7491 26.9646 20.7123 26.9521 15.1662C26.9426 11.0016 26.9135 7.56765 26.8873 7.53498C26.8611 7.5026 26.8217 7.31612 26.7994 7.12071C26.7773 6.92529 26.736 6.76561 26.7078 6.76561C26.6796 6.76561 26.6564 6.69526 26.6561 6.60928C26.6561 6.5233 26.6201 6.38427 26.5763 6.30052C26.5328 6.21677 26.4797 6.06966 26.4585 5.9739C26.4376 5.87787 26.3968 5.79943 26.368 5.79943C26.3393 5.79943 26.3156 5.75978 26.3156 5.71121C26.3156 5.61183 26.083 5.15623 26.0174 5.12692C25.994 5.11659 25.9747 5.08365 25.9747 5.05378C25.9747 4.98985 25.7385 4.64313 25.6763 4.61549C25.6528 4.60517 25.6338 4.56162 25.6338 4.5189C25.6338 4.47619 25.6012 4.42092 25.5613 4.39579C25.5216 4.37095 25.4471 4.28441 25.3957 4.20345C25.286 4.03065 24.6805 3.42179 24.4963 3.29896C24.4259 3.25206 24.3271 3.17306 24.2766 3.12309C24.0342 2.88329 22.8782 2.21944 22.7029 2.21944C22.6636 2.21944 22.6228 2.19989 22.6125 2.17617C22.5868 2.11782 21.8294 1.87662 21.6748 1.87746C21.6069 1.87802 21.5413 1.84703 21.5285 1.80879C21.505 1.73872 19.1601 1.68875 18.6014 1.74625ZM19.4395 6.02136C19.3926 6.04788 19.2329 6.08696 19.0844 6.10846C18.9359 6.12996 18.8144 6.16932 18.8144 6.19612C18.8144 6.2232 18.7377 6.262 18.6439 6.28238C18.5501 6.30304 18.4736 6.34351 18.4736 6.37227C18.4736 6.40102 18.439 6.42447 18.3965 6.42447C18.3541 6.42447 18.2553 6.48198 18.1766 6.55233C18.0978 6.62268 17.9856 6.72094 17.9267 6.77063C17.7877 6.88816 17.5535 7.16146 17.4692 7.30551C17.3257 7.5495 17.1665 7.92107 17.1665 8.01152C17.1665 8.064 17.1356 8.13742 17.0982 8.17511C17.0099 8.26332 17.0035 9.56283 17.0906 9.67226C17.1241 9.71441 17.1685 9.84311 17.1892 9.95784C17.2101 10.0729 17.2453 10.175 17.2676 10.1854C17.2902 10.1954 17.3589 10.3026 17.4206 10.4235C17.5607 10.6982 18.0895 11.237 18.4038 11.4254L18.6408 11.5675L18.6425 20.6989C18.6433 25.804 18.6221 29.844 18.5947 29.8611C18.5674 29.8778 18.5277 30.0456 18.5065 30.2338C18.4853 30.4222 18.4457 30.576 18.4189 30.576C18.3918 30.576 18.3524 30.6785 18.3315 30.8035C18.3103 30.9283 18.2718 31.0308 18.2458 31.0308C18.2196 31.0308 18.1816 31.1075 18.1609 31.2013C18.1403 31.2949 18.1001 31.3716 18.0713 31.3716C18.0426 31.3716 18.0188 31.411 18.0188 31.4587C18.0188 31.5065 17.9806 31.5603 17.9337 31.5785C17.8868 31.5963 17.8483 31.6405 17.8483 31.6762C17.848 31.7119 17.7712 31.8227 17.6777 31.9227C17.5842 32.0226 17.5074 32.1184 17.5074 32.1357C17.5074 32.2747 16.159 33.247 15.9664 33.247C15.9326 33.247 15.8243 33.2844 15.7261 33.3302C15.1083 33.6175 12.7907 33.6317 12.7907 33.3484C12.7907 33.3238 12.7588 33.304 12.7198 33.304C12.6084 33.3045 11.8301 32.8956 11.6835 32.7596C11.6106 32.6923 11.4663 32.5768 11.3622 32.5025C11.1355 32.3412 10.9725 32.1831 10.9722 32.1245C10.9719 32.1011 10.9002 32.0053 10.8128 31.9115C10.7251 31.8177 10.6366 31.6963 10.6157 31.6416C10.595 31.5869 10.5537 31.5422 10.5241 31.5422C10.4943 31.5422 10.4529 31.4654 10.4326 31.3716C10.4119 31.2778 10.3734 31.2013 10.3471 31.2013C10.3209 31.2013 10.2827 31.1246 10.262 31.0308C10.2413 30.937 10.2039 30.8602 10.1788 30.8602C10.1534 30.8602 10.1146 30.7388 10.0925 30.5902C10.0705 30.4417 10.0228 30.2846 9.98675 30.2407C9.93761 30.181 9.91723 27.4136 9.90607 19.2872C9.89769 13.3067 9.86894 8.41351 9.84242 8.41351C9.81562 8.41351 9.77905 8.32222 9.76091 8.21084C9.60206 7.23181 7.60437 7.17961 7.36122 8.14803C7.34 8.23205 7.30008 8.31497 7.27216 8.33227C7.20684 8.37247 7.20489 30.0646 7.27049 30.0646C7.29701 30.0646 7.33665 30.2748 7.35787 30.5316C7.37936 30.7884 7.41789 31.0121 7.44357 31.0288C7.46925 31.0456 7.50806 31.1807 7.52983 31.3292C7.55189 31.4774 7.59153 31.5989 7.61805 31.5989C7.64457 31.5989 7.68365 31.7013 7.70487 31.8264C7.7258 31.9514 7.76433 32.0536 7.79057 32.0536C7.81653 32.0536 7.85478 32.1304 7.87516 32.2242C7.89581 32.318 7.93406 32.3945 7.96058 32.3945C7.98682 32.3945 8.02507 32.4712 8.04573 32.565C8.06638 32.6588 8.10658 32.7356 8.13562 32.7356C8.16437 32.7356 8.18782 32.7582 8.18782 32.7859C8.18782 32.866 8.59679 33.4743 8.65067 33.4743C8.67719 33.4743 8.69925 33.5097 8.69925 33.553C8.69925 33.7828 10.4127 35.2927 10.6732 35.2927C10.7126 35.2927 10.745 35.3126 10.745 35.3366C10.745 35.4011 11.5696 35.8042 11.7014 35.8042C11.731 35.8042 11.8281 35.8424 11.9177 35.889C12.0073 35.9357 12.1486 35.9742 12.2321 35.9745C12.3152 35.9745 12.392 35.9996 12.4023 36.03C12.413 36.0604 12.6067 36.1023 12.8334 36.1233C13.0601 36.1442 13.2454 36.1833 13.2454 36.2101C13.2454 36.2737 15.2183 36.2737 15.2576 36.2104C15.2741 36.1838 15.4575 36.1462 15.6652 36.1266C15.8729 36.1073 16.0733 36.0663 16.1102 36.0356C16.1473 36.0049 16.2849 35.9625 16.4164 35.9415C16.5476 35.9206 16.6551 35.8809 16.6551 35.8539C16.6551 35.8265 16.6959 35.8042 16.7458 35.8042C16.9005 35.8042 17.7346 35.4086 17.7346 35.3355C17.7346 35.312 17.7707 35.2927 17.8142 35.2927C17.9055 35.2927 18.4923 34.9111 18.5208 34.8332C18.5314 34.8048 18.5696 34.7813 18.6062 34.7813C18.7293 34.781 19.973 33.4464 20.0366 33.2462C20.0562 33.1842 20.0961 33.1334 20.1254 33.1334C20.1544 33.1334 20.1784 33.0941 20.1784 33.0463C20.1784 32.9983 20.215 32.9453 20.26 32.928C20.3052 32.9106 20.3582 32.8219 20.3783 32.7309C20.3981 32.6396 20.4361 32.565 20.4623 32.565C20.4889 32.565 20.5271 32.4883 20.5478 32.3945C20.5682 32.3007 20.6067 32.2242 20.6329 32.2242C20.6592 32.2242 20.698 32.1457 20.7189 32.0497C20.7401 31.954 20.7932 31.8068 20.8367 31.7231C20.8805 31.6391 20.9165 31.5274 20.9168 31.4744C20.9168 31.4216 20.9408 31.3638 20.9699 31.3457C20.9989 31.3278 21.0408 31.1664 21.0628 30.9872C21.0849 30.808 21.1315 30.643 21.1664 30.6207C21.2125 30.5914 21.2342 27.9848 21.2465 21.0738L21.2635 11.5675L21.4953 11.4254C21.7856 11.2473 22.2808 10.7886 22.2808 10.6979C22.2808 10.6605 22.3059 10.6298 22.3366 10.6298C22.3674 10.6298 22.4084 10.5659 22.4279 10.4877C22.4478 10.4095 22.4846 10.3456 22.51 10.3456C22.5351 10.3456 22.5728 10.2688 22.5935 10.175C22.6141 10.0815 22.6527 10.0047 22.6792 10.0047C22.7057 10.0047 22.7431 9.85762 22.7627 9.67784C22.7819 9.49834 22.8221 9.30683 22.852 9.2524C22.9193 9.12956 22.9237 8.58408 22.8573 8.58408C22.8305 8.58408 22.792 8.42552 22.7719 8.23205C22.7515 8.03832 22.7127 7.86579 22.6856 7.84848C22.6585 7.83118 22.618 7.73375 22.596 7.63213C22.5739 7.53052 22.5343 7.44733 22.5075 7.44733C22.481 7.44733 22.4433 7.39736 22.4237 7.33622C22.3861 7.21758 22.1521 6.92306 21.9751 6.77175C21.9165 6.7215 21.804 6.62268 21.7253 6.55233C21.6468 6.48198 21.5477 6.42447 21.5056 6.42447C21.4631 6.42447 21.4285 6.40102 21.4285 6.37227C21.4285 6.34351 21.3518 6.30304 21.258 6.28238C21.1642 6.262 21.0877 6.2232 21.0877 6.19612C21.0877 6.16932 20.966 6.13163 20.8177 6.11265C20.6692 6.09338 20.5034 6.05346 20.4489 6.02387C20.3275 5.95743 19.5565 5.95548 19.4395 6.02136Z" fill="#44A4FC"/>
<path fill-rule="evenodd" clip-rule="evenodd" d="M18.4337 43.0993C18.4017 43.1134 18.3281 43.126 18.2703 43.1271C18.2124 43.1283 18.1095 43.1487 18.0415 43.1727C17.9736 43.1966 17.887 43.2163 17.849 43.2163C17.8111 43.2163 17.78 43.2282 17.78 43.2427C17.78 43.2573 17.7278 43.2781 17.6638 43.289C17.5999 43.2997 17.5477 43.3194 17.5477 43.3328C17.5477 43.346 17.5084 43.3656 17.4605 43.376C17.4125 43.3866 17.3734 43.4058 17.3734 43.4188C17.3734 43.4318 17.3408 43.4506 17.3008 43.4606C17.2609 43.4706 17.2282 43.4916 17.2282 43.5073C17.2282 43.523 17.2115 43.5358 17.1911 43.5358C17.1707 43.5358 17.1327 43.5587 17.1067 43.5866C17.0808 43.6146 17.0126 43.6748 16.9551 43.7203C16.8975 43.766 16.8505 43.8157 16.8505 43.8306C16.8505 43.8458 16.8188 43.8876 16.78 43.9235C16.741 43.9595 16.7005 44.0243 16.6896 44.0674C16.6788 44.1105 16.6582 44.1459 16.644 44.1459C16.6298 44.1459 16.618 44.1621 16.618 44.1821C16.6179 44.2021 16.595 44.2576 16.5672 44.3055C16.5058 44.4114 16.49 45.4093 16.5491 45.4468C16.5671 45.4581 16.591 45.5099 16.6023 45.5618C16.6136 45.6138 16.6334 45.6563 16.6464 45.6563C16.6594 45.6563 16.6781 45.689 16.6882 45.7289C16.6982 45.7689 16.7192 45.8016 16.7349 45.8016C16.7506 45.8016 16.7634 45.821 16.7634 45.8447C16.7634 45.9007 17.1869 46.3244 17.2432 46.3244C17.2668 46.3244 17.2863 46.337 17.2863 46.3522C17.2863 46.3831 17.6818 46.5858 17.742 46.5858C17.7629 46.5858 17.78 46.5981 17.78 46.6131C17.78 46.6281 17.8389 46.6492 17.9107 46.6599C17.9826 46.6707 18.0415 46.6899 18.0415 46.7024C18.0415 46.7151 18.1232 46.7347 18.2231 46.7459C18.3229 46.7574 18.4177 46.7766 18.4337 46.789C18.4497 46.8013 18.5901 46.8207 18.7459 46.832C18.9016 46.8434 19.0356 46.8632 19.0436 46.8762C19.0517 46.8892 19.1236 46.9089 19.2034 46.9199C19.2833 46.9309 19.3486 46.9503 19.3486 46.963C19.3486 46.9757 19.3943 46.9947 19.4502 47.0051C19.5062 47.0156 19.552 47.0358 19.552 47.0499C19.552 47.0642 19.5785 47.0841 19.6109 47.0944C19.704 47.1239 19.9374 47.3749 20.012 47.5255C20.2031 47.9116 19.9798 48.5472 19.6212 48.6371C19.5831 48.6467 19.552 48.6651 19.552 48.6781C19.552 48.691 19.5095 48.7109 19.4575 48.7221C19.4056 48.7334 19.3555 48.7547 19.3461 48.7694C19.3013 48.8396 18.2335 48.8386 18.1885 48.7682C18.1795 48.7541 18.1264 48.7329 18.0705 48.7209C18.0146 48.7089 17.9623 48.6909 17.9544 48.6809C17.9464 48.6709 17.8762 48.6301 17.7984 48.5902C17.6306 48.504 17.4184 48.3116 17.3898 48.2197C17.3786 48.1838 17.3573 48.1544 17.3423 48.1544C17.3275 48.1544 17.3152 48.1345 17.3152 48.1103C17.3152 48.0553 17.1216 47.864 17.0659 47.864C17.0432 47.864 17.0248 47.8508 17.0248 47.8349C17.0248 47.818 16.9328 47.8059 16.8069 47.8059C16.6871 47.8059 16.589 47.8174 16.589 47.8317C16.589 47.846 16.5548 47.8663 16.513 47.8767C16.3319 47.9222 16.1629 48.3755 16.2964 48.458C16.3111 48.4671 16.3318 48.5137 16.3423 48.5613C16.3527 48.6091 16.3734 48.6482 16.3881 48.6482C16.4028 48.6482 16.4148 48.6618 16.4148 48.6785C16.4148 48.7306 16.6134 48.9928 16.7309 49.0959C16.7688 49.1293 16.8365 49.1925 16.8811 49.2364C16.9258 49.2804 16.9686 49.3163 16.9765 49.3163C16.9843 49.3163 17.0602 49.362 17.1451 49.4179C17.23 49.4739 17.3161 49.5197 17.3363 49.5197C17.3567 49.5197 17.3734 49.5317 17.3734 49.5464C17.3734 49.5611 17.4158 49.5822 17.4678 49.5933C17.5197 49.6044 17.5752 49.6233 17.5912 49.6351C17.8258 49.8105 19.5974 49.8846 19.697 49.7233C19.7061 49.7086 19.7686 49.6878 19.8361 49.6771C19.9035 49.6662 19.9587 49.6461 19.9587 49.6321C19.9587 49.6181 19.9778 49.6067 20.0013 49.6067C20.0526 49.6067 20.2887 49.4883 20.3023 49.4556C20.3077 49.4429 20.33 49.4325 20.3518 49.4325C20.3736 49.4325 20.4019 49.4158 20.4147 49.3955C20.4274 49.3751 20.4705 49.3375 20.5105 49.3119C20.6498 49.2224 20.9172 48.9209 20.9172 48.8533C20.9172 48.8363 20.9293 48.8225 20.944 48.8225C20.9587 48.8225 20.9792 48.7832 20.9898 48.7354C21.0004 48.6875 21.0203 48.6482 21.0343 48.6482C21.0483 48.6482 21.0686 48.5991 21.0794 48.5392C21.0903 48.4794 21.1137 48.4121 21.1316 48.3895C21.1767 48.333 21.1765 47.3758 21.1314 47.3473C21.1134 47.3358 21.0893 47.2709 21.078 47.2031C21.0666 47.1352 21.0465 47.0796 21.0332 47.0796C21.0199 47.0796 21.0004 47.0405 20.9898 46.9925C20.9792 46.9446 20.9587 46.9053 20.944 46.9053C20.9293 46.9053 20.9172 46.8882 20.9172 46.8674C20.9172 46.7916 20.5851 46.4299 20.4871 46.3988C20.455 46.3886 20.4214 46.3612 20.4125 46.3378C20.4035 46.3144 20.3762 46.2953 20.3517 46.2953C20.3273 46.2953 20.3071 46.2823 20.3071 46.2663C20.3071 46.2504 20.2886 46.2372 20.2658 46.2372C20.2429 46.2372 20.2063 46.2192 20.1841 46.1973C20.1622 46.1752 20.1024 46.148 20.0514 46.1368C20.0003 46.1256 19.9587 46.1052 19.9587 46.0915C19.9587 46.0777 19.8997 46.0577 19.828 46.0469C19.756 46.0362 19.6973 46.0165 19.6973 46.0033C19.6973 45.9901 19.6056 45.9704 19.4939 45.9593C19.382 45.9483 19.2906 45.9291 19.2906 45.9167C19.2906 45.9045 19.1533 45.8849 18.9855 45.8735C18.8178 45.8621 18.6805 45.8412 18.6805 45.8271C18.6805 45.813 18.6457 45.8016 18.6032 45.8016C18.4726 45.8016 18.0963 45.6774 17.9696 45.5928C17.8619 45.5206 17.6628 45.3211 17.6466 45.2687C17.6357 45.2342 17.6125 45.1967 17.5946 45.1853C17.5472 45.155 17.551 44.6337 17.5985 44.6179C17.6185 44.6112 17.6349 44.5918 17.6349 44.5748C17.6349 44.4655 18.0737 44.1852 18.2914 44.1554C18.3625 44.1457 18.4277 44.1265 18.4361 44.1128C18.4564 44.0798 19.1743 44.0802 19.1743 44.113C19.1743 44.1269 19.2388 44.1469 19.3174 44.1573C19.396 44.1677 19.4647 44.1858 19.4699 44.1974C19.4751 44.2089 19.5269 44.2426 19.5851 44.2721C19.7014 44.3312 19.9113 44.5217 20.0022 44.6507C20.0342 44.6961 20.0734 44.7486 20.0894 44.7676C20.1054 44.7864 20.1323 44.8265 20.1493 44.8568C20.1664 44.887 20.2057 44.9257 20.2365 44.9427C20.2675 44.9597 20.3019 44.9866 20.3133 45.0025C20.3544 45.0601 20.7776 45.0544 20.8859 44.9949C21.067 44.8952 21.1864 44.3759 21.0395 44.3269C21.0201 44.3205 21.0044 44.2974 21.0044 44.2757C21.0044 44.1203 20.2388 43.3616 20.0821 43.3616C20.0621 43.3616 20.0457 43.3485 20.0457 43.3325C20.0457 43.3165 20.0295 43.3034 20.0095 43.3032C19.9895 43.3031 19.9367 43.284 19.892 43.2607C19.8474 43.2374 19.7625 43.2098 19.7033 43.1991C19.644 43.1884 19.5825 43.1697 19.5665 43.1575C19.4913 43.1003 18.5416 43.0515 18.4337 43.0993ZM45.5788 43.099C45.5548 43.1152 45.4984 43.1284 45.4535 43.1287C45.3704 43.1291 45.109 43.2001 45.0231 43.2454C44.9971 43.2591 44.9285 43.2793 44.8706 43.2901C44.8128 43.301 44.7654 43.3215 44.7654 43.3358C44.7654 43.3499 44.7515 43.3616 44.7347 43.3616C44.6862 43.3616 44.4398 43.4797 44.3951 43.5244C44.3728 43.5467 44.3359 43.5648 44.313 43.5648C44.2902 43.5648 44.2715 43.5759 44.2715 43.5895C44.2715 43.603 44.247 43.6259 44.2167 43.6403C44.096 43.6981 43.5744 44.1657 43.5744 44.2161C43.5744 44.2278 43.5352 44.2766 43.4873 44.3245C43.4393 44.3725 43.4001 44.4247 43.4001 44.4407C43.4001 44.4565 43.3838 44.4878 43.3638 44.51C43.2751 44.6089 43.2561 44.6392 43.2384 44.7098C43.228 44.751 43.2104 44.7849 43.1993 44.7849C43.188 44.7849 43.1552 44.8404 43.1264 44.9083C43.0974 44.9762 43.056 45.069 43.0343 45.1146C43.0126 45.1601 42.9867 45.2419 42.9764 45.2964C42.9661 45.3509 42.9471 45.4022 42.9342 45.4102C42.921 45.4183 42.9012 45.4998 42.8899 45.5914C42.8787 45.683 42.8548 45.7673 42.837 45.7787C42.791 45.8081 42.792 47.0844 42.8381 47.1405C42.8565 47.1629 42.8809 47.2565 42.8923 47.3483C42.9038 47.4402 42.9237 47.5154 42.9369 47.5154C42.9501 47.5154 42.9697 47.5742 42.9804 47.6461C42.9912 47.718 43.0111 47.7768 43.0245 47.7768C43.0379 47.7768 43.0574 47.8226 43.068 47.8784C43.0784 47.9343 43.0977 47.9801 43.1105 47.9801C43.1235 47.9801 43.1426 48.0194 43.1532 48.0673C43.1638 48.1151 43.1842 48.1544 43.1986 48.1544C43.213 48.1544 43.233 48.187 43.243 48.227C43.2529 48.2669 43.2728 48.2996 43.287 48.2996C43.3013 48.2996 43.313 48.3196 43.313 48.3441C43.313 48.3685 43.3326 48.3961 43.3565 48.4054C43.3805 48.4145 43.4001 48.4382 43.4001 48.458C43.4001 48.4779 43.423 48.5215 43.451 48.555C43.479 48.5886 43.5341 48.6576 43.5736 48.7087C43.6903 48.8596 44.0174 49.1711 44.0589 49.1711C44.08 49.1711 44.0973 49.1822 44.0973 49.1959C44.0973 49.2311 44.3795 49.4101 44.5966 49.5124C44.9281 49.6688 44.9913 49.6939 45.0529 49.6939C45.0865 49.6939 45.114 49.7053 45.114 49.7192C45.114 49.8322 46.8753 49.8365 47.0166 49.7237C47.0326 49.711 47.0889 49.6913 47.142 49.6801C47.1949 49.6687 47.2734 49.6411 47.3162 49.6187C47.3592 49.5965 47.4106 49.578 47.4305 49.5779C47.4505 49.5778 47.4668 49.5661 47.4668 49.5518C47.4668 49.5377 47.5026 49.517 47.5464 49.506C47.5902 49.495 47.6326 49.4772 47.6409 49.4665C47.649 49.4558 47.7057 49.4215 47.7667 49.3904C47.8278 49.3593 47.9017 49.3136 47.9311 49.2888C47.9604 49.264 48.0135 49.224 48.0491 49.2002C48.1573 49.1274 48.251 49.0257 48.251 48.981C48.251 48.9577 48.2642 48.9386 48.2802 48.9386C48.3144 48.9386 48.3217 46.5671 48.2874 46.5519C48.2754 46.5466 48.2411 46.4939 48.2109 46.4349C48.1733 46.3605 48.1307 46.3217 48.0731 46.309C48.0272 46.299 47.9896 46.2787 47.9896 46.2641C47.9896 46.2482 47.5842 46.2372 47.002 46.2372C46.4198 46.2372 46.0144 46.2482 46.0144 46.2641C46.0144 46.2787 45.9785 46.2986 45.9345 46.3083C45.7558 46.3477 45.6184 46.9332 45.7755 46.9855C45.7951 46.9919 45.8111 47.0162 45.8111 47.0393C45.8111 47.0626 45.8339 47.0898 45.8619 47.1003C45.8898 47.1105 45.9221 47.1329 45.9335 47.1502C45.9468 47.1703 46.1802 47.1844 46.5943 47.1902L47.2345 47.199L47.234 47.8291C47.2338 48.1758 47.2239 48.4724 47.2122 48.4884C47.1861 48.5241 46.9357 48.6482 46.89 48.6482C46.8717 48.6482 46.8568 48.6601 46.8568 48.6748C46.8568 48.6893 46.8012 48.7104 46.7333 48.7219C46.6654 48.7331 46.6006 48.7573 46.5892 48.7752C46.5597 48.8217 45.5264 48.8209 45.4977 48.7744C45.4863 48.7558 45.4279 48.7314 45.368 48.7203C45.3082 48.709 45.2591 48.6893 45.2591 48.6763C45.2591 48.6634 45.22 48.6442 45.1721 48.6337C45.1241 48.6231 45.0849 48.604 45.0849 48.591C45.0849 48.578 45.0533 48.5595 45.0148 48.5498C44.9763 48.5401 44.9097 48.5027 44.8667 48.4667C44.706 48.3319 44.3006 47.9235 44.3006 47.8962C44.3006 47.8808 44.2842 47.8503 44.2642 47.8284C44.2102 47.7694 44.1575 47.6849 44.1188 47.5953C44.1 47.5513 44.0754 47.5154 44.0645 47.5154C44.0533 47.5154 44.0355 47.4631 44.0246 47.3992C44.0138 47.3353 43.994 47.2829 43.9803 47.2829C43.9667 47.2829 43.9464 47.2208 43.9353 47.1449C43.924 47.0691 43.9011 46.9981 43.8841 46.9872C43.841 46.9596 43.8404 45.9972 43.8835 45.9434C43.9012 45.9213 43.9246 45.8411 43.9356 45.7652C43.9466 45.6893 43.9673 45.6272 43.9816 45.6272C43.9958 45.6272 44.0165 45.5782 44.0275 45.5183C44.0385 45.4584 44.0558 45.4029 44.0657 45.3949C44.0757 45.3869 44.0998 45.3477 44.1194 45.3077C44.1643 45.2158 44.2177 45.1325 44.2642 45.0818C44.2842 45.06 44.3006 45.03 44.3006 45.015C44.3006 44.9464 44.8922 44.4073 44.9676 44.4073C44.9841 44.4073 44.9977 44.3967 44.9977 44.3837C44.9977 44.3709 45.0533 44.3366 45.1213 44.3077C45.1891 44.2789 45.2838 44.2363 45.3318 44.2135C45.3797 44.1907 45.4744 44.1643 45.5424 44.1548C45.6103 44.1456 45.6658 44.1266 45.6658 44.1128C45.6658 44.0801 46.5 44.0799 46.5203 44.1128C46.5287 44.1265 46.5922 44.1454 46.6613 44.1548C46.7303 44.1644 46.8254 44.1922 46.8726 44.2169C46.9198 44.2415 46.9748 44.2617 46.9947 44.2619C47.0147 44.2619 47.0311 44.2721 47.0311 44.2844C47.0311 44.2968 47.0784 44.3324 47.1362 44.3635C47.1939 44.3946 47.2821 44.4562 47.3322 44.5003C47.3823 44.5444 47.4321 44.5808 47.4429 44.5811C47.4538 44.5814 47.4855 44.6043 47.5134 44.6323C47.5545 44.6734 47.6158 44.6833 47.8301 44.6833H48.0959L48.1904 44.5815C48.3087 44.4544 48.3382 44.3806 48.3382 44.2125C48.3382 44.0888 48.2391 43.8262 48.1923 43.8262C48.1815 43.8262 48.1459 43.8034 48.1131 43.7754C48.0801 43.7474 48.0243 43.7051 47.9891 43.6811C47.9537 43.6571 47.8949 43.6146 47.8582 43.5866C47.8217 43.5587 47.7774 43.5358 47.76 43.5358C47.7425 43.5358 47.7282 43.5241 47.7282 43.5099C47.7282 43.4957 47.6955 43.4758 47.6556 43.4658C47.6156 43.4558 47.5829 43.4358 47.5829 43.4214C47.5829 43.407 47.5438 43.3866 47.4959 43.376C47.4479 43.3656 47.4087 43.3463 47.4087 43.3333C47.4087 43.3205 47.3629 43.3014 47.3071 43.2908C47.2512 43.2804 47.2054 43.2607 47.2054 43.2473C47.2054 43.2339 47.1433 43.2136 47.0674 43.2023C46.9915 43.1911 46.9164 43.1714 46.9004 43.1585C46.8242 43.0978 45.659 43.0452 45.5788 43.099ZM0.586864 43.1918C0.532782 43.2073 0.447735 43.2607 0.398076 43.3104L0.307892 43.4006L0.300186 46.4441L0.29248 49.4877L0.383093 49.5907C0.432894 49.6475 0.490829 49.6939 0.511806 49.6939C0.532782 49.6939 0.554757 49.7085 0.560608 49.7262C0.578588 49.7801 1.01196 49.7678 1.07403 49.7116C1.10243 49.6859 1.13553 49.6649 1.14738 49.6649C1.18733 49.6649 1.24883 49.5853 1.2681 49.5087C1.27866 49.4667 1.29892 49.4325 1.31319 49.4325C1.32817 49.4325 1.33902 48.1793 1.33902 46.4551C1.33902 44.6609 1.32846 43.4778 1.31234 43.4778C1.29764 43.4778 1.27695 43.4385 1.26639 43.3906C1.2534 43.3309 1.225 43.2978 1.17692 43.2857C1.13824 43.276 1.10671 43.2577 1.10671 43.245C1.10671 43.1712 0.776223 43.1373 0.586864 43.1918ZM6.01891 43.1918C5.91331 43.2222 5.76519 43.3533 5.7044 43.4705C5.65688 43.5622 5.64875 49.4325 5.69627 49.4325C5.71211 49.4325 5.72524 49.4502 5.72524 49.4719C5.72524 49.5208 5.82869 49.6328 5.94128 49.7055C6.04017 49.7693 6.42559 49.786 6.44514 49.7273C6.45128 49.7089 6.47283 49.6939 6.49323 49.6939C6.56329 49.6939 6.68758 49.5484 6.70399 49.4466C6.71313 49.391 6.73168 49.3453 6.74552 49.3453C6.75922 49.3453 6.77392 48.5512 6.77805 47.5807C6.78476 45.9888 6.78975 45.8253 6.82885 45.9104C6.85283 45.9624 6.88222 46.0049 6.89421 46.0049C6.90634 46.0049 6.91618 46.0205 6.91618 46.0394C6.91618 46.0586 6.98154 46.2075 7.06145 46.3708C7.14136 46.5339 7.20672 46.6817 7.20672 46.6993C7.20672 46.7167 7.2187 46.7311 7.2334 46.7311C7.2481 46.7311 7.26879 46.7703 7.27935 46.8181C7.28976 46.8661 7.30946 46.9053 7.32287 46.9053C7.33628 46.9053 7.35598 46.9446 7.36639 46.9925C7.37695 47.0405 7.39664 47.0796 7.41006 47.0796C7.42347 47.0796 7.44302 47.1188 7.45358 47.1668C7.46414 47.2147 7.48369 47.2539 7.4971 47.2539C7.51066 47.2539 7.53021 47.2932 7.54077 47.3411C7.55133 47.3889 7.57088 47.4282 7.58429 47.4282C7.5977 47.4282 7.6174 47.4674 7.62781 47.5154C7.63837 47.5633 7.65807 47.6025 7.67148 47.6025C7.68489 47.6025 7.70444 47.6416 7.715 47.6896C7.72556 47.7375 7.74511 47.7768 7.75852 47.7768C7.77208 47.7768 7.79163 47.816 7.80219 47.864C7.81275 47.9119 7.8323 47.951 7.84571 47.951C7.85913 47.951 7.87882 47.9903 7.88923 48.0382C7.89979 48.0861 7.91949 48.1254 7.9329 48.1254C7.94631 48.1254 7.96586 48.1646 7.97642 48.2124C7.98698 48.2604 8.00653 48.2996 8.02009 48.2996C8.0335 48.2996 8.05305 48.3389 8.06361 48.3868C8.07417 48.4348 8.09372 48.4739 8.10713 48.4739C8.12055 48.4739 8.14024 48.5131 8.1508 48.561C8.16121 48.609 8.18091 48.6482 8.19432 48.6482C8.20773 48.6482 8.22728 48.6875 8.23784 48.7354C8.2484 48.7832 8.26795 48.8225 8.28151 48.8225C8.29492 48.8225 8.31447 48.8617 8.32503 48.9097C8.33559 48.9576 8.35514 48.9968 8.36855 48.9968C8.38197 48.9968 8.40166 49.0359 8.41222 49.0839C8.42264 49.1318 8.44333 49.1711 8.45802 49.1711C8.47272 49.1711 8.48485 49.1912 8.48485 49.2157C8.48485 49.2928 8.70789 49.4863 8.82147 49.5076C9.10558 49.5608 9.47246 49.3951 9.47246 49.2135C9.47246 49.1902 9.48401 49.1711 9.49828 49.1711C9.51255 49.1711 9.53324 49.1353 9.54423 49.0914C9.55522 49.0476 9.57363 49.0053 9.58519 48.9971C9.62115 48.9719 10.1406 47.8864 10.1406 47.8366C10.1406 47.8197 10.1525 47.8059 10.1672 47.8059C10.1819 47.8059 10.2026 47.7667 10.2131 47.7187C10.2236 47.6708 10.2433 47.6315 10.2567 47.6315C10.2701 47.6315 10.2897 47.5923 10.3002 47.5443C10.3108 47.4965 10.3303 47.4573 10.3439 47.4573C10.3573 47.4573 10.3769 47.418 10.3874 47.3701C10.398 47.3221 10.4175 47.2829 10.431 47.2829C10.4444 47.2829 10.4641 47.2438 10.4746 47.1959C10.485 47.1479 10.5047 47.1087 10.5181 47.1087C10.5316 47.1087 10.5511 47.0694 10.5617 47.0215C10.5722 46.9735 10.5918 46.9344 10.6053 46.9344C10.6187 46.9344 10.6383 46.8952 10.6488 46.8473C10.6594 46.7993 10.679 46.7601 10.6924 46.7601C10.7058 46.7601 10.7255 46.7208 10.736 46.673C10.7465 46.6251 10.7661 46.5858 10.7796 46.5858C10.793 46.5858 10.8127 46.5466 10.8231 46.4986C10.8336 46.4507 10.8532 46.4116 10.8667 46.4116C10.8802 46.4116 10.8997 46.3724 10.9103 46.3244C10.9208 46.2765 10.9414 46.2372 10.9561 46.2372C10.9709 46.2372 10.9829 46.2225 10.9829 46.2045C10.9829 46.1864 11.0254 46.0854 11.0772 45.9799L11.1717 45.7882L11.1793 47.5292C11.184 48.6317 11.1972 49.2808 11.2155 49.2991C11.2313 49.3149 11.2443 49.3604 11.2443 49.4002C11.2443 49.4911 11.3563 49.6591 11.4331 49.6834C11.4651 49.6935 11.4998 49.715 11.5102 49.7312C11.5369 49.7728 11.9502 49.7693 11.9642 49.7273C11.9704 49.7089 11.9929 49.6939 12.0143 49.6939C12.0661 49.6939 12.2319 49.5262 12.2319 49.4739C12.2319 49.451 12.2451 49.4325 12.261 49.4325C12.2802 49.4325 12.29 48.4206 12.29 46.4551C12.29 44.4896 12.2802 43.4778 12.261 43.4778C12.2451 43.4778 12.2319 43.4628 12.2319 43.4444C12.2319 43.242 11.6287 43.0699 11.4698 43.2269C11.4497 43.2469 11.4103 43.2718 11.3823 43.2824C11.3543 43.293 11.3315 43.3205 11.3315 43.3436C11.3315 43.3667 11.321 43.3901 11.3083 43.3954C11.2761 43.4088 11.0701 43.8212 11.0701 43.8722C11.0701 43.8949 11.058 43.9134 11.0433 43.9134C11.0286 43.9134 11.0079 43.9526 10.9975 44.0006C10.9869 44.0485 10.9672 44.0878 10.9538 44.0878C10.9404 44.0878 10.9208 44.1269 10.9103 44.1748C10.8997 44.2228 10.8802 44.262 10.8667 44.262C10.8532 44.262 10.8336 44.3013 10.8231 44.3492C10.8127 44.397 10.793 44.4362 10.7796 44.4362C10.7661 44.4362 10.7465 44.4755 10.736 44.5234C10.7255 44.5714 10.7048 44.6106 10.6901 44.6106C10.6754 44.6106 10.6634 44.6246 10.6634 44.6419C10.6634 44.6591 10.6176 44.7683 10.5617 44.8846C10.5057 45.0009 10.4601 45.1109 10.4601 45.1292C10.4601 45.1474 10.4469 45.1624 10.431 45.1624C10.415 45.1624 10.4016 45.1788 10.401 45.1988C10.4004 45.2188 10.3747 45.2874 10.3439 45.3514C10.3129 45.4151 10.2873 45.4838 10.2867 45.5038C10.2861 45.5237 10.2737 45.5402 10.259 45.5402C10.2443 45.5402 10.2236 45.5792 10.2131 45.6272C10.2026 45.6751 10.1829 45.7144 10.1695 45.7144C10.1561 45.7144 10.1366 45.7536 10.126 45.8016C10.1154 45.8495 10.0959 45.8886 10.0823 45.8886C10.0689 45.8886 10.0494 45.9279 10.0388 45.9758C10.0283 46.0237 10.0087 46.063 9.9953 46.063C9.98188 46.063 9.96219 46.1022 9.95163 46.15C9.94122 46.198 9.92152 46.2372 9.90811 46.2372C9.8947 46.2372 9.875 46.2765 9.86459 46.3244C9.85403 46.3724 9.83448 46.4116 9.82092 46.4116C9.80751 46.4116 9.78796 46.4507 9.7774 46.4986C9.76684 46.5466 9.74629 46.5858 9.73159 46.5858C9.71675 46.5858 9.70477 46.6021 9.70462 46.6221C9.70448 46.6421 9.64598 46.776 9.57448 46.9199C9.50299 47.0637 9.4442 47.1976 9.44392 47.2176C9.44363 47.2375 9.43136 47.2539 9.41666 47.2539C9.40196 47.2539 9.38127 47.2932 9.37071 47.3411C9.36015 47.3889 9.3406 47.4282 9.32719 47.4282C9.31378 47.4282 9.29409 47.4674 9.28353 47.5154C9.27311 47.5633 9.25342 47.6025 9.24 47.6025C9.22659 47.6025 9.20704 47.6416 9.19648 47.6896C9.18592 47.7375 9.16523 47.7768 9.15053 47.7768C9.13583 47.7768 9.12385 47.7912 9.12385 47.8087C9.12385 47.8647 9.03109 48.0382 9.00869 48.0244C8.9793 48.0062 8.5719 47.1826 8.5719 47.1414C8.5719 47.1234 8.55991 47.1087 8.54521 47.1087C8.53051 47.1087 8.50982 47.0694 8.49926 47.0215C8.48885 46.9735 8.46915 46.9344 8.45574 46.9344C8.44233 46.9344 8.42264 46.8952 8.41222 46.8473C8.40166 46.7993 8.38197 46.7601 8.36855 46.7601C8.35514 46.7601 8.33559 46.7208 8.32503 46.673C8.31447 46.6251 8.29492 46.5858 8.28151 46.5858C8.26795 46.5858 8.2484 46.5466 8.23784 46.4986C8.22728 46.4507 8.20773 46.4116 8.19432 46.4116C8.18091 46.4116 8.16121 46.3724 8.1508 46.3244C8.14024 46.2765 8.12055 46.2372 8.10713 46.2372C8.09372 46.2372 8.07417 46.198 8.06361 46.15C8.05305 46.1022 8.0335 46.063 8.02009 46.063C8.00653 46.063 7.98698 46.0237 7.97642 45.9758C7.96586 45.9279 7.94631 45.8886 7.9329 45.8886C7.91949 45.8886 7.89979 45.8495 7.88923 45.8016C7.87882 45.7536 7.85913 45.7144 7.84571 45.7144C7.8323 45.7144 7.81275 45.6751 7.80219 45.6272C7.79163 45.5792 7.77208 45.5402 7.75852 45.5402C7.74511 45.5402 7.72556 45.5009 7.715 45.453C7.70444 45.405 7.68489 45.3658 7.67148 45.3658C7.65807 45.3658 7.63837 45.3265 7.62781 45.2787C7.6174 45.2308 7.5977 45.1915 7.58429 45.1915C7.57088 45.1915 7.55133 45.1523 7.54077 45.1044C7.53021 45.0564 7.51094 45.0173 7.49796 45.0173C7.48497 45.0173 7.46542 44.9815 7.45444 44.9377C7.44345 44.8939 7.42575 44.8514 7.41491 44.8432C7.40421 44.8351 7.27207 44.5801 7.12124 44.2766C6.97027 43.9729 6.83742 43.7179 6.82571 43.7098C6.81416 43.7016 6.79561 43.6591 6.78462 43.6155C6.77363 43.5716 6.75437 43.5358 6.74195 43.5358C6.72939 43.5358 6.71056 43.5014 6.7 43.4595C6.64249 43.23 6.32271 43.1045 6.01891 43.1918ZM25.5099 43.1918C25.4043 43.2222 25.2563 43.3533 25.1955 43.4705C25.1517 43.5548 25.1397 47.849 25.1831 47.8758C25.1968 47.8844 25.2158 47.9666 25.2252 48.0586C25.2348 48.1508 25.2562 48.2307 25.273 48.2363C25.2897 48.2418 25.3034 48.2732 25.3034 48.3062C25.3034 48.3701 25.4197 48.6273 25.4559 48.6434C25.4679 48.6487 25.4776 48.6655 25.4776 48.6809C25.4776 48.7271 25.6601 48.9703 25.8 49.1103C25.9638 49.2741 26.3057 49.5193 26.3709 49.5195C26.3909 49.5195 26.4071 49.5317 26.4071 49.5464C26.4071 49.5611 26.4464 49.5818 26.4943 49.5923C26.5423 49.6027 26.5815 49.6234 26.5815 49.6381C26.5815 49.6528 26.6044 49.6649 26.6323 49.6651C26.6603 49.6651 26.7195 49.6842 26.7637 49.7073C27.0243 49.8432 28.8974 49.8564 29.065 49.7236C29.081 49.711 29.1367 49.6915 29.1886 49.6805C29.2404 49.6694 29.2829 49.6497 29.2829 49.6367C29.2829 49.6237 29.3187 49.6042 29.3625 49.5932C29.4064 49.5822 29.4487 49.5643 29.4569 49.5536C29.4651 49.5429 29.5351 49.5014 29.6123 49.4616C29.8217 49.3533 30.3286 48.8403 30.3286 48.7366C30.3286 48.7199 30.3414 48.7063 30.3571 48.7063C30.3728 48.7063 30.3938 48.6736 30.4038 48.6337C30.4139 48.5937 30.4326 48.561 30.4455 48.561C30.4583 48.561 30.4776 48.5088 30.4884 48.4449C30.4993 48.381 30.5191 48.3287 30.5328 48.3287C30.5464 48.3287 30.5666 48.2667 30.5778 48.1907C30.589 48.1148 30.6127 48.0433 30.6304 48.0321C30.6799 48.0002 30.6759 43.4725 30.6264 43.4559C30.6064 43.4492 30.59 43.4272 30.59 43.407C30.59 43.1403 29.9731 43.0811 29.7278 43.3242L29.617 43.4341L29.6088 45.5673C29.6043 46.7405 29.5891 47.7143 29.5752 47.7313C29.5612 47.7484 29.5406 47.8243 29.5292 47.9002C29.5179 47.9761 29.4971 48.0382 29.483 48.0382C29.4689 48.0382 29.4573 48.0552 29.4573 48.0759C29.4573 48.2194 28.8789 48.7354 28.718 48.7354C28.6933 48.7354 28.6729 48.7473 28.6729 48.7618C28.6729 48.7764 28.6174 48.7976 28.5495 48.8089C28.4815 48.8203 28.4173 48.8433 28.4068 48.86C28.3809 48.9007 27.5129 48.9011 27.4867 48.8604C27.4761 48.844 27.4053 48.8215 27.3295 48.8102C27.2536 48.7991 27.1916 48.7787 27.1916 48.765C27.1916 48.7513 27.1523 48.7314 27.1044 48.7209C27.0564 48.7103 27.0172 48.691 27.0172 48.6781C27.0172 48.6651 26.9844 48.6462 26.9441 48.6362C26.8431 48.6108 26.4443 48.2163 26.4204 48.1181C26.4097 48.0742 26.3909 48.0382 26.3786 48.0382C26.2913 48.0382 26.2786 47.7731 26.263 45.6296C26.2509 43.9374 26.2396 43.4653 26.2111 43.4559C26.1911 43.4492 26.1748 43.4252 26.1748 43.4025C26.1748 43.2387 25.7809 43.1139 25.5099 43.1918ZM35.3106 43.1942C35.1904 43.2379 35.0661 43.3694 35.0449 43.4759C35.0352 43.5248 35.0156 43.5648 35.0016 43.5648C34.9874 43.5648 34.9762 44.823 34.9762 46.4551C34.9762 48.0724 34.9874 49.3453 35.0015 49.3453C35.0155 49.3453 35.0342 49.391 35.0432 49.4466C35.0597 49.5484 35.1839 49.6939 35.2541 49.6939C35.2743 49.6939 35.296 49.7089 35.302 49.7273C35.3217 49.786 35.707 49.7693 35.8059 49.7055C35.9185 49.6328 36.0221 49.5208 36.0221 49.4719C36.0221 49.4502 36.035 49.4325 36.051 49.4325C36.0699 49.4325 36.0801 49.0549 36.0801 48.3577V47.2829H36.5884C37.0097 47.2829 37.0967 47.29 37.0967 47.3244C37.0967 47.3473 37.1131 47.3838 37.1331 47.4056C37.1793 47.456 37.2327 47.539 37.2782 47.6315C37.2979 47.6715 37.3305 47.7214 37.3506 47.7425C37.3707 47.7637 37.3872 47.7982 37.3872 47.8193C37.3872 47.8404 37.4068 47.8653 37.4308 47.8744C37.4547 47.8837 37.4744 47.9112 37.4744 47.9356C37.4744 47.9601 37.4874 47.9801 37.5034 47.9801C37.5194 47.9801 37.5325 47.9988 37.5325 48.0216C37.5325 48.0445 37.5488 48.0809 37.5688 48.1027C37.615 48.1532 37.6684 48.2363 37.7139 48.3287C37.7336 48.3687 37.7661 48.4186 37.7864 48.4398C37.8065 48.4609 37.8229 48.4967 37.8229 48.5195C37.8229 48.5424 37.833 48.561 37.8453 48.561C37.8577 48.561 37.9 48.6198 37.9392 48.6918C37.9784 48.7637 38.0207 48.8225 38.0329 48.8225C38.0452 48.8225 38.0554 48.8392 38.0554 48.8594C38.0554 48.8798 38.1012 48.9659 38.157 49.0508C38.2129 49.1357 38.2587 49.2172 38.2587 49.2317C38.2587 49.2463 38.2704 49.2583 38.2845 49.2583C38.2988 49.2583 38.3186 49.2909 38.3288 49.3309C38.3387 49.3707 38.3597 49.4034 38.3754 49.4034C38.3911 49.4034 38.404 49.4235 38.404 49.4479C38.404 49.4724 38.4235 49.5 38.4475 49.5091C38.4715 49.5184 38.491 49.5439 38.491 49.5659C38.491 49.7 39.1411 49.8496 39.1827 49.7249C39.1884 49.7079 39.2086 49.6939 39.2277 49.6939C39.2677 49.6939 39.3599 49.5947 39.4131 49.4946C39.4551 49.4157 39.4631 49.0549 39.423 49.0549C39.4083 49.0549 39.3876 49.0157 39.377 48.9677C39.3665 48.9198 39.3468 48.8805 39.3331 48.8805C39.3195 48.8805 39.2992 48.8519 39.288 48.8166C39.2768 48.7814 39.253 48.7361 39.2352 48.7159C39.1557 48.6263 39.136 48.5963 39.1172 48.5371C39.1062 48.5024 39.0863 48.4739 39.0732 48.4739C39.0601 48.4739 39.0411 48.4412 39.0311 48.4014C39.021 48.3614 39 48.3287 38.9843 48.3287C38.9686 48.3287 38.9558 48.311 38.9558 48.2895C38.9558 48.2681 38.9297 48.2203 38.8977 48.1835C38.8657 48.1467 38.8396 48.0988 38.8396 48.0773C38.8396 48.0558 38.8268 48.0382 38.8111 48.0382C38.7955 48.0382 38.7744 48.0055 38.7644 47.9656C38.7544 47.9256 38.7346 47.8929 38.7203 47.8929C38.7061 47.8929 38.6943 47.873 38.6943 47.8484C38.6943 47.824 38.6748 47.7965 38.6508 47.7873C38.6269 47.7781 38.6073 47.7554 38.6073 47.7367C38.6073 47.7181 38.5615 47.6334 38.5056 47.5485C38.4496 47.4636 38.404 47.3822 38.404 47.3675C38.404 47.353 38.3923 47.3411 38.378 47.3411C38.3637 47.3411 38.3439 47.3085 38.3339 47.2685C38.3239 47.2285 38.3028 47.1959 38.2872 47.1959C38.2715 47.1959 38.2587 47.1757 38.2587 47.1513C38.2587 47.1269 38.2391 47.0994 38.2152 47.0901C38.1498 47.0652 38.1625 47.03 38.2441 47.0096C38.2841 46.9997 38.3168 46.9785 38.3168 46.9628C38.3168 46.9473 38.3358 46.9344 38.3589 46.9344C38.3821 46.9344 38.4115 46.9177 38.4242 46.8973C38.4371 46.8771 38.4802 46.8394 38.5201 46.8137C38.6276 46.7448 38.7289 46.6425 38.8106 46.5203C38.8505 46.4607 38.892 46.4119 38.9027 46.4117C38.9134 46.4116 38.9308 46.3724 38.9414 46.3244C38.9518 46.2765 38.9715 46.2372 38.9849 46.2372C38.9983 46.2372 39.018 46.198 39.0284 46.15C39.039 46.1022 39.0585 46.063 39.0718 46.063C39.085 46.063 39.1053 46.0073 39.1166 45.9396C39.128 45.8716 39.1513 45.8071 39.1685 45.7963C39.2125 45.7685 39.2133 44.7894 39.1695 44.7617C39.1517 44.7505 39.1279 44.6727 39.1164 44.5888C39.105 44.5049 39.0848 44.4362 39.0716 44.4362C39.0584 44.4362 39.039 44.397 39.0284 44.3492C39.018 44.3013 38.9983 44.262 38.9849 44.262C38.9715 44.262 38.9521 44.2239 38.9418 44.1773C38.9317 44.1307 38.9044 44.0854 38.8814 44.0765C38.8585 44.0677 38.8396 44.0455 38.8396 44.0273C38.8396 43.9853 38.4214 43.5648 38.3796 43.5648C38.3626 43.5648 38.3383 43.5485 38.3255 43.5286C38.2952 43.4813 38.0715 43.3616 38.0133 43.3616C37.9884 43.3616 37.9682 43.3493 37.9682 43.3342C37.9682 43.3192 37.9094 43.2982 37.8375 43.2874C37.7655 43.2765 37.7067 43.2589 37.7067 43.2479C37.7067 43.1655 35.5245 43.1167 35.3106 43.1942ZM52.6736 43.1906C52.6217 43.2056 52.5792 43.2306 52.5792 43.2462C52.5792 43.2617 52.5592 43.2744 52.5347 43.2744C52.5103 43.2744 52.4816 43.2972 52.471 43.3252C52.4605 43.3532 52.4346 43.3933 52.4138 43.4144C52.3831 43.4455 52.3758 44.0233 52.3758 46.4528V49.4529L52.4632 49.5733C52.5113 49.6397 52.5689 49.6939 52.5915 49.6939C52.614 49.6939 52.638 49.7103 52.6445 49.7303C52.6541 49.7588 53.0997 49.7665 54.7433 49.7665C56.3868 49.7665 56.8324 49.7588 56.842 49.7303C56.8487 49.7103 56.8694 49.6938 56.8879 49.6935C56.9304 49.6928 57.0526 49.5662 57.0526 49.5228C57.0526 49.5051 57.0656 49.4906 57.0816 49.4906C57.0985 49.4906 57.1107 49.3934 57.1107 49.2571V49.0235L56.9932 48.9085C56.9287 48.8452 56.8511 48.7935 56.8207 48.7935C56.7903 48.7935 56.7575 48.7804 56.7475 48.7644C56.7359 48.7455 56.1469 48.7354 55.0755 48.7354H53.4215V47.8349V46.9344H54.6299C55.9691 46.9344 55.9618 46.9353 56.1071 46.7449C56.2282 46.5861 56.1927 46.063 56.0607 46.063C56.0493 46.063 56.0172 46.04 55.9892 46.0122C55.9427 45.9655 55.8332 45.9607 54.68 45.9531L53.4215 45.945V45.0608V44.1767L55.1365 44.1685C56.2371 44.1633 56.8588 44.15 56.8721 44.1313C56.8835 44.1153 56.9189 44.0881 56.9508 44.0708C56.9828 44.0535 57.0219 44.011 57.0376 43.9765C57.0534 43.9418 57.0763 43.9134 57.0885 43.9134C57.1007 43.9134 57.1107 43.8088 57.1107 43.6811C57.1107 43.5455 57.0985 43.4486 57.0816 43.4486C57.0656 43.4486 57.0526 43.4309 57.0526 43.4094C57.0526 43.3399 56.9179 43.2219 56.802 43.1898C56.659 43.1501 52.8113 43.151 52.6736 43.1906ZM37.2711 44.2001C37.2711 44.2139 37.3252 44.2326 37.3914 44.2415C37.4576 44.2503 37.5197 44.2699 37.5294 44.285C37.5391 44.3 37.5773 44.3217 37.6143 44.3332C37.6962 44.3589 37.9973 44.6593 37.9973 44.7155C37.9973 44.7376 38.0103 44.7557 38.0262 44.7557C38.0422 44.7557 38.0555 44.7722 38.0555 44.7921C38.0556 44.8121 38.0769 44.8676 38.103 44.9156C38.1367 44.9776 38.1502 45.0778 38.1502 45.2642C38.1502 45.4505 38.1367 45.5506 38.103 45.6128C38.0769 45.6606 38.0556 45.7162 38.0555 45.7362C38.0555 45.7562 38.0422 45.7725 38.0262 45.7725C38.0103 45.7725 37.9973 45.7872 37.9973 45.805C37.9973 45.8472 37.7815 46.063 37.7393 46.063C37.7214 46.063 37.7067 46.0758 37.7067 46.0914C37.7067 46.1071 37.6741 46.1282 37.6341 46.1382C37.5942 46.1482 37.5615 46.1673 37.5615 46.1806C37.5615 46.1938 37.5025 46.2135 37.4305 46.2242C37.3584 46.2351 37.2922 46.2555 37.2835 46.2696C37.2748 46.2837 37.0004 46.2953 36.6739 46.2953H36.0801V45.2351V44.1748H36.6756C37.0031 44.1748 37.2711 44.1862 37.2711 44.2001Z" fill="white"/>
</g>
<defs>
<clipPath id="clip0_4655_13164">
<rect width="57.9545" height="50" fill="white" transform="translate(0 0.864258)"/>
</clipPath>
</defs>
</svg>
