<svg width="20" height="21" viewBox="0 0 20 21" fill="none" xmlns="http://www.w3.org/2000/svg">
<g clip-path="url(#clip0_4655_13275)">
<path d="M10 0.852539C6.20304 0.852539 3.125 3.93058 3.125 7.72754C3.125 10.2698 4.50526 12.489 6.5543 13.6779C7.12551 14.0093 7.48321 14.5179 7.4994 15.0297C7.50833 15.312 7.70547 15.5532 7.98033 15.6182C8.27315 15.6874 8.57154 15.7418 8.87466 15.7808C9.14433 15.8154 9.37515 15.5994 9.37515 15.3275V11.4433C9.10908 11.4139 8.84836 11.3659 8.59436 11.3005C8.26008 11.2145 8.05884 10.8737 8.14488 10.5394C8.23092 10.2051 8.57165 10.0039 8.90594 10.0899C9.25495 10.1798 9.62147 10.2277 10.0002 10.2277C10.3788 10.2277 10.7454 10.1798 11.0944 10.0899C11.4286 10.0039 11.7694 10.2051 11.8554 10.5394C11.9415 10.8737 11.7402 11.2145 11.4059 11.3005C11.1519 11.3659 10.8912 11.4139 10.6252 11.4433V15.3275C10.6252 15.5994 10.856 15.8154 11.1257 15.7807C11.4287 15.7418 11.727 15.6873 12.0197 15.6182C12.2945 15.5532 12.4917 15.312 12.5006 15.0297C12.5168 14.5179 12.8745 14.0093 13.4457 13.6779C15.4947 12.489 16.875 10.2698 16.875 7.72754C16.875 3.93058 13.797 0.852539 10 0.852539Z" fill="#CF4520"/>
<path fill-rule="evenodd" clip-rule="evenodd" d="M7.51095 16.8106C7.57528 16.4715 7.90235 16.2487 8.24148 16.313C8.81062 16.421 9.39841 16.4776 10 16.4776C10.6016 16.4776 11.1894 16.421 11.7585 16.313C12.0977 16.2487 12.4247 16.4715 12.4891 16.8106C12.5534 17.1497 12.3306 17.4768 11.9915 17.5411C11.3459 17.6636 10.6802 17.7276 10 17.7276C9.31985 17.7276 8.65407 17.6636 8.00852 17.5411C7.66939 17.4768 7.44662 17.1497 7.51095 16.8106Z" fill="#CF4520"/>
<path fill-rule="evenodd" clip-rule="evenodd" d="M8.12839 18.8475C8.16431 18.5042 8.47172 18.255 8.81503 18.2909C9.20426 18.3316 9.59958 18.3525 10 18.3525C10.4004 18.3525 10.7957 18.3316 11.185 18.2909C11.5283 18.255 11.8357 18.5042 11.8716 18.8475C11.9075 19.1908 11.6583 19.4982 11.315 19.5341C10.8827 19.5794 10.4439 19.6025 10 19.6025C9.55607 19.6025 9.11733 19.5794 8.68497 19.5341C8.34167 19.4982 8.09248 19.1908 8.12839 18.8475Z" fill="#CF4520"/>
</g>
<defs>
<clipPath id="clip0_4655_13275">
<rect width="20" height="20" fill="white" transform="translate(0 0.227539)"/>
</clipPath>
</defs>
</svg>
