<svg width="24" height="25" viewBox="0 0 24 25" fill="none" xmlns="http://www.w3.org/2000/svg">
<path d="M19.7143 3.07178H4.24554C3.5625 3.07178 3 3.67446 3 4.39767V19.7861C3 20.5093 3.5625 21.0718 4.24554 21.0718H19.7143C20.3973 21.0718 21 20.5093 21 19.7861V4.39767C21 3.67446 20.3973 3.07178 19.7143 3.07178ZM8.42411 18.5003H5.77232V9.94231H8.42411V18.5003ZM7.09821 8.73696C6.21429 8.73696 5.53125 8.05392 5.53125 7.21017C5.53125 6.36642 6.21429 5.64321 7.09821 5.64321C7.94196 5.64321 8.625 6.36642 8.625 7.21017C8.625 8.05392 7.94196 8.73696 7.09821 8.73696ZM18.4286 18.5003H15.7366V14.3218C15.7366 13.3575 15.7366 12.0718 14.3705 12.0718C12.9643 12.0718 12.7634 13.1566 12.7634 14.2816V18.5003H10.1116V9.94231H12.6429V11.1075H12.683C13.0446 10.4245 13.9286 9.70124 15.2143 9.70124C17.9063 9.70124 18.4286 11.5093 18.4286 13.7995V18.5003Z" fill="#E4E4E5"/>
</svg>
