<svg xmlns="http://www.w3.org/2000/svg" width="400" height="3" viewBox="0 0 400 3" fill="none">
<path d="M400 1.4296C399.947 1.44164 399.899 1.47172 399.857 1.51986C399.819 1.56799 399.779 1.60409 399.737 1.62816C399.742 1.64019 399.745 1.65824 399.745 1.68231C399.745 1.74248 399.737 1.7846 399.721 1.80866C399.705 1.84477 399.702 1.91095 399.713 2.00722C399.633 2.11552 399.551 2.19374 399.466 2.24188C399.381 2.29001 399.293 2.33213 399.203 2.36823C399.118 2.40433 399.033 2.44645 398.948 2.49458C398.863 2.54272 398.783 2.61492 398.709 2.71119V2.53069C398.682 2.55475 398.653 2.57882 398.621 2.60289C398.595 2.62696 398.563 2.63899 398.526 2.63899C398.472 2.63899 398.422 2.62094 398.374 2.58484C398.326 2.54874 398.276 2.53069 398.223 2.53069C398.18 2.53069 398.143 2.54874 398.111 2.58484C398.058 2.5728 398.016 2.54272 397.984 2.49458C397.957 2.44645 397.925 2.3923 397.888 2.33213C397.862 2.44043 397.822 2.50662 397.769 2.53069C397.715 2.56679 397.668 2.58484 397.625 2.58484C397.567 2.58484 397.511 2.57882 397.458 2.56679C397.41 2.55475 397.362 2.54272 397.314 2.53069C397.229 2.57882 2.71229 2.60289 2.63791 2.60289C2.56352 2.61492 2.48383 2.62094 2.39882 2.62094C2.32444 2.62094 2.25271 2.62696 2.18364 2.63899C2.11989 2.66306 2.05348 2.71119 1.98441 2.78339C1.96315 2.66306 1.91799 2.60289 1.84892 2.60289C1.81705 2.60289 1.78251 2.60289 1.74532 2.60289C1.71344 2.61492 1.68157 2.62094 1.64969 2.62094C1.59656 2.62094 1.55671 2.59085 1.53014 2.53069C1.50889 2.54272 1.49827 2.57882 1.49827 2.63899C1.50358 2.69916 1.50358 2.74729 1.49827 2.78339C1.41857 2.71119 1.33356 2.67509 1.24324 2.67509C1.16886 2.67509 1.09713 2.69314 1.02807 2.72924C0.958997 2.76534 0.889928 2.78339 0.820859 2.78339C0.783668 2.78339 0.746477 2.77136 0.709286 2.74729C0.672095 2.72323 0.640217 2.71119 0.613652 2.71119C0.581774 2.71119 0.557865 2.72323 0.541926 2.74729C0.525987 2.78339 0.512705 2.81949 0.502079 2.8556C0.48614 2.8917 0.470201 2.92178 0.454262 2.94585C0.438323 2.98195 0.414414 3 0.382536 3C0.324093 3 0.284246 2.95788 0.262994 2.87365C0.236429 2.78941 0.201894 2.73526 0.15939 2.71119C0.15939 2.48255 0.132825 2.27798 0.079695 2.09747C0.026565 1.91697 0 1.71239 0 1.48375C0 1.44765 0.0026565 1.40554 0.0079695 1.3574C0.0079695 1.30927 0.0079695 1.26715 0.0079695 1.23105C0.0823515 1.00241 0.191268 0.833935 0.334719 0.725632C0.472857 0.629362 0.603026 0.581227 0.725225 0.581227C0.783668 0.581227 0.826172 0.605295 0.852737 0.65343C0.879302 0.701564 0.913836 0.76775 0.95634 0.851986C1.32825 0.755716 1.70016 0.689531 2.07207 0.65343C2.44929 0.617329 397.261 0.569194 397.633 0.509025C397.755 0.496992 397.877 0.478941 398 0.454874L398.366 0.382671C398.382 0.382671 398.393 0.364621 398.398 0.32852C398.403 0.304452 398.406 0.274368 398.406 0.238267C398.411 0.2142 398.417 0.190132 398.422 0.166065C398.433 0.141998 398.449 0.129964 398.47 0.129964C398.528 0.129964 398.568 0.166065 398.589 0.238267C398.611 0.310469 398.643 0.358604 398.685 0.382671C398.722 0.334537 398.765 0.298436 398.813 0.274368C398.866 0.262335 398.916 0.244284 398.964 0.220217C399.012 0.196149 399.057 0.166065 399.099 0.129964C399.147 0.105897 399.187 0.0637786 399.219 0.00361011C399.261 -0.00842359 399.285 0.00962696 399.291 0.0577617C399.296 0.11793 399.312 0.160048 399.339 0.184116C399.365 0.172082 399.394 0.154031 399.426 0.129964C399.458 0.11793 399.487 0.111913 399.514 0.111913H399.57C399.591 0.111913 399.609 0.11793 399.625 0.129964C399.673 0.370638 399.734 0.587244 399.809 0.779783C399.888 0.972323 399.952 1.18893 400 1.4296Z" fill="#CF4520"/>
</svg>