<svg width="53" height="51" viewBox="0 0 53 51" fill="none" xmlns="http://www.w3.org/2000/svg">
<g clip-path="url(#clip0_4655_13324)">
<path d="M34.4406 11.0175C34.4266 6.54509 31.0784 2.81399 26.3741 2.79643C21.6698 2.78237 18.3111 6.57319 18.3076 11.0175" stroke="#1E6AA5" stroke-width="4.21594"/>
<path d="M34.4433 10.8665C34.4292 22.2354 20.4534 34.1771 -3.63721 34.0576" stroke="#1E6AA5" stroke-width="4.21594"/>
<path d="M34.4328 13.0614C34.4328 16.9717 31.7451 20.8925 26.3663 24.8239C20.9875 20.8925 18.2998 16.9717 18.2998 13.0614C18.2998 7.19775 21.915 2.43726 26.3663 2.43726C30.8176 2.43726 34.4328 7.19775 34.4328 13.0614Z" fill="#1E6AA5"/>
<path d="M34.4433 10.8665C34.4292 22.2354 20.4534 34.1771 -3.63721 34.0576" stroke="#74BF34" stroke-width="2.81063"/>
<path d="M18.2979 10.8665C18.3119 22.2354 32.2877 34.1771 56.3783 34.0576" stroke="#1E6AA5" stroke-width="4.21594"/>
<path d="M18.2979 10.8665C18.3119 22.2354 32.2877 34.1771 56.3783 34.0576" stroke="#74BF34" stroke-width="2.81063"/>
<path d="M34.4406 11.0175C34.4266 6.54509 31.0784 2.81399 26.3741 2.79643C21.6698 2.78237 18.3111 6.57319 18.3076 11.0175" stroke="#74BF34" stroke-width="2.81063"/>
<path d="M33.7533 10.8665C33.7498 15.23 31.5575 19.7059 27.4399 23.5073" stroke="#1E6AA5" stroke-width="0.351328" stroke-dasharray="2.11 0.7"/>
<path d="M18.9888 10.8665C19.0028 21.8384 32.8276 33.5201 56.3912 33.4007" stroke="#1E6AA5" stroke-width="0.351328" stroke-dasharray="2.11 0.7"/>
<path d="M33.7549 11.0182C33.7444 6.9041 30.6737 3.47164 26.3665 3.45759C22.0592 3.44002 18.9815 6.92869 18.978 11.0182" stroke="#1E6AA5" stroke-width="0.351328" stroke-dasharray="2.11 0.7"/>
<path d="M24.1348 26.1299C17.7231 30.4969 8.2899 33.4586 -3.6377 33.3989" stroke="#1E6AA5" stroke-width="0.351328" stroke-dasharray="2.11 0.7"/>
<path d="M29.4108 10.5946C29.4108 12.2704 28.0512 13.63 26.3753 13.63C24.6995 13.63 23.3398 12.2704 23.3398 10.5946C23.3398 8.91873 24.6995 7.55908 26.3753 7.55908C28.0512 7.55908 29.4108 8.91873 29.4108 10.5946Z" fill="white"/>
</g>
<path fill-rule="evenodd" clip-rule="evenodd" d="M15.5733 23.2936C15.2943 22.4235 14.7833 21.85 14.0665 21.6024C12.1076 20.9261 9.1822 22.9807 7.27406 26.3729C5.97479 28.6827 5.12415 31.427 4.7699 34.4515C4.7164 34.9082 4.66106 35.3216 4.64683 35.3703C4.62049 35.4603 3.79167 36.041 2.26049 37.0423C1.79165 37.3489 1.35838 37.6583 1.29753 37.73C1.1457 37.9091 1.15628 38.7021 1.31458 39.0003C1.50577 39.3607 1.85864 39.6708 2.07738 39.6708C2.33588 39.6708 2.62702 39.5192 3.61786 38.8685C4.07336 38.5693 4.4487 38.3695 4.45185 38.4244C4.52231 39.6456 4.81289 40.4161 5.4085 40.9614C6.16573 41.6545 7.3665 41.7357 9.69846 41.2514C11.0701 40.9664 13.7503 40.0765 14.0502 39.8063C14.469 39.4289 14.5929 38.6743 14.3183 38.1732C14.1626 37.8889 13.736 37.6147 13.4495 37.6147C13.3557 37.6147 12.3188 37.8857 11.1453 38.2168C8.92402 38.8435 7.98563 38.9961 7.49651 38.8102L7.2743 38.7258V37.7303C7.2743 37.644 7.27364 37.565 7.27303 37.4924C7.27018 37.1532 7.26849 36.9509 7.34059 36.7784C7.44718 36.5232 7.71505 36.3331 8.37895 35.8619C8.47521 35.7935 8.57979 35.7193 8.69341 35.6381C11.9811 33.2888 14.6781 29.6471 15.5193 26.4215C15.7612 25.4935 15.7877 23.9622 15.5733 23.2936ZM49.7847 24.2105C49.4589 23.2288 48.9009 22.5545 48.2582 22.366C47.8755 22.2538 47.7121 22.2561 47.3942 22.3781C46.9005 22.5675 46.6339 22.7537 46.2455 23.1801C45.2145 24.3121 44.3124 26.4404 43.6046 29.4101L43.5528 29.6276H42.5079C41.34 29.6276 40.7048 29.7291 40.4768 29.9522C40.2649 30.1596 40.281 30.542 40.5112 30.7673C40.7003 30.9523 40.7937 30.9744 42.4025 31.2162C42.7681 31.2712 43.109 31.3414 43.1601 31.3723C43.2296 31.4144 43.2301 31.6165 43.1619 32.1824C43.0432 33.168 43.0461 35.1088 43.1681 36.2544L43.2652 37.1654L42.9055 37.4735C41.8281 38.3965 40.3121 38.979 38.6949 39.0913C38.0997 39.1327 37.9803 39.1217 37.9803 39.0257C37.9803 38.9624 38.1349 38.8444 38.3238 38.7636C39.4344 38.2886 40.6934 37.1363 41.1666 36.1616C41.5404 35.3915 41.6448 34.8598 41.5971 33.969C41.5121 32.3808 40.8599 31.4783 39.5379 31.1196C38.6429 30.8767 37.6687 30.9537 36.9346 31.3254C36.2177 31.6883 35.4567 32.6474 35.1127 33.6212C35.0359 33.8386 34.9374 34.1118 34.8937 34.2282L34.8143 34.4398L34.2139 33.7932C32.8079 32.2791 31.3979 31.399 29.8765 31.0857C28.184 30.7373 26.4265 31.2077 25.2874 32.314C24.9948 32.5979 24.6858 32.9276 24.6005 33.0465L24.4454 33.2625L23.9202 32.8219C21.6644 30.9292 19.3127 30.4733 17.1326 31.5057C16.3045 31.8978 15.4305 32.7561 15.0184 33.5816C14.4429 34.7343 14.234 35.9006 14.3811 37.1388C14.547 38.536 14.9176 39.4114 15.6439 40.1222C16.2596 40.7248 16.8265 40.9656 17.7144 41.0019C18.8289 41.0475 19.6538 40.713 20.5556 39.8499C22.0311 38.4375 22.6074 35.8997 21.8984 33.9375L21.8815 33.8907C21.718 33.4384 21.643 33.2311 21.6948 33.1939C21.7387 33.1624 21.8733 33.2528 22.1218 33.4196L22.1519 33.4399C22.4357 33.6303 22.9334 33.9802 23.2581 34.2176C23.8053 34.6176 23.8452 34.6666 23.8038 34.8865C23.3872 37.0942 23.7891 38.9654 24.9241 40.1031C25.5423 40.7228 26.1036 40.965 27.0068 41.0019C28.1002 41.0466 28.9675 40.7039 29.8125 39.8932C31.3771 38.3921 31.9498 35.7616 31.1449 33.7732C31.0379 33.5087 30.9503 33.2496 30.9503 33.1974C30.9503 33.0311 32.6641 34.2429 33.8453 35.2443L34.5182 35.8148L34.4671 36.2205C34.439 36.4436 34.3836 36.8042 34.3441 37.0216C34.3046 37.2391 34.2478 37.6101 34.2179 37.8459C34.1789 38.1538 34.0681 38.4216 33.8256 38.7949C32.7768 40.4088 31.7038 42.5004 31.2056 43.9017C30.8797 44.8185 30.8028 45.9768 30.9981 47.0273C31.5303 49.8889 34.2075 49.8388 35.6574 46.9401C36.4134 45.4286 36.7886 43.8445 36.8967 41.7072C36.9375 40.9013 36.9786 40.6198 37.0557 40.6198C37.1129 40.6198 37.6079 40.6998 38.1559 40.7977C39.5787 41.0519 40.4881 41.031 41.3471 40.7245C42.1057 40.4538 42.7155 40.1101 43.4054 39.5641C43.6719 39.3532 43.9013 39.193 43.915 39.2082C43.9288 39.2235 44.0135 39.3782 44.1033 39.5522C44.736 40.7781 45.9798 41.2846 47.3183 40.8613C48.0864 40.6185 50.5953 39.3463 51.4142 38.7845L51.6365 38.632V37.3768C51.6365 36.6253 51.604 36.1019 51.5556 36.0727C51.5112 36.0458 51.4748 36.0537 51.4748 36.0901C51.4748 36.1868 50.3297 37.114 49.7931 37.4518C47.534 38.8742 46.3267 39.0057 45.7424 37.8933C45.5375 37.5032 45.5358 37.4841 45.5531 35.7976L45.5547 35.6366C45.5709 34.0404 45.5761 33.5338 45.7792 33.1212C45.8736 32.9294 46.0108 32.7578 46.2118 32.5066L46.2555 32.4519L46.8375 31.7232L48.9339 31.7039C51.1832 31.6831 51.3184 31.6607 51.5221 31.2752C51.719 30.9028 51.62 30.2526 51.3512 30.1516C51.2952 30.1306 50.5547 30.0879 49.7056 30.0567C48.7624 30.022 48.1618 29.969 48.1618 29.9204C48.1618 29.8766 48.3208 29.5704 48.515 29.2399C49.0781 28.2819 49.3371 27.742 49.6188 26.9388C49.8492 26.2823 49.8829 26.0829 49.8861 25.3572C49.8881 24.8811 49.8449 24.3919 49.7847 24.2105ZM9.43439 27.1431C10.1977 25.6504 11.3402 24.2167 12.0004 23.9232C12.4231 23.7353 12.5667 23.7394 12.7628 23.9453C13.1 24.2995 13.0742 25.6685 12.7117 26.656C12.2193 27.9974 11.1614 29.6782 9.67163 31.486C8.74367 32.6122 7.63703 33.8021 7.57578 33.7398C7.52415 33.6873 7.70952 32.3531 7.87428 31.5912C8.17738 30.1891 8.83392 28.3174 9.43439 27.1431ZM18.4658 33.1336C17.8845 33.3919 17.2004 34.4942 16.9288 35.6109C16.721 36.4649 16.7828 37.7693 17.0534 38.2404C17.3309 38.7234 17.6031 38.8989 18.1432 38.9427C18.5925 38.9791 18.5969 38.9773 18.9527 38.614C19.7305 37.8195 20.1919 36.3365 20.0977 34.9334C20.042 34.1033 19.9262 33.7389 19.6027 33.3749C19.3152 33.0515 18.8657 32.9561 18.4658 33.1336ZM26.2249 35.6131C26.4931 34.5077 27.1839 33.3878 27.7533 33.1356C28.0877 32.9876 28.577 33.0527 28.8266 33.2786C29.6143 33.9913 29.6016 36.2799 28.8012 37.8456C28.6473 38.1465 28.3744 38.5212 28.1909 38.6835C27.8772 38.9609 27.8348 38.9751 27.4215 38.9415C26.8765 38.8973 26.6072 38.7129 26.3444 38.2037C26.0748 37.6816 26.0186 36.4634 26.2249 35.6131ZM36.7699 36.1892C36.9929 34.377 37.4097 33.4095 38.1016 33.098C38.5559 32.8934 38.824 32.9116 39.1147 33.1664C39.9651 33.912 39.2216 36.1628 37.7213 37.3848C37.2948 37.7321 36.8549 38.0101 36.7319 38.0101C36.6586 38.0101 36.6816 36.9063 36.7699 36.1892ZM34.2376 41.2952C33.8564 42.0775 33.4757 43.2317 33.1217 44.6777C32.8843 45.6476 32.9347 46.1357 33.3131 46.5311C33.6176 46.8492 33.8973 46.7151 34.0965 46.1555C34.1507 46.0032 34.2261 45.1492 34.2642 44.2575C34.3023 43.3659 34.3592 42.2716 34.3907 41.8258C34.4222 41.38 34.4314 41.0152 34.411 41.0152C34.3906 41.0152 34.3127 41.1412 34.2376 41.2952ZM46.501 26.5463C46.7884 25.7211 47.1107 25.0528 47.3203 24.8477C47.5191 24.6531 47.9303 24.7164 48.063 24.9618C48.3669 25.5241 47.8783 26.9616 46.6449 29.1333C46.2986 29.743 46.2572 29.7857 46.0108 29.7857C45.8658 29.7857 45.7255 29.7514 45.699 29.7094C45.6349 29.6079 46.1705 27.4954 46.501 26.5463Z" fill="white"/>
<path fill-rule="evenodd" clip-rule="evenodd" d="M12.4844 20.4112C11.2902 20.6236 10.1085 21.2747 8.92127 22.3746C7.61368 23.5859 6.69614 24.8638 5.7293 26.8202C4.76958 28.762 4.07295 31.0849 3.71345 33.5421C3.61802 34.1945 3.50788 34.767 3.46869 34.8144C3.4295 34.8618 2.86071 35.2506 2.20465 35.6786C0.538039 36.7659 0.411984 36.8708 0.182254 37.3619C-0.0913527 37.9467 -0.0528899 38.8713 0.270655 39.49C0.926391 40.7435 1.85121 41.1026 3.02386 40.5592C3.33051 40.4171 3.58553 40.3103 3.59062 40.3219C4.14471 41.5877 4.88238 42.2718 6.0097 42.5656C6.98033 42.8185 8.98495 42.6373 10.9874 42.1156C11.9493 41.8649 13.6876 41.2842 14.2862 41.0135L14.6316 40.8572L15.2154 41.2933C15.9155 41.8162 16.4569 42.0289 17.375 42.1419C19.3205 42.3813 21.2283 41.3229 22.3924 39.3585L22.7636 38.7322L22.9495 39.1817C23.5277 40.5797 24.6201 41.6407 25.8441 41.9931C27.7925 42.5541 29.893 41.7941 31.2395 40.0413C31.9684 39.0922 32.5363 37.6652 32.623 36.5647C32.6497 36.2258 32.6998 35.9316 32.7343 35.9106C32.7689 35.8898 32.8983 35.9579 33.0221 36.0621L33.2471 36.2515L33.1462 37.0427C33.0476 37.8165 33.0327 37.8544 32.4667 38.7721C31.2053 40.8175 30.1501 43.0812 29.8582 44.3685C29.6863 45.1266 29.7283 46.8618 29.9368 47.6185C30.2577 48.7825 30.8835 49.6305 31.7179 50.0323C32.0691 50.2015 32.2331 50.227 32.9721 50.2275C33.767 50.2281 33.8563 50.2116 34.3458 49.9745C36.2638 49.0449 37.5888 46.4383 37.9953 42.7943C38.058 42.2327 38.1205 41.9642 38.1887 41.9642C38.244 41.9642 38.5743 42.0182 38.9227 42.0842C39.6903 42.2297 40.4109 42.1793 41.3565 41.914C41.9864 41.7372 43.0763 41.252 43.4342 40.989C43.5841 40.8788 43.6238 40.8969 44.0058 41.2505C44.521 41.7274 44.9525 41.9442 45.686 42.0948C46.5904 42.2805 47.4854 42.1107 48.8453 41.4955C49.707 41.1057 52.6883 39.443 52.7339 39.3268C52.7535 39.2766 52.7601 37.8423 52.7485 36.1395L52.7273 33.0434L51.5232 34.3441C50.1558 35.8211 49.3654 36.4514 48.1214 37.0567C47.1885 37.5105 47.0348 37.5597 46.8689 37.4571C46.7664 37.3938 46.749 37.0972 46.7562 35.5346L46.7646 33.6869L47.0794 33.2829L47.3942 32.8789L49.1477 32.8744C51.3682 32.8687 51.618 32.82 52.1594 32.2868C52.6173 31.8359 52.7677 31.4718 52.7677 30.8138C52.7677 30.2631 52.6359 29.8571 52.345 29.5117C52.001 29.1033 51.7481 29.0058 50.8771 28.9459C50.4503 28.9166 50.1012 28.8796 50.1012 28.8639C50.1012 28.8482 50.2453 28.5051 50.4215 28.1015C51.2374 26.2326 51.2835 24.5101 50.5573 23.0266C50.2016 22.2999 49.7471 21.8108 49.117 21.4765C48.6427 21.2248 48.5542 21.2055 47.8773 21.2055C47.2172 21.2055 47.0976 21.2299 46.6114 21.4641C46.2159 21.6547 45.9183 21.8859 45.4818 22.3417C44.2979 23.5781 43.675 24.9018 42.6209 28.4216C42.5998 28.4921 42.361 28.5204 41.7879 28.5204C40.4641 28.5204 39.6283 28.8656 39.3173 29.5407L39.1679 29.8648L38.4327 29.8658C38.0283 29.8662 37.5157 29.9142 37.2935 29.9721C36.2657 30.2403 35.2477 30.9753 34.6991 31.8452L34.4042 32.3128L33.9903 31.9486C32.9505 31.0336 31.5928 30.3105 30.3811 30.0262C29.5271 29.8259 28.1278 29.8095 27.2896 29.9901C26.5285 30.1541 25.379 30.7036 24.7578 31.2005L24.2622 31.5969L23.8286 31.2781C23.1769 30.7988 21.8769 30.2082 21.0516 30.0166C20.0741 29.7896 18.3483 29.8304 17.5366 30.0996C15.2449 30.8597 13.7265 32.6317 13.2959 35.0484C13.2284 35.4274 13.1731 35.9108 13.1731 36.1226C13.1731 36.4122 13.143 36.5076 13.0519 36.5076C12.9851 36.5076 11.9852 36.7745 10.8297 37.1007C9.6743 37.4269 8.67433 37.6938 8.60759 37.6938C8.52848 37.6938 8.48638 37.6163 8.48638 37.4708C8.48638 37.2798 8.61098 37.1558 9.35504 36.6065C13.2138 33.7579 16.0929 29.6835 16.7732 26.1085C16.9457 25.2024 16.9019 23.542 16.6898 22.9452C16.1641 21.466 15.2555 20.6266 13.9092 20.3768C13.3786 20.2782 13.209 20.2823 12.4844 20.4112ZM15.5733 23.2936C15.2943 22.4235 14.7833 21.85 14.0665 21.6024C12.1076 20.9261 9.1822 22.9807 7.27406 26.3729C5.97479 28.6827 5.12415 31.427 4.7699 34.4515C4.7164 34.9082 4.66106 35.3216 4.64683 35.3703C4.62049 35.4603 3.79167 36.041 2.26049 37.0423C1.79165 37.3489 1.35838 37.6583 1.29753 37.73C1.1457 37.9091 1.15628 38.7021 1.31458 39.0003C1.50577 39.3607 1.85864 39.6708 2.07738 39.6708C2.33588 39.6708 2.62702 39.5192 3.61786 38.8685C4.07336 38.5693 4.4487 38.3695 4.45185 38.4244C4.52231 39.6456 4.81289 40.4161 5.4085 40.9614C6.16573 41.6545 7.3665 41.7357 9.69846 41.2514C11.0701 40.9664 13.7503 40.0765 14.0502 39.8063C14.469 39.4289 14.5929 38.6743 14.3183 38.1732C14.1626 37.8889 13.736 37.6147 13.4495 37.6147C13.3557 37.6147 12.3188 37.8857 11.1453 38.2168C8.92402 38.8435 7.98563 38.9961 7.49651 38.8102L7.2743 38.7258V37.7303C7.2743 37.644 7.27364 37.565 7.27303 37.4924C7.27018 37.1532 7.26849 36.9509 7.34059 36.7784C7.44718 36.5232 7.71505 36.3331 8.37895 35.8619C8.47521 35.7935 8.57979 35.7193 8.69341 35.6381C11.9811 33.2888 14.6781 29.6471 15.5193 26.4215C15.7612 25.4935 15.7877 23.9622 15.5733 23.2936ZM49.7847 24.2105C49.4589 23.2288 48.9009 22.5545 48.2582 22.366C47.8755 22.2538 47.7121 22.2561 47.3942 22.3781C46.9005 22.5675 46.6339 22.7537 46.2455 23.1801C45.2145 24.3121 44.3124 26.4404 43.6046 29.4101L43.5528 29.6276H42.5079C41.34 29.6276 40.7048 29.7291 40.4768 29.9522C40.2649 30.1596 40.281 30.542 40.5112 30.7673C40.7003 30.9523 40.7937 30.9744 42.4025 31.2162C42.7681 31.2712 43.109 31.3414 43.1601 31.3723C43.2296 31.4144 43.2301 31.6165 43.1619 32.1824C43.0432 33.168 43.0461 35.1088 43.1681 36.2544L43.2652 37.1654L42.9055 37.4735C41.8281 38.3965 40.3121 38.979 38.6949 39.0913C38.0997 39.1327 37.9803 39.1217 37.9803 39.0257C37.9803 38.9624 38.1349 38.8444 38.3238 38.7636C39.4344 38.2886 40.6934 37.1363 41.1666 36.1616C41.5404 35.3915 41.6448 34.8598 41.5971 33.969C41.5121 32.3808 40.8599 31.4783 39.5379 31.1196C38.6429 30.8767 37.6687 30.9537 36.9346 31.3254C36.2177 31.6883 35.4567 32.6474 35.1127 33.6212C35.0359 33.8386 34.9374 34.1118 34.8937 34.2282L34.8143 34.4398L34.2139 33.7932C32.8079 32.2791 31.3979 31.399 29.8765 31.0857C28.184 30.7373 26.4265 31.2077 25.2874 32.314C24.9948 32.5979 24.6858 32.9276 24.6005 33.0465L24.4454 33.2625L23.9202 32.8219C21.6644 30.9292 19.3127 30.4733 17.1326 31.5057C16.3045 31.8978 15.4305 32.7561 15.0184 33.5816C14.4429 34.7343 14.234 35.9006 14.3811 37.1388C14.547 38.536 14.9176 39.4114 15.6439 40.1222C16.2596 40.7248 16.8265 40.9656 17.7144 41.0019C18.8289 41.0475 19.6538 40.713 20.5556 39.8499C22.0311 38.4375 22.6074 35.8997 21.8984 33.9375L21.8815 33.8907C21.718 33.4384 21.643 33.2311 21.6948 33.1939C21.7387 33.1624 21.8733 33.2528 22.1218 33.4196L22.1519 33.4399C22.4357 33.6303 22.9334 33.9802 23.2581 34.2176C23.8053 34.6176 23.8452 34.6666 23.8038 34.8865C23.3872 37.0942 23.7891 38.9654 24.9241 40.1031C25.5423 40.7228 26.1036 40.965 27.0068 41.0019C28.1002 41.0466 28.9675 40.7039 29.8125 39.8932C31.3771 38.3921 31.9498 35.7616 31.1449 33.7732C31.0379 33.5087 30.9503 33.2496 30.9503 33.1974C30.9503 33.0311 32.6641 34.2429 33.8453 35.2443L34.5182 35.8148L34.4671 36.2205C34.439 36.4436 34.3836 36.8042 34.3441 37.0216C34.3046 37.2391 34.2478 37.6101 34.2179 37.8459C34.1789 38.1538 34.0681 38.4216 33.8256 38.7949C32.7768 40.4088 31.7038 42.5004 31.2056 43.9017C30.8797 44.8185 30.8028 45.9768 30.9981 47.0273C31.5303 49.8889 34.2075 49.8388 35.6574 46.9401C36.4134 45.4286 36.7886 43.8445 36.8967 41.7072C36.9375 40.9013 36.9786 40.6198 37.0557 40.6198C37.1129 40.6198 37.6079 40.6998 38.1559 40.7977C39.5787 41.0519 40.4881 41.031 41.3471 40.7245C42.1057 40.4538 42.7155 40.1101 43.4054 39.5641C43.6719 39.3532 43.9013 39.193 43.915 39.2082C43.9288 39.2235 44.0135 39.3782 44.1033 39.5522C44.736 40.7781 45.9798 41.2846 47.3183 40.8613C48.0864 40.6185 50.5953 39.3463 51.4142 38.7845L51.6365 38.632V37.3768C51.6365 36.6253 51.604 36.1019 51.5556 36.0727C51.5112 36.0458 51.4748 36.0537 51.4748 36.0901C51.4748 36.1868 50.3297 37.114 49.7931 37.4518C47.534 38.8742 46.3267 39.0057 45.7424 37.8933C45.5375 37.5032 45.5358 37.4841 45.5531 35.7976L45.5547 35.6366C45.5709 34.0404 45.5761 33.5338 45.7792 33.1212C45.8736 32.9294 46.0108 32.7578 46.2118 32.5066L46.2555 32.4519L46.8375 31.7232L48.9339 31.7039C51.1832 31.6831 51.3184 31.6607 51.5221 31.2752C51.719 30.9028 51.62 30.2526 51.3512 30.1516C51.2952 30.1306 50.5547 30.0879 49.7056 30.0567C48.7624 30.022 48.1618 29.969 48.1618 29.9204C48.1618 29.8766 48.3208 29.5704 48.515 29.2399C49.0781 28.2819 49.3371 27.742 49.6188 26.9388C49.8492 26.2823 49.8829 26.0829 49.8861 25.3572C49.8881 24.8811 49.8449 24.3919 49.7847 24.2105Z" fill="#1E6AA5"/>
<path fill-rule="evenodd" clip-rule="evenodd" d="M12.0004 23.9232C11.3402 24.2167 10.1977 25.6504 9.43439 27.1431C8.83392 28.3174 8.17738 30.1891 7.87428 31.5912C7.70952 32.3531 7.52415 33.6873 7.57578 33.7398C7.63703 33.8021 8.74367 32.6122 9.67163 31.486C11.1614 29.6782 12.2193 27.9974 12.7117 26.656C13.0742 25.6685 13.1 24.2995 12.7628 23.9453C12.5667 23.7394 12.4231 23.7353 12.0004 23.9232ZM9.74105 29.4694C9.91607 29.4694 11.3992 26.9118 11.633 26.2066C11.8148 25.6586 11.6731 25.7226 11.2393 26.3844C10.6849 27.2301 9.59737 29.4694 9.74105 29.4694Z" fill="#1E6AA5"/>
<path fill-rule="evenodd" clip-rule="evenodd" d="M18.4658 33.1336C17.8845 33.3919 17.2004 34.4942 16.9288 35.6109C16.721 36.4649 16.7828 37.7693 17.0534 38.2404C17.3309 38.7234 17.6031 38.8989 18.1432 38.9427C18.5925 38.9791 18.5969 38.9773 18.9527 38.614C19.7305 37.8195 20.1919 36.3365 20.0977 34.9334C20.042 34.1033 19.9262 33.7389 19.6027 33.3749C19.3152 33.0515 18.8657 32.9561 18.4658 33.1336ZM18.7869 36.3922C18.8548 36.1329 18.9103 35.5923 18.9103 35.1908C18.9103 34.7893 18.8745 34.4392 18.8307 34.4128C18.645 34.3004 18.1584 35.3934 18.0053 36.2669C17.9063 36.8324 17.9871 37.6869 18.1426 37.7175C18.257 37.74 18.6407 36.9509 18.7869 36.3922Z" fill="#1E6AA5"/>
<path fill-rule="evenodd" clip-rule="evenodd" d="M27.7533 33.1356C27.1839 33.3878 26.4931 34.5077 26.2249 35.6131C26.0186 36.4634 26.0748 37.6816 26.3444 38.2037C26.6072 38.7129 26.8765 38.8973 27.4215 38.9415C27.8348 38.9751 27.8772 38.9609 28.1909 38.6835C28.3744 38.5212 28.6473 38.1465 28.8012 37.8456C29.6016 36.2799 29.6143 33.9913 28.8266 33.2786C28.577 33.0527 28.0877 32.9876 27.7533 33.1356ZM27.754 37.307C28.055 36.7257 28.2199 35.9875 28.2211 35.2161C28.2222 34.4506 28.1325 34.2415 27.9318 34.5419C27.3983 35.3403 27.1075 36.7335 27.3189 37.4784C27.42 37.8348 27.4962 37.8048 27.754 37.307Z" fill="#1E6AA5"/>
<path d="M38.1016 33.098C37.4097 33.4095 36.9929 34.377 36.7699 36.1892C36.6816 36.9063 36.6586 38.0101 36.7319 38.0101C36.8549 38.0101 37.2948 37.7321 37.7213 37.3848C39.2216 36.1628 39.9651 33.912 39.1147 33.1664C38.824 32.9116 38.5559 32.8934 38.1016 33.098Z" fill="#1E6AA5"/>
<path d="M34.2376 41.2952C33.8564 42.0775 33.4757 43.2317 33.1217 44.6777C32.8843 45.6476 32.9347 46.1357 33.3131 46.5311C33.6176 46.8492 33.8973 46.7151 34.0965 46.1555C34.1507 46.0032 34.2261 45.1492 34.2642 44.2575C34.3023 43.3659 34.3592 42.2716 34.3907 41.8258C34.4222 41.38 34.4314 41.0152 34.411 41.0152C34.3906 41.0152 34.3127 41.1412 34.2376 41.2952Z" fill="#1E6AA5"/>
<path d="M47.3203 24.8477C47.1107 25.0528 46.7884 25.7211 46.501 26.5463C46.1705 27.4954 45.6349 29.6079 45.699 29.7094C45.7255 29.7514 45.8658 29.7857 46.0108 29.7857C46.2572 29.7857 46.2986 29.743 46.6449 29.1333C47.8783 26.9616 48.3669 25.5241 48.063 24.9618C47.9303 24.7164 47.5191 24.6531 47.3203 24.8477Z" fill="#1E6AA5"/>
<defs>
<clipPath id="clip0_4655_13324">
<rect width="39.8227" height="35.4328" fill="white" transform="translate(6.47266 0.227539)"/>
</clipPath>
</defs>
</svg>
