<svg width="20" height="32" viewBox="0 0 20 32" fill="none" xmlns="http://www.w3.org/2000/svg">
<path fill-rule="evenodd" clip-rule="evenodd" d="M10 7C10.5523 7 11 7.44772 11 8V12C11 12.5523 10.5523 13 10 13C9.44771 13 9 12.5523 9 12V8C9 7.44772 9.44771 7 10 7ZM12 2H8C4.68629 2 2 4.68629 2 8V22C2 26.4183 5.58172 30 10 30C14.4183 30 18 26.4183 18 22V8C18 4.68629 15.3137 2 12 2ZM8 0C3.58172 0 0 3.58172 0 8V22C0 27.5228 4.47715 32 10 32C15.5228 32 20 27.5228 20 22V8C20 3.58172 16.4183 0 12 0H8Z" fill="#AEAEB0"/>
</svg>
