<svg width="48" height="44" viewBox="0 0 48 44" fill="none" xmlns="http://www.w3.org/2000/svg">
<path fill-rule="evenodd" clip-rule="evenodd" d="M24 7C24.5523 7 25 7.44772 25 8V12C25 12.5523 24.5523 13 24 13C23.4477 13 23 12.5523 23 12V8C23 7.44772 23.4477 7 24 7ZM26 2H22C18.6863 2 16 4.68629 16 8V22C16 26.4183 19.5817 30 24 30C28.4183 30 32 26.4183 32 22V8C32 4.68629 29.3137 2 26 2ZM22 0C17.5817 0 14 3.58172 14 8V22C14 27.5228 18.4772 32 24 32C29.5228 32 34 27.5228 34 22V8C34 3.58172 30.4183 0 26 0H22Z" fill="#AEAEB0"/>
<path d="M3.39923 39.7587C3.37612 39.5287 3.27697 39.3501 3.10176 39.2228C2.92655 39.0955 2.68877 39.0318 2.38841 39.0318C2.18432 39.0318 2.012 39.0603 1.87145 39.1173C1.7309 39.1724 1.62308 39.2494 1.54799 39.3482C1.47483 39.447 1.43825 39.5591 1.43825 39.6846C1.43439 39.7891 1.45654 39.8803 1.50467 39.9582C1.55473 40.0361 1.62308 40.1036 1.70972 40.1606C1.79636 40.2157 1.89648 40.2641 2.01008 40.3059C2.12367 40.3458 2.24497 40.38 2.37397 40.4086L2.90537 40.534C3.16337 40.591 3.40019 40.667 3.61583 40.762C3.83147 40.857 4.01823 40.9739 4.17611 41.1126C4.33399 41.2513 4.45625 41.4147 4.54289 41.6029C4.63146 41.791 4.6767 42.0067 4.67863 42.2499C4.6767 42.6071 4.58429 42.9169 4.40138 43.1791C4.22039 43.4394 3.95854 43.6418 3.61583 43.7862C3.27504 43.9287 2.86398 44 2.38264 44C1.90515 44 1.48927 43.9278 1.135 43.7834C0.78266 43.639 0.507333 43.4252 0.309021 43.142C0.112634 42.857 0.00962682 42.5045 0 42.0846H1.21009C1.22357 42.2803 1.28037 42.4437 1.38048 42.5748C1.48253 42.704 1.61827 42.8019 1.7877 42.8684C1.95906 42.933 2.15255 42.9653 2.3682 42.9653C2.57999 42.9653 2.76386 42.9349 2.91981 42.8741C3.07769 42.8133 3.19995 42.7287 3.28659 42.6204C3.37323 42.5121 3.41656 42.3876 3.41656 42.247C3.41656 42.1159 3.37709 42.0057 3.29815 41.9164C3.22113 41.8271 3.10753 41.7511 2.95736 41.6884C2.8091 41.6257 2.62716 41.5686 2.41152 41.5173L1.76748 41.3577C1.26881 41.238 0.875077 41.0508 0.586273 40.7962C0.297468 40.5416 0.154029 40.1986 0.155954 39.7672C0.154029 39.4138 0.249334 39.105 0.441871 38.8409C0.636332 38.5767 0.902995 38.3705 1.24186 38.2223C1.58072 38.0741 1.96579 38 2.39708 38C2.83606 38 3.21921 38.0741 3.54652 38.2223C3.87575 38.3705 4.13183 38.5767 4.31474 38.8409C4.49765 39.105 4.59199 39.4109 4.59776 39.7587H3.39923Z" fill="#AEAEB0"/>
<path d="M13.9916 40.1235H12.7266C12.7035 39.962 12.6563 39.8185 12.5851 39.6931C12.5138 39.5658 12.4224 39.4575 12.3107 39.3682C12.199 39.2789 12.07 39.2105 11.9237 39.1629C11.7793 39.1154 11.6224 39.0917 11.453 39.0917C11.1468 39.0917 10.8802 39.1667 10.653 39.3169C10.4258 39.4651 10.2496 39.6817 10.1245 39.9667C9.99932 40.2499 9.93675 40.5938 9.93675 40.9986C9.93675 41.4147 9.99932 41.7644 10.1245 42.0475C10.2515 42.3306 10.4287 42.5444 10.6559 42.6888C10.8831 42.8333 11.1459 42.9055 11.4443 42.9055C11.6118 42.9055 11.7668 42.8836 11.9093 42.8399C12.0537 42.7962 12.1817 42.7325 12.2934 42.6489C12.4051 42.5634 12.4975 42.4599 12.5706 42.3382C12.6457 42.2166 12.6977 42.0779 12.7266 41.9221L13.9916 41.9278C13.9588 42.1957 13.877 42.4542 13.7461 42.7031C13.6171 42.9501 13.4428 43.1715 13.2233 43.3672C13.0058 43.561 12.7458 43.715 12.4436 43.829C12.1432 43.9411 11.8034 43.9971 11.4241 43.9971C10.8965 43.9971 10.4248 43.8793 10.0089 43.6437C9.59499 43.4081 9.26768 43.067 9.02701 42.6204C8.78827 42.1739 8.66889 41.6333 8.66889 40.9986C8.66889 40.362 8.79019 39.8204 9.03279 39.3739C9.27538 38.9273 9.60462 38.5872 10.0205 38.3534C10.4364 38.1178 10.9042 38 11.4241 38C11.7668 38 12.0845 38.0475 12.3771 38.1425C12.6717 38.2375 12.9326 38.3762 13.1598 38.5587C13.387 38.7392 13.5718 38.9606 13.7143 39.2228C13.8587 39.485 13.9511 39.7853 13.9916 40.1235Z" fill="#AEAEB0"/>
<path d="M18.1414 43.9173V38.0798H20.4749C20.9216 38.0798 21.3028 38.1587 21.6186 38.3164C21.9363 38.4722 22.1779 38.6936 22.3435 38.9805C22.511 39.2656 22.5947 39.6009 22.5947 39.9867C22.5947 40.3743 22.51 40.7078 22.3406 40.9872C22.1712 41.2646 21.9257 41.4774 21.6042 41.6257C21.2845 41.7739 20.8975 41.848 20.4432 41.848H18.8807V40.8561H20.241C20.4797 40.8561 20.6781 40.8238 20.8359 40.7591C20.9938 40.6945 21.1113 40.5976 21.1883 40.4684C21.2672 40.3392 21.3067 40.1786 21.3067 39.9867C21.3067 39.7929 21.2672 39.6295 21.1883 39.4964C21.1113 39.3634 20.9928 39.2627 20.833 39.1943C20.6752 39.124 20.4759 39.0888 20.2352 39.0888H19.3919V43.9173H18.1414ZM21.3356 41.2608L22.8056 43.9173H21.4251L19.9868 41.2608H21.3356Z" fill="#AEAEB0"/>
<path d="M32.1669 40.9986C32.1669 41.6352 32.0446 42.1767 31.8001 42.6233C31.5575 43.0698 31.2263 43.4109 30.8066 43.6466C30.3888 43.8803 29.919 43.9971 29.3972 43.9971C28.8716 43.9971 28.3999 43.8793 27.9821 43.6437C27.5643 43.4081 27.2341 43.067 26.9915 42.6204C26.7489 42.1739 26.6276 41.6333 26.6276 40.9986C26.6276 40.362 26.7489 39.8204 26.9915 39.3739C27.2341 38.9273 27.5643 38.5872 27.9821 38.3534C28.3999 38.1178 28.8716 38 29.3972 38C29.919 38 30.3888 38.1178 30.8066 38.3534C31.2263 38.5872 31.5575 38.9273 31.8001 39.3739C32.0446 39.8204 32.1669 40.362 32.1669 40.9986ZM30.899 40.9986C30.899 40.5862 30.8365 40.2385 30.7113 39.9553C30.5881 39.6722 30.4138 39.4575 30.1886 39.3112C29.9633 39.1648 29.6995 39.0917 29.3972 39.0917C29.095 39.0917 28.8312 39.1648 28.6059 39.3112C28.3807 39.4575 28.2054 39.6722 28.0803 39.9553C27.9571 40.2385 27.8955 40.5862 27.8955 40.9986C27.8955 41.4109 27.9571 41.7587 28.0803 42.0418C28.2054 42.3249 28.3807 42.5397 28.6059 42.686C28.8312 42.8323 29.095 42.9055 29.3972 42.9055C29.6995 42.9055 29.9633 42.8323 30.1886 42.686C30.4138 42.5397 30.5881 42.3249 30.7113 42.0418C30.8365 41.7587 30.899 41.4109 30.899 40.9986Z" fill="#AEAEB0"/>
<path d="M36.3463 43.9173V38.0798H37.5968V42.8998H40.1325V43.9173H36.3463Z" fill="#AEAEB0"/>
<path d="M44.2138 43.9173V38.0798H45.4643V42.8998H48V43.9173H44.2138Z" fill="#AEAEB0"/>
</svg>
