<svg width="275" height="400" viewBox="0 0 275 400" fill="none" xmlns="http://www.w3.org/2000/svg">
<g clip-path="url(#clip0_4379_8190)">
<path d="M233.284 248.761H153.557V346.941H233.284V248.761Z" fill="#CF4520"/>
<path d="M204.15 284.867C205.461 286.077 205.534 288.11 204.312 289.407L199.516 294.498C199.416 294.604 199.408 294.766 199.496 294.882L206.26 303.763C206.314 303.834 206.397 303.878 206.487 303.883L211.464 304.144C211.722 304.158 211.879 303.869 211.723 303.665L205.265 295.184C205.176 295.068 205.185 294.906 205.285 294.8L207.55 292.395C210.437 289.33 210.265 284.526 207.166 281.665C205.792 280.397 204.074 279.723 202.335 279.633L192.366 279.111C192.108 279.097 191.951 279.386 192.107 279.59L195.109 283.532C195.163 283.604 195.246 283.648 195.337 283.652L202.106 284.007C202.212 284.013 202.317 284.023 202.423 284.039C203.048 284.132 203.652 284.407 204.15 284.867Z" fill="#6A2310" fill-opacity="0.6"/>
<path d="M196.94 294.366C196.84 294.472 196.832 294.634 196.92 294.75L203.374 303.224C203.529 303.428 203.373 303.717 203.115 303.704L198.139 303.444C198.049 303.439 197.966 303.396 197.911 303.324L194.207 298.459C194.036 298.235 193.674 298.343 193.659 298.623L193.435 302.897C193.426 303.062 193.283 303.189 193.115 303.18L189.304 302.98C189.136 302.971 189.007 302.83 189.016 302.664L190.144 281.146C190.158 280.866 190.52 280.758 190.691 280.982L194.267 285.677C194.309 285.733 194.331 285.803 194.327 285.873L194.103 290.16C194.088 290.44 194.437 290.585 194.63 290.38L198.862 285.888C198.923 285.823 199.011 285.788 199.101 285.792L202.002 285.944C202.674 285.98 203.237 286.572 203.2 287.281C203.178 287.693 202.947 287.977 202.881 288.05L196.94 294.366Z" fill="#6A2310" fill-opacity="0.6"/>
<path fill-rule="evenodd" clip-rule="evenodd" d="M169.642 149.544C160.47 143.243 138.894 146.186 130.299 152.73C127.253 155.229 127.07 157.61 126.876 160.14C126.83 160.737 126.784 161.341 126.699 161.958L126.665 162.195C126.485 163.367 126.036 164.583 125.563 165.867C124.917 167.619 124.225 169.497 124.105 171.561C123.227 171.046 122.369 170.453 121.546 169.885C119.772 168.661 118.161 167.549 116.868 167.566C113.353 167.612 111.12 170.653 108.662 174.001C107.113 176.112 105.474 178.344 103.368 180.026C99.318 182.546 94.3382 183.125 89.5766 183.679C88.6432 183.787 87.7181 183.895 86.8101 184.016L86.2844 184.088C67.3381 186.78 50.8498 198.746 39.6033 213.859C17.9116 244.759 12.6682 283.307 7.61758 320.438C6.61529 327.807 5.62059 335.12 4.50644 342.306C4.37555 343.838 4.20712 345.442 4.03377 347.093C2.77396 359.09 1.25394 373.565 11.9918 380.902C11.8455 380.945 11.4678 380.93 11.0344 380.912C10.0146 380.87 8.68618 380.815 9.3378 381.479C22.6109 385.51 36.7613 384.625 50.072 381.109L268.421 384.231C273.287 355.573 266.555 327.543 259.858 299.656C257.273 288.89 254.692 278.146 252.786 267.396C247.614 229.357 241.089 195.851 198.112 189.01C197.7 188.034 197.449 186.614 197.193 185.164C196.833 183.133 196.463 181.043 195.627 180.026C194.473 176.33 187.895 173.64 183.911 175.518C182.764 172.96 181.855 170.341 180.959 167.756C178.557 160.831 176.24 154.152 169.642 149.544ZM178.67 264.838C179.384 264.368 210.583 260.152 222.661 268.542C225.35 270.41 224.571 283.68 223.695 296.007L223.34 300.966C222.741 302.135 221.931 304.276 221.011 306.707C219.47 310.778 217.621 315.665 215.939 318.166C210.902 325.657 195.798 329.109 187.129 325.782L187.108 325.775C182.924 324.375 176.648 322.276 174.559 318.166C172.565 313.562 174.818 308.942 177.097 304.268C178.426 301.542 179.764 298.798 180.273 296.028C180.49 294.849 179.861 293.554 179.239 292.273C178.746 291.257 178.257 290.25 178.199 289.317C178.203 288.831 178.244 288.237 178.287 287.598C178.391 286.065 178.512 284.28 178.199 283.138C177.734 281.446 177.03 279.916 176.35 278.435C175.026 275.555 173.788 272.861 174.559 269.533C172.617 270.271 171.37 268.202 173.052 267.653C173.891 267.534 174.73 267.418 175.569 267.307C176.193 266.321 176.724 266.009 177.584 265.505C177.896 265.322 178.251 265.113 178.67 264.838Z" fill="#E7A87E"/>
<path fill-rule="evenodd" clip-rule="evenodd" d="M116.421 167.588L119.878 169.709L139.952 179.633C143.843 180.722 145.789 182.028 145.789 183.55V199.05C145.789 201.124 149.441 205.825 156.745 213.152L163.493 206.426L163.342 205.545C162.7 201.75 162.379 199.211 162.379 197.929C162.379 196.55 168.981 191.315 182.184 182.225L187.96 176.787L187.344 174.914C190.906 175.082 194.768 177.275 195.627 180.026C197.06 181.769 197.124 186.667 198.112 189.01C241.089 195.851 247.614 229.357 252.786 267.396C259.63 305.996 275.165 344.511 268.421 384.231C269.3 385.502 269.992 386.738 270.633 388.206C272.168 390.818 270.191 394.515 267.095 394.372C263.087 394.02 259.119 393.539 255.093 393.389C243.931 393.002 232.759 393.048 221.593 393.19L220.07 393.21C163.797 393.91 107.526 395.291 51.2505 395.657C49.209 395.66 48.2094 393.829 48.482 392.022C49.031 388.386 49.5404 384.748 50.072 381.109C36.7613 384.625 22.6109 385.51 9.3378 381.479C8.40926 380.533 11.5012 381.046 11.9918 380.902C-0.22361 372.555 3.42437 354.971 4.50644 342.306C11.2349 298.908 13.6069 250.891 39.6033 213.859C50.8498 198.746 67.3381 186.78 86.2844 184.088L86.8101 184.016L87.3395 183.947C92.7406 183.26 98.6778 182.944 103.368 180.026C108.672 175.792 111.012 168.063 116.421 167.588ZM164.521 258.563C162.553 258.563 158.52 261.621 152.425 267.736L151.888 267.984C144.519 271.407 139.637 274.376 137.243 276.891L137.157 276.982C134.739 279.577 129.949 286.477 122.787 297.683L112.417 303.816H108.493L105.699 324.08L112.417 338.549L127.633 333.424L152.425 326.889L166.651 312.456L174.676 309.762C173.702 312.575 173.349 315.374 174.559 318.166C176.652 322.283 182.945 324.382 187.129 325.782C195.798 329.109 210.902 325.657 215.939 318.166C218.626 314.171 221.738 304.092 223.34 300.966L223.799 294.524C224.627 282.637 225.242 270.335 222.661 268.542C210.583 260.152 179.384 264.368 178.67 264.838C177.097 265.872 176.42 265.964 175.569 267.307L175.129 267.366L177.605 264.008L176.728 263.54C170.473 260.222 166.404 258.563 164.521 258.563ZM174.559 269.533C173.441 274.357 176.545 277.848 178.013 282.508L174.262 275.328L174.262 269.626C174.359 269.602 174.458 269.571 174.559 269.533Z" fill="url(#paint0_linear_4379_8190)"/>
<path fill-rule="evenodd" clip-rule="evenodd" d="M114.762 166.839C115.596 166.1 116.83 167.028 116.3 168.026C115.11 170.267 113.888 172.392 112.29 174.373C111.321 175.575 110.283 176.711 109.232 177.835C111.931 180.17 114.246 183.069 116.432 185.786C119.227 189.261 121.87 192.883 125.008 196.063C128.103 199.199 131.525 201.391 135.662 202.853L136.498 203.143C140.654 204.602 145.096 206.573 147.439 210.508C147.901 211.284 146.971 212.243 146.189 211.759C142.118 209.238 137.334 208.731 132.903 207.065C128.623 205.457 124.891 202.981 121.594 199.82C118.303 196.665 115.539 193.076 112.656 189.562C109.805 186.088 106.736 183.121 103.364 180.181C98.1608 183.682 92.2213 185.205 86.1818 186.701L85.5226 186.864C79.4758 188.361 73.4615 190.1 67.7886 192.707C62.787 195.005 57.8676 197.749 53.7934 201.489C49.4686 205.458 46.1027 210.527 43.0218 215.485C36.1304 226.576 31.2855 238.726 27.0202 251.025C22.584 263.817 18.8734 276.865 15.8779 290.068C14.3543 296.784 13.117 303.547 12.1 310.358C11.6105 313.639 11.1757 316.926 10.7937 320.221C10.3861 323.739 10.2924 327.358 9.21312 330.741C8.75042 332.191 7.6579 332.792 6.56435 332.741L6.34223 335.519C6.0477 339.223 5.77313 342.927 5.68038 346.654C5.52652 352.85 5.59628 359.029 6.042 365.212L6.10513 366.056C6.45537 370.568 7.23803 375.639 10.6315 378.943C14.1458 382.366 19.5502 383.442 24.2869 383.504C35.3189 383.647 45.9383 378.435 55.7006 373.862C65.7547 369.152 75.534 363.925 85.0791 358.255C89.94 355.368 94.7484 352.385 99.4955 349.314C101.825 347.807 104.138 346.275 106.434 344.717C107.749 343.825 108.995 342.847 110.334 342.056C109.678 341.445 109.385 340.485 109.934 339.647C106.065 336.288 104.454 330.293 104.266 325.443C104.113 321.528 104.69 317.624 105.144 313.746C105.374 311.791 105.657 309.839 105.951 307.892C106.068 307.123 106.156 306.3 106.292 305.488C95.843 311.23 85.101 316.344 74.0746 320.887C68.4226 323.216 62.6982 325.31 56.8948 327.228L55.7185 327.615C50.2198 329.415 44.5895 331.116 38.9049 332.145C38.601 332.2 38.3541 331.751 38.6786 331.608C44.2185 329.163 49.9501 327.102 55.5732 324.85L56.4972 324.474C56.391 324.468 56.281 324.454 56.1661 324.426C52.8684 323.63 49.5964 322.404 46.362 321.371C43.3602 320.412 39.9877 319.811 37.1819 318.364C36.966 318.252 37.0868 317.952 37.2971 317.938C40.4507 317.719 43.8741 318.638 46.9661 319.179L48.1276 319.382C50.0735 319.726 52.0625 320.094 53.9988 320.575C54.0688 319.927 54.4313 319.275 54.9469 318.893C60.6208 314.692 60.0446 306.205 60.6514 299.947L61.1014 295.301C61.8929 287.169 62.7302 279.039 64.0024 270.969C64.0703 270.538 64.737 270.661 64.7398 271.068C64.8054 281.072 64.0502 291.031 63.6717 301.019L63.6131 302.658C63.4038 308.821 63.2398 315.221 59.358 319.963C59.9008 319.646 60.6347 319.646 61.0744 320.169C61.6148 320.812 61.9267 321.534 61.917 322.243C65.4246 320.772 68.917 319.263 72.3923 317.724C83.5656 312.774 94.5047 307.234 105.154 301.24C106.301 300.595 107.39 301.102 107.957 301.953L108.039 301.941C108.052 301.939 108.066 301.938 108.08 301.937L108.161 301.934C108.165 301.934 108.168 301.934 108.171 301.934C109.67 301.11 111.712 301.697 112.998 302.898C113.036 302.935 113.069 302.974 113.102 303.012C114.731 302.281 116.252 301.294 117.632 300.043C120.456 297.483 122.848 294.318 124.934 291.144C128.774 285.299 132.037 278.798 137.224 273.987C141.44 270.077 146.665 267.643 152.148 266.115C152.125 265.955 152.186 265.784 152.297 265.671C152.578 265.382 152.779 265.282 153.143 265.457C153.172 265.472 153.189 265.491 153.201 265.512L153.736 264.598C154.028 264.102 154.328 263.602 154.432 263.471C155.055 262.688 155.695 261.91 156.346 261.148C157.448 259.859 158.705 258.587 160.16 257.693C163.345 255.736 166.694 256.843 169.969 257.913C171.948 258.559 173.92 259.227 175.896 259.883L176.1 259.95C177.573 260.423 179.296 260.837 179.955 262.397C180.216 263.015 180.256 263.656 180.135 264.278C194.125 260.72 209.664 262.355 223.316 266.531C223.84 266.691 224.363 267.122 224.474 267.688C226.038 275.71 226.735 283.937 226.027 292.096C225.416 299.138 223.856 306.04 220.915 312.487L220.748 312.851C217.985 318.826 213.605 326.192 206.916 328.065C202.877 329.196 198.409 328.529 194.29 328.322C190.287 328.12 186.194 328.091 182.229 327.462C178.697 326.901 175.603 325.318 173.42 322.446C171.537 319.969 170.546 316.975 169.734 313.996C169.362 314.115 168.992 314.24 168.629 314.383C167.094 314.982 165.794 315.949 164.619 317.087C162.137 319.491 160.212 322.41 157.615 324.704C155.264 326.78 152.585 328.395 149.712 329.637C143.758 332.209 137.371 333.237 131.073 334.601L130.634 334.696C125.893 335.737 121.053 337.014 116.868 339.482C116.787 340.209 116.456 340.893 115.925 341.34C116.663 342.034 116.976 343.131 116.327 344.161C114.515 347.036 111.395 348.672 108.593 350.511L108.411 350.631C105.655 352.458 102.875 354.249 100.072 356.004C94.3745 359.571 88.5578 362.942 82.659 366.164C73.1714 371.347 63.4802 376.236 53.6134 380.671C54.2056 383.585 53.9893 386.589 54.4344 389.522L54.5026 389.941C54.6928 391.029 54.4359 391.94 53.6861 392.651L53.6068 392.724L53.6082 392.714L53.5379 392.778L53.5144 392.798L53.5222 392.792C53.4358 392.871 53.3466 392.945 53.2557 393.008L53.1399 393.082C52.4178 393.521 51.488 393.516 50.7487 393.129L50.6642 393.082L50.5222 393.001C49.5452 392.439 48.8716 391.047 49.2768 389.941C50.2729 387.222 50.6492 384.321 51.5691 381.584L50.8393 381.911L49.8775 382.33C39.4753 386.828 27.9206 390.616 16.5867 387.549C11.5788 386.194 6.89823 383.327 4.39255 378.655C1.92691 374.057 1.57841 368.718 1.4475 363.604C1.28595 357.292 1.62436 350.883 2.4568 344.625C3.01559 340.424 3.69136 336.144 4.73374 331.986C4.19758 331.513 3.80347 330.835 3.69937 329.994C3.20743 326.023 4.06842 321.895 4.59552 317.945C5.11045 314.088 5.67933 310.239 6.32273 306.402C7.62169 298.652 9.13095 290.919 10.8881 283.26C14.0152 269.629 18.1447 256.241 23.1164 243.173L23.5518 242.034C28.1458 230.09 33.4651 218.399 40.872 207.906C44.4152 202.885 48.1606 198.334 53.1671 194.716C57.8575 191.326 63.148 188.886 68.6078 187.02C74.0735 185.154 79.6914 183.903 85.4084 183.124C91.2146 182.334 97.3432 181.85 102.759 179.468C102.074 178.24 102.662 176.582 103.815 175.82C107.696 173.256 111.284 169.921 114.762 166.839ZM238.986 278.326C239.149 278.079 239.535 278.235 239.464 278.527C237.576 286.259 235.805 294.007 234.648 301.887C232.559 316.109 232.943 330.517 233.114 344.844L233.123 345.585C233.211 353.302 233.332 361.02 233.588 368.734C233.716 372.633 233.971 376.57 233.833 380.471C233.757 382.587 233.193 384.588 232.993 386.679C232.818 388.507 232.974 390.363 233.062 392.194C233.12 393.411 231.324 393.359 231.201 392.194L231.045 390.687C230.842 388.779 230.591 386.884 229.966 385.058C229.214 382.862 228.854 380.705 228.593 378.4C228.194 374.867 228.016 371.299 227.862 367.741L227.756 365.28C227.113 350.413 227.135 335.475 228.177 320.623L228.254 319.562C229.285 305.523 231.076 290.355 238.986 278.326ZM198.755 189.843C198.262 189.64 198.435 188.895 198.981 189.025L199.974 189.262C207.248 191.004 214.391 192.892 221.181 196.134C227.975 199.378 233.727 204.222 238.298 210.177C247.183 221.754 250.875 235.823 253.79 249.878C257.029 265.497 259.978 281.173 263.246 296.786L263.852 299.695C266.876 314.237 269.73 328.788 271.834 343.502L271.985 344.57C274.106 359.701 275.382 375.356 273.067 390.527C272.609 393.529 267.615 392.781 267.81 389.816C268.374 381.243 268.778 372.715 268.388 364.124C267.997 355.53 267.191 346.974 265.99 338.456C264.978 331.287 263.471 324.208 262.137 317.096L261.928 315.973C260.811 309.924 259.66 303.882 258.511 297.838L256.794 288.791C254.221 275.243 251.597 261.683 248.633 248.22L248.457 247.428C245.556 234.476 241.279 220.909 232.577 210.623C223.746 200.185 211.104 194.929 198.755 189.843ZM166.667 327.225C166.879 326.751 167.622 326.803 167.851 327.225C168.746 328.876 168.845 330.983 169.014 332.847L169.032 333.039C169.247 335.314 169.438 337.596 169.554 339.878C169.775 344.208 169.881 348.533 169.867 352.87C169.854 357.314 169.764 361.752 169.525 366.189L169.46 367.378C169.241 371.235 168.874 375.536 167.042 378.907C166.376 380.132 164.564 379.772 164.179 378.533C162.915 374.475 163.564 369.663 163.888 365.507L164.14 362.264C164.389 359.02 164.627 355.775 164.815 352.528C165.073 348.085 165.286 343.639 165.492 339.194C165.558 337.75 165.63 336.306 165.706 334.862L165.823 332.697C165.923 330.886 165.915 328.899 166.667 327.225ZM24.5678 332.976L25.1273 332.436C26.8448 330.755 29.0151 328.166 31.554 328.327C32.5665 328.391 33.2116 329.231 33.0017 330.227C32.5532 332.357 30.3811 333.462 28.8175 334.762C27.1046 336.185 25.4902 337.707 23.8789 339.244C22.4495 340.606 21.0748 342.007 19.7331 343.452L19.2314 343.996C18.7505 344.52 15.3256 347.618 15.6959 348.422L15.7161 348.458C15.8191 348.612 15.6475 348.823 15.4765 348.769C13.9976 348.302 14.0898 347.035 14.649 345.75C15.7234 343.283 17.6048 341 19.2478 338.892C20.8863 336.79 22.6597 334.832 24.5678 332.976ZM172.026 271.09C170.882 268.387 166.669 268.444 164.278 268.605C158.254 269.012 151.738 270.536 146.379 273.352C140.822 276.27 137.08 280.947 133.731 286.118L133.574 286.36C130.31 291.434 127.167 297.44 122.056 300.929C119.453 302.706 116.413 304.329 113.255 305.032C113.038 305.413 112.686 305.715 112.226 305.824L112.012 305.873C111.112 306.072 109.715 306.292 108.508 306.16C108.516 306.751 108.509 307.337 108.524 307.896C108.567 309.5 108.585 311.11 108.585 312.714C108.586 316.075 108.405 319.444 108.545 322.805C108.669 325.778 109.089 328.884 110.517 331.541C111.564 333.491 112.945 334.781 114.613 336.013C118.717 333.512 123.357 331.988 128.066 330.842C133.761 329.456 139.592 328.531 145.158 326.651C147.837 325.747 150.412 324.562 152.745 322.954C155.222 321.247 157.113 318.936 159.059 316.676L159.364 316.325C161.35 314.047 163.517 311.868 166.324 310.633C168.741 309.569 171.927 309.379 174.041 307.733C175.146 306.872 175.239 305.622 175.355 304.342C174.001 304.536 172.568 304.226 171.219 304.068L170.52 303.986C169.244 303.834 167.998 303.667 166.742 303.343C166.509 303.282 166.509 302.931 166.742 302.871C168.226 302.487 169.697 302.324 171.219 302.146L171.577 302.101C172.953 301.921 174.4 301.648 175.751 301.951C175.993 301.029 176.343 300.149 176.834 299.268C177.523 298.029 178.827 296.625 179.003 295.178C179.055 294.746 178.955 294.237 178.751 293.855L178.681 293.725C178.595 293.571 178.494 293.417 178.346 293.321C178.329 293.34 178.294 293.362 178.219 293.385C177.18 293.713 176.273 293.204 175.792 292.42C173.749 292.673 171.52 292.588 169.604 292.673L167.668 292.766C165.598 292.861 163.435 292.903 161.49 292.485C161.218 292.427 161.136 291.975 161.408 291.858C163.799 290.836 166.699 290.51 169.259 290.117C170.688 289.897 172.128 289.73 173.562 289.537C174.516 289.408 175.53 289.195 176.519 289.144C178.999 286.057 177.662 281.187 174.211 279.858C172.954 280.41 171.824 280.089 170.45 279.971C169.079 279.853 167.704 279.774 166.328 279.78C163.569 279.792 160.646 280.517 157.915 280.205C157.47 280.154 157.058 279.563 157.499 279.202C159.59 277.496 162.587 276.939 165.241 276.576L165.791 276.502C166.681 276.385 167.763 276.215 168.886 276.114C169.14 275.619 169.595 275.244 170.279 275.151C170.482 275.124 170.687 275.107 170.891 275.09L170.888 275.07C172.556 274.99 172.484 272.172 172.026 271.09ZM57.807 323.81C57.7775 323.855 57.7452 323.899 57.7109 323.94L57.658 324.002L57.9323 323.89L57.807 323.81ZM201.14 265.05C194.117 264.296 187.085 264.455 180.042 264.657C179.478 266.5 177.518 268.07 175.618 268.129C177.106 270.394 177.259 273.459 176.216 275.861C178.431 276.743 180.34 278.327 181.498 280.583C183.105 283.711 182.895 287.191 181.307 290.081C182.662 291.308 183.462 293.301 183.382 295.178C183.292 297.273 182.044 299.061 181.007 300.795C179.886 302.67 179.849 304.321 179.505 306.421C179.001 309.495 176.928 311.359 174.261 312.523L174.402 313.081C175.09 315.758 175.946 318.582 177.911 320.539C180.439 323.057 184.361 323.034 187.702 323.193L187.863 323.201C190.922 323.354 193.979 323.533 197.037 323.707L199.33 323.835C202.851 324.028 206.232 324.052 209.106 321.724C213.798 317.925 217.014 311.638 219.051 306.072C223.324 294.389 223.375 281.568 221.413 269.401C214.835 267.281 208.009 265.788 201.14 265.05ZM142.74 284.432L142.792 284.436C144.238 284.601 145.231 285.772 145.585 287.161C146.099 289.179 145.847 291.004 147.083 292.827C148.355 294.701 149.137 296.201 149.322 298.516C149.398 299.468 149.363 300.418 149.575 301.351L149.729 302.004C149.892 302.7 150.025 303.371 149.944 304.119C149.87 304.801 149.538 305.333 148.854 305.551C146.624 306.264 144.903 304.622 144.327 302.544C143.83 300.75 144.494 298.611 143.792 296.926C143.403 295.992 142.686 295.211 142.281 294.271C141.879 293.339 141.678 292.365 141.613 291.352C141.491 289.435 143.186 287.133 142.241 285.397C142.039 285.026 142.267 284.421 142.74 284.432ZM113.129 264.658C114.638 264.351 116.351 263.648 117.84 264.232C118.605 264.533 118.983 265.466 118.336 266.115C117.214 267.24 115.583 267.303 114.071 267.568L113.938 267.592C112.15 267.923 110.359 268.237 108.565 268.534C105.192 269.093 101.81 269.587 98.4157 270.007C94.93 270.438 91.4345 270.822 87.9341 271.111L86.579 271.222C83.6222 271.459 80.5456 271.637 77.6444 271.184C77.2228 271.118 77.2906 270.504 77.6444 270.397C80.8227 269.435 84.3091 269.177 87.595 268.77C91.0884 268.336 94.5759 267.879 98.0543 267.335C101.527 266.793 104.995 266.211 108.451 265.568C110.013 265.277 111.572 264.974 113.129 264.658ZM167.599 261.569C166.275 261.1 164.817 260.405 163.382 260.638C160.906 261.039 158.703 263.451 156.744 265.039L157.728 264.848C162.762 263.88 169.428 262.838 173.654 266.039C173.665 266.02 173.673 266.002 173.685 265.983C174.027 265.465 174.422 265.061 174.853 264.618C174.894 264.579 174.934 264.539 174.973 264.498L175.206 264.25L174.674 264.066C173.534 263.663 172.183 263.142 171.97 263.066L171.955 263.061C170.501 262.569 169.046 262.082 167.599 261.569ZM126.238 156.052C126.031 153.388 130.178 153.41 130.383 156.052C130.831 161.821 129.533 167.535 126.738 172.593C126.718 172.63 126.695 172.663 126.674 172.697C128.421 173.607 130.189 174.479 131.996 175.259C134.307 176.257 136.662 177.166 139.059 177.937C141.228 178.634 143.899 178.91 145.722 180.361C149.566 183.422 148.122 189.775 147.382 193.892L147.267 194.543C146.899 196.661 146.632 198.835 147.526 200.869C148.48 203.041 150.409 204.652 152.13 206.206L152.477 206.522C154.002 207.91 155.744 209.598 156.862 211.481C157.883 209.37 159.275 207.646 160.746 205.704C161.796 204.318 161.049 203.862 160.294 202.508C159.569 201.205 159.214 199.816 159.441 198.33C159.86 195.585 162.054 193.602 164.237 192.113C166.816 190.354 169.694 189.051 172.36 187.415C177.838 184.054 183.173 180.211 187.979 175.943C188.112 175.825 188.342 175.98 188.235 176.141C184.439 181.916 179.987 186.906 174.516 191.142C172.297 192.859 169.967 194.284 167.62 195.781L166.946 196.214C166.004 196.824 164.829 197.64 164.403 198.679C163.974 199.724 164.888 200.513 165.38 201.378C166.942 204.127 166.189 206.691 164.337 209.022L164.251 209.13C162.41 211.397 161.015 213.507 160.348 216.404C158.915 222.628 160.911 229.111 163.001 234.954L163.084 235.184C164.214 238.334 165.416 241.46 166.398 244.66L166.668 245.545C167.558 248.489 168.287 251.393 167.289 254.419C166.949 255.449 165.545 255.692 164.962 254.723C162.905 251.307 162.392 247.195 161.102 243.438C159.845 239.777 158.402 236.182 157.188 232.506C155.625 227.773 154.579 222.678 155.147 217.713C155.13 217.684 155.111 217.657 155.097 217.626L154.7 216.756C153.614 214.399 152.566 212.341 150.593 210.462C148.535 208.502 146.301 206.767 144.681 204.395C141.163 199.242 143.339 193.509 143.764 187.875L143.812 187.184C143.889 186.014 143.932 184.424 143.168 183.615C142.308 182.703 140.292 182.471 139.152 182.067C136.204 181.024 133.299 179.809 130.533 178.349C127.9 176.96 125.349 175.425 122.974 173.627L121.77 172.722C119.87 171.289 117.901 169.724 116.628 167.773C116.481 167.548 116.73 167.186 116.996 167.293C119.122 168.156 121.063 169.527 123.051 170.721C123.082 170.648 123.118 170.575 123.159 170.501C125.619 166.049 126.631 161.116 126.238 156.052ZM194.122 186.556C194.969 184.234 198.828 184.413 198.674 187.172C198.556 189.292 197.656 191.205 196.834 193.129L196.746 193.335C195.896 195.34 194.915 197.223 193.741 199.06C191.498 202.573 188.87 205.833 186.064 208.91C183.52 211.699 180.18 213.405 176.332 213.122C174.711 213.002 173.074 212.59 171.653 211.78C169.966 210.817 168.133 207.928 165.98 208.628C165.772 208.695 165.577 208.39 165.757 208.246C168.243 206.244 171.064 209.348 173.444 210.096C177.029 211.222 180.709 209.977 183.017 207.078C185.427 204.051 187.644 200.663 189.67 197.368C190.698 195.694 191.636 193.958 192.447 192.168C193.265 190.361 193.45 188.398 194.122 186.556ZM188.343 172.267C188.238 171.946 188.636 171.641 188.918 171.824C190.551 172.887 191.967 174.292 193.473 175.524C195.145 176.89 196.828 178.228 198.538 179.546C201.03 181.467 198.14 185.005 195.946 182.906C192.943 180.034 189.655 176.28 188.343 172.267ZM179.376 161.028C180.039 158.47 183.964 159.525 183.392 162.054L183.373 162.131C182.29 166.307 183.832 170.56 187.126 173.267L187.247 173.366C189.33 175.033 186.379 177.948 184.316 176.296C179.812 172.692 177.939 166.57 179.376 161.028Z" fill="black"/>
</g>
<g clip-path="url(#clip1_4379_8190)">
<path d="M94.6995 45.1878L94.6995 45.1897C94.5683 49.6641 98.4967 53.536 103.04 53.9102C103.44 53.9431 103.809 54.1344 104.067 54.4415C104.324 54.7486 104.448 55.146 104.411 55.5449C103.71 63.0314 102.829 71.9994 101.945 80.996C101.001 90.6134 100.053 100.264 99.3186 108.171L99.3185 108.173C98.6461 115.332 98.2259 122.366 99.1976 129.351C100.154 136.223 102.782 142.531 106.841 148.186C110.927 153.668 115.338 159.376 120.496 163.906C125.633 168.419 131.433 171.692 138.286 172.419C144.991 172.806 155.263 171.267 164.539 167.879C169.174 166.186 173.499 164.053 176.976 161.517C180.461 158.975 183.008 156.092 184.239 152.924C184.324 152.706 184.459 152.511 184.632 152.354C186.412 150.747 188.039 149.014 189.501 147.092C189.541 147.039 189.585 146.989 189.632 146.942C190.065 146.505 190.608 145.621 191.277 144.329C191.582 143.74 191.894 143.108 192.219 142.447L192.27 142.345C192.611 141.653 192.966 140.933 193.331 140.235C194.049 138.86 194.856 137.457 195.754 136.419C196.602 135.44 197.89 134.377 199.551 134.628C199.816 134.668 200.065 134.778 200.273 134.947L203.915 137.909L208.461 137.152L211.72 130.02V125C211.72 124.442 212.029 123.93 212.524 123.671L216.933 121.363L220.494 115.575V108.528L216.96 103.752L212.965 101.275C212.437 100.948 212.166 100.33 212.282 99.7201C214.64 87.3056 214.552 74.5021 209.648 62.8721L209.647 62.8722L209.643 62.8624C209.559 62.658 209.449 62.4126 209.328 62.141C209.024 61.4622 208.647 60.6196 208.407 59.8425C208.052 58.6929 207.828 57.2356 208.493 55.8072C209.22 54.2298 210.319 52.7599 211.287 51.4657C211.616 51.026 211.93 50.6066 212.209 50.2102C212.216 50.2001 212.223 50.1902 212.23 50.1803C213.363 48.6515 214.302 46.7067 214.619 44.8095C214.933 42.9322 214.625 41.2345 213.468 39.9185C213.119 39.5205 213.005 38.9675 213.169 38.4637C213.912 36.1822 213.638 34.4156 212.92 32.6576C212.547 31.7437 212.054 30.8355 211.489 29.8334C211.406 29.6863 211.321 29.5369 211.235 29.3853C210.749 28.527 210.223 27.5993 209.742 26.6157C209.727 26.5839 209.712 26.5517 209.699 26.5189C209.318 25.5754 209.12 24.6071 208.953 23.7874C208.938 23.7165 208.924 23.6467 208.91 23.5782C208.723 22.6708 208.551 21.9275 208.227 21.2374C207.114 18.889 204.487 17.3716 201.761 17.3501C201.323 17.3466 200.909 17.1524 200.627 16.8182C200.344 16.484 200.222 16.0432 200.292 15.6113C200.758 12.7226 200.192 9.58986 198.771 7.48139C198.073 6.44554 197.193 5.68961 196.156 5.28017C195.132 4.87645 193.845 4.76554 192.238 5.19496C191.294 5.49385 190.441 6.0307 189.492 6.72002C189.282 6.87292 189.061 7.03797 188.832 7.20954C188.081 7.77167 187.236 8.40379 186.351 8.9079C179.328 12.9068 170.212 15.2472 162.247 14.7774C160.029 14.6799 157.815 14.5517 155.605 14.4236C150.193 14.1102 144.808 13.7982 139.474 13.9438C132.011 14.1474 124.838 15.2507 118.226 18.4502C109.057 23.385 105.33 34.0781 104.22 44.4842C104.168 44.9669 103.886 45.3948 103.463 45.6327C103.04 45.8705 102.528 45.8889 102.089 45.6821C102.062 45.6695 102.033 45.656 102.002 45.6415C101.873 45.5809 101.71 45.505 101.556 45.4256L101.555 45.4253C101.435 45.363 101.257 45.2492 101.166 45.1918C101.139 45.1747 101.112 45.1578 101.085 45.141C101.081 45.1383 101.077 45.1356 101.073 45.1329C100.858 45.0771 100.652 44.9725 100.472 44.8177C100.347 44.7102 100.198 44.5771 100.053 44.4293C99.9207 44.2948 99.8149 44.1366 99.7412 43.963C99.2086 42.7077 98.0859 42.3157 96.913 42.6091C95.684 42.9166 94.7355 43.9074 94.6995 45.1878Z" fill="#E7A87E" stroke="black" stroke-width="3" stroke-linejoin="round"/>
<path fill-rule="evenodd" clip-rule="evenodd" d="M197.119 5.78373C196.107 4.78493 194.448 5.80976 193.351 6.61231L193.108 6.79255L192.413 7.32116C190.836 8.5367 189.361 9.85761 187.658 10.9089C185.799 12.0571 183.78 12.97 181.73 13.7185C177.754 15.17 173.477 15.8214 169.262 16.0272C152.015 16.869 131.943 7.80756 116.29 18.6282C112.579 21.1931 110.019 24.9434 108.698 29.2327C107.207 34.0697 107.718 39.0789 106.499 43.9326C105.969 46.0392 102.324 46.3316 101.917 44.0164L101.89 43.837L101.571 43.637L101.445 43.5618C101.315 43.4873 101.256 43.466 101.368 43.5708L101.393 43.5931L101.344 43.5501C101.306 43.5162 101.268 43.4814 101.23 43.4458L101.119 43.337C100.342 41.5056 98.7152 40.8287 97.1368 41.0068L97.1813 41.1157L97.6512 42.3267L97.8009 42.7068C98.3536 44.0939 98.962 45.4071 100.013 46.5957C101.501 48.2777 103.351 49.6483 105.435 50.4923C105.864 50.6657 105.8 51.2467 105.327 51.2937C100.67 51.7572 95.4255 48.9284 93.2358 44.641C93.2144 44.7921 93.2013 44.9471 93.1969 45.1057C93.1816 45.628 93.2115 46.1413 93.2827 46.6429C93.5418 46.7394 93.793 46.8823 94.026 47.0759C95.538 48.3324 96.2806 50.3862 97.7025 51.7882C99.1926 53.2574 101.021 54.6197 103.007 55.3021C103.039 55.3129 103.064 55.3286 103.087 55.346C103.237 54.7778 103.396 54.2127 103.577 53.6564C103.648 53.4377 103.939 53.4924 103.961 53.7086C104.001 54.0945 109.463 50.2088 113.67 50.8366C121.579 52.0167 123.405 56.6342 134.768 55.9524C140.314 55.6196 152.027 50.4243 162.273 50.0337C171.568 49.6794 188.18 54.9843 192.562 58.0413C194.841 59.6305 188.407 64.8781 189.572 67.2639C192.878 74.0316 191.539 82.9843 194.995 88.3357L195.129 88.5372C197.342 91.7897 195.96 100.444 196.823 103.113C198.379 107.93 200.957 105.82 200.568 106.466C200.444 106.67 200.115 106.537 200.18 106.302C201.242 102.438 204.15 99.5202 207.848 98.4555C207.688 97.5395 207.979 96.3896 208.548 95.6382L208.782 94.551L208.997 93.5332C209.492 91.1591 209.935 88.7871 210.174 86.348C210.531 82.6903 210.544 79.0054 210.309 75.3387C210.001 70.5207 209.008 65.8788 207.917 61.2402L207.8 60.7432L206.942 57.1364C204.797 57.7463 202.597 58.1318 200.458 58.3229C197.968 58.545 195.503 58.5245 193.057 58.3278C190.889 64.2168 190.971 70.9227 193.65 76.6742C196.785 83.4023 204.467 89.8289 202.358 97.9879C201.439 101.545 196.059 100.819 195.932 97.2273L195.929 97.1176C195.909 93.569 194.703 90.6468 193.109 87.5969L192.89 87.1801L192.526 86.5002C190.618 82.9325 189.003 79.412 188.466 75.3533C187.686 69.4573 188.908 63.3691 191.828 58.2143C181.427 57.1294 171.36 53.0118 161.204 50.7996L160.738 50.7L160.27 50.6037C152.768 49.0907 144.498 48.9121 137.697 52.8621C137.567 52.9373 137.464 52.7489 137.582 52.6647C147.454 45.5445 160.24 46.5552 171.56 49.0644L172.212 49.2106L172.852 49.3572C183.323 51.7755 194.293 55.3275 204.996 52.1985C207.778 51.3852 210.478 50.0493 212.656 48.1146L212.838 47.9516C213.759 47.1204 214.811 46.0446 214.988 44.7828C215.05 44.3385 215.031 44.0342 214.768 43.6826C214.496 43.3163 214.019 43.3181 214.293 43.1858C211.087 44.7309 208.339 40.291 211.35 38.3674L211.563 38.2361C215.415 35.7954 213.491 30.2407 209.071 30.2667L208.845 30.2708C206.342 30.2782 205.575 27.3217 206.921 25.5912L207.05 25.4297C209.541 22.2213 205.348 18.3512 202.086 20.165L201.907 20.2677C200.358 21.1242 198.73 20.1706 198.144 18.6582C196.887 15.4129 197.53 12.0622 197.605 8.70344L197.609 8.48437L197.614 8.119L197.615 7.83046L197.612 7.63922C197.596 6.93131 197.504 6.1634 197.119 5.78373ZM102.969 55.808L102.938 55.8149L102.871 55.818L102.81 56.4716L102.888 56.1395L102.969 55.808ZM209.924 56.2422L209.999 56.0888L209.755 56.187L209.873 56.3514L209.924 56.2422ZM141.631 37.5671C141.891 37.4932 142.078 37.8968 141.82 38.0144C135.416 40.9438 130.558 45.6189 126.767 51.4769C126.407 52.0315 125.865 52.1941 125.241 52.0973C124.935 52.0498 124.763 51.9012 124.6 51.6974L124.559 51.6454L124.434 51.4769C124.164 51.1058 124.2 50.4885 124.434 50.1136C128.283 43.9676 134.723 39.5397 141.631 37.5671ZM126.387 35.6483C126.668 35.6493 126.818 36.0803 126.603 36.2635C124.764 37.8288 122.968 39.5636 121.662 41.6115C121.028 42.6055 120.498 43.6652 120.115 44.7814C119.696 45.9993 119.561 47.2617 118.964 48.4134C117.963 50.3436 115.282 49.2653 115.147 47.3794C114.943 44.5346 117.32 41.3357 119.202 39.3972C121.113 37.4299 123.456 36.0731 126.16 35.6768L126.349 35.6507L126.387 35.6483ZM196.979 33.4214C197.764 33.2229 198.406 34.2249 197.788 34.8126C194.398 38.0423 189.816 39.5404 185.254 40.1946L185.022 40.2271C180.75 40.8127 174.538 41.1448 171.317 37.6706C170.635 36.9349 170.849 35.5249 171.943 35.2976C173.442 34.9861 174.981 35.1009 176.502 35.2882L176.936 35.3434L178.014 35.4866C180.144 35.7648 182.282 35.9343 184.432 35.8713C188.737 35.7446 192.838 34.4697 196.979 33.4214ZM122.372 23.1444C122.823 22.97 123.3 23.5904 123.017 23.9834C121.718 25.7848 120.161 27.3602 118.831 29.1341C117.496 30.9135 116.381 32.7834 114.802 34.3665C113.954 35.216 112.511 34.3519 112.811 33.2075C113.944 28.8754 118.257 24.7348 122.372 23.1444ZM189.962 25.0996C190.436 24.9318 190.768 25.5884 190.438 25.9181C186.067 30.2826 178.202 32.5686 172.411 30.0476C171.108 29.4801 171.906 27.6565 173.079 27.5844C175.976 27.4058 178.886 27.7407 181.769 27.3C184.583 26.8693 187.283 26.0484 189.962 25.0996ZM182.613 19.2494C183.239 18.9886 183.501 19.923 183.041 20.2635C180.568 22.092 177.532 22.8848 174.505 22.2264C173.519 22.012 173.732 20.4226 174.744 20.4634C177.481 20.5727 180.062 20.3116 182.613 19.2494Z" fill="#C59145"/>
<path fill-rule="evenodd" clip-rule="evenodd" d="M90.2007 49.3451C89.6207 47.003 92.3179 45.6933 94.0301 47.1158C94.8446 47.7926 95.4358 48.7008 96.0302 49.6138C96.5392 50.3958 97.0506 51.1813 97.7066 51.8281C99.1967 53.2973 101.026 54.6597 103.011 55.3421C103.043 55.3528 103.069 55.3685 103.092 55.3859L102.974 55.8479L102.942 55.8549C100.408 55.9726 98.1453 55.7647 95.8224 54.6865C93.5657 53.6385 90.8319 51.8957 90.2007 49.3451Z" fill="black"/>
<path fill-rule="evenodd" clip-rule="evenodd" d="M202.681 5.33799C201.434 0.21453 195.82 -0.929859 191.669 1.53752C190.473 2.24825 189.42 3.14723 188.367 4.04619C187.662 4.648 186.957 5.2498 186.209 5.79512C184.355 7.14736 182.305 8.23326 180.143 9.00024C175.847 10.5238 171.315 11.0777 166.775 11.0975C161.499 11.1206 156.274 10.4247 151.049 9.72875C145.332 8.96723 139.616 8.20579 133.833 8.38679C125.27 8.65487 116.181 11.1856 109.97 17.3758C106.624 20.7105 104.467 24.9977 103.311 29.5491C102.77 31.6763 102.367 33.8551 102.05 36.0288L101.972 36.5721C101.922 36.9243 101.865 37.2822 101.807 37.643C101.656 38.5836 101.501 39.5434 101.482 40.4714C101.465 41.2952 101.609 42.1464 101.75 42.9814C101.807 43.3153 101.863 43.6466 101.908 43.9725C102.241 46.3783 105.967 46.1043 106.503 43.9725C107.068 41.7215 107.262 39.4371 107.455 37.1518C107.679 34.5096 107.903 31.8664 108.702 29.2727C110.023 24.9834 112.584 21.233 116.294 18.6682C126.773 11.4243 139.232 13.0908 151.499 14.7315C157.555 15.5416 163.565 16.3454 169.266 16.0671C173.481 15.8614 177.758 15.21 181.734 13.7585C183.784 13.01 185.803 12.0971 187.662 10.9489C188.868 10.2045 189.959 9.325 191.054 8.44343C191.505 8.07989 191.957 7.716 192.417 7.3611L193.112 6.83249C194.193 6.01934 196.033 4.74804 197.124 5.82367C197.598 6.29188 197.627 7.35053 197.618 8.15894L197.613 8.52431C197.6 9.3739 197.548 10.2231 197.496 11.0703C197.339 13.6458 197.182 16.2031 198.148 18.6981C198.734 20.2106 200.362 21.1641 201.911 20.3076L201.991 20.2617C205.267 18.3129 209.571 22.2288 207.054 25.4696L206.976 25.5676C205.56 27.2882 206.315 30.3183 208.849 30.3107L208.94 30.3091C213.455 30.1682 215.458 35.8106 211.567 38.2761L211.447 38.3498C208.287 40.2406 211.059 44.7865 214.297 43.2257C214.153 43.2951 214.216 43.3276 214.348 43.3958C214.467 43.4575 214.643 43.5484 214.773 43.7225C215.035 44.0742 215.054 44.3785 214.992 44.8227C214.803 46.1687 213.619 47.303 212.66 48.1545C210.482 50.0893 207.782 51.4251 205 52.2384C195.717 54.9523 186.234 52.6404 177.049 50.4013C175.207 49.9524 173.378 49.5063 171.564 49.1043C160.244 46.5952 147.458 45.5845 137.586 52.7046C137.468 52.7889 137.571 52.9772 137.701 52.902C144.786 48.7875 153.463 49.1527 161.208 50.8395C165.083 51.6837 168.946 52.8053 172.819 53.9299C179.095 55.7526 185.4 57.5833 191.832 58.2542C188.912 63.409 187.69 69.4972 188.47 75.3932C189.007 79.4519 190.622 82.9725 192.53 86.5401L192.894 87.22C194.595 90.4224 195.912 93.4476 195.934 97.1575C195.954 100.843 201.434 101.621 202.363 98.0279C203.834 92.3355 200.539 87.4864 197.348 82.7898C195.965 80.7547 194.602 78.7482 193.654 76.7141C190.975 70.9626 190.893 64.2568 193.061 58.3677C195.507 58.5644 197.972 58.585 200.462 58.3628C202.601 58.1717 204.801 57.7863 206.946 57.1763L207.804 60.7831C208.941 65.5875 209.994 70.3885 210.313 75.3786C210.548 79.0454 210.536 82.7303 210.178 86.388C209.869 89.5472 209.216 92.5939 208.552 95.6782C207.983 96.4295 207.692 97.5795 207.852 98.4955C204.155 99.5601 201.246 102.478 200.184 106.342C200.119 106.577 200.448 106.71 200.572 106.505C203.093 102.323 209.584 100.784 213.691 103.547C217.612 106.185 219.159 111.512 216.939 115.729C215.772 117.946 214.041 119.504 211.808 120.577L211.36 120.788C210.19 121.341 209.116 121.945 208.364 123.056C207.388 124.499 207.355 126.023 207.447 127.671L207.487 128.339C207.549 129.443 207.563 130.58 207.234 131.643L207.159 131.879C207.072 132.144 206.981 132.378 206.822 132.631C206.793 132.677 206.612 132.862 206.443 133.034C206.34 133.139 206.241 133.24 206.186 133.3L206.004 133.355L205.8 133.363C205.692 133.365 205.567 133.343 205.478 133.328C205.379 133.311 205.322 133.301 205.373 133.336L205.347 133.321C205.261 133.268 205.182 133.211 205.115 133.161L204.989 133.062C204.693 132.635 204.323 132.282 203.869 132.013L203.435 131.82C202.307 130.629 200.375 131.254 199.566 132.441C198.984 133.294 198.671 134.161 198.646 135.016L198.652 135.367C198.71 136.274 199.099 137.163 199.857 138.002C200.865 139.118 202.246 139.901 203.72 140.223C207.061 140.953 210.322 139.751 212.31 136.967C213.99 134.614 214.484 131.507 214.268 128.664L214.241 128.323C214.237 128.266 214.233 128.204 214.229 128.137C214.2 127.667 214.157 126.986 214.054 126.674L215.105 126.097C216.395 125.41 217.59 124.511 218.663 123.522C222.974 119.547 225.137 113.088 223.166 107.436C221.933 103.9 219.343 100.823 216.026 99.2242C216.519 98.0843 216.72 96.7542 216.906 95.5266C216.929 95.3742 216.952 95.2234 216.975 95.0747L217.01 94.852C217.365 92.6433 217.662 90.4067 217.775 88.1716C217.986 83.9972 217.729 79.7838 217.073 75.6578C216.008 68.9562 213.802 61.8489 209.759 56.2269C212.844 55.0021 215.683 53.2289 217.874 50.7668C220.164 48.1939 221.624 44.5104 219.853 41.243C219.402 40.4102 218.814 39.71 218.138 39.154C219.31 36.9411 219.689 34.3258 218.966 31.826C218.102 28.8375 215.755 26.5066 212.921 25.4182C213.609 22.5867 213.047 19.541 210.944 17.1812C208.857 14.8402 205.618 13.9876 202.619 14.5227C202.555 13.3227 202.666 12.0923 202.778 10.8583C202.947 8.9955 203.117 7.12461 202.681 5.33799ZM211.091 111.073C208.342 109.728 205.084 109.941 202.338 111.216L202.152 111.305C199.154 112.758 195.184 116.155 196.136 119.767C196.694 121.88 199.041 122.601 200.862 121.69C202.048 121.095 202.52 120.134 203.033 119.091C203.177 118.797 203.324 118.497 203.492 118.196C204.031 117.229 204.698 116.472 205.481 115.694C207.131 114.054 208.985 112.837 211.091 111.862C211.395 111.721 211.384 111.217 211.091 111.073ZM141.824 38.0544C142.082 37.9367 141.895 37.5332 141.635 37.607C134.728 39.5796 128.287 44.0075 124.439 50.1535C124.204 50.5285 124.168 51.1457 124.439 51.5169L124.563 51.6853C124.74 51.9157 124.914 52.0858 125.246 52.1373C125.869 52.2341 126.412 52.0715 126.771 51.5169C130.562 45.6588 135.42 40.9838 141.824 38.0544ZM95.5801 39.2144C94.9948 38.2232 93.4431 38.4227 93.1343 39.534L93.0896 39.6307C92.9228 40.0095 92.9987 40.0871 93.3098 39.8727C92.5396 40.5071 92.1911 41.452 92.4265 42.4679C93.698 47.9548 99.9129 51.873 105.331 51.3337C105.804 51.2867 105.868 50.7056 105.44 50.5322C103.355 49.6883 101.505 48.3176 100.017 46.6357C98.7484 45.2009 98.1247 43.5845 97.4653 41.8759C97.3733 41.6375 97.2806 41.3974 97.1854 41.1557C96.8937 40.4145 96.4397 39.8807 95.8001 39.5893C95.7155 39.4723 95.6417 39.3477 95.5801 39.2144ZM126.391 35.6883L126.353 35.6906C123.57 36.0503 121.161 37.4241 119.206 39.4371C117.324 41.3757 114.948 44.5745 115.151 47.4193C115.286 49.3053 117.967 50.3835 118.968 48.4533C119.341 47.7337 119.534 46.9708 119.728 46.2026C119.845 45.7414 119.962 45.2782 120.119 44.8214C120.502 43.7052 121.032 42.6454 121.667 41.6514C122.972 39.6036 124.768 37.8687 126.607 36.3034C126.822 36.1202 126.673 35.6892 126.391 35.6883ZM197.792 34.8525C198.41 34.2648 197.768 33.2628 196.983 33.4613C196.3 33.6341 195.619 33.813 194.938 33.9919C191.485 34.8986 188.032 35.8054 184.437 35.9113C182.286 35.9743 180.148 35.8047 178.018 35.5266L176.94 35.3833C175.279 35.1666 173.589 34.9963 171.947 35.3375C170.853 35.5648 170.639 36.9749 171.321 37.7105C174.542 41.1848 180.754 40.8526 185.026 40.267C189.664 39.6306 194.345 38.137 197.792 34.8525ZM123.021 24.0234C123.304 23.6303 122.827 23.0099 122.376 23.1843C118.261 24.7747 113.948 28.9153 112.815 33.2474C112.515 34.3918 113.959 35.2559 114.806 34.4064C115.914 33.2962 116.793 32.0449 117.679 30.7826C118.057 30.2451 118.436 29.7055 118.835 29.174C119.457 28.3445 120.128 27.5585 120.8 26.7724C121.565 25.8774 122.329 24.9824 123.021 24.0234ZM190.442 25.9581C190.772 25.6284 190.44 24.9718 189.966 25.1396C187.287 26.0883 184.587 26.9092 181.773 27.3399C180.039 27.6051 178.294 27.5895 176.549 27.5739C175.393 27.5636 174.237 27.5532 173.083 27.6244C171.91 27.6964 171.112 29.5201 172.415 30.0876C178.206 32.6086 186.071 30.3226 190.442 25.9581ZM183.045 20.3035C183.505 19.963 183.243 19.0285 182.617 19.2893C180.066 20.3515 177.486 20.6126 174.748 20.5033C173.736 20.4626 173.524 22.0519 174.509 22.2664C177.536 22.9247 180.572 22.132 183.045 20.3035Z" fill="black"/>
<path fill-rule="evenodd" clip-rule="evenodd" d="M110.42 106.149C109.087 100.961 112.694 94.6296 118.493 94.9012C120.972 95.0171 123.136 96.4313 124 98.7901C124.682 100.652 124.373 102.813 122.587 103.9C122.244 104.109 121.807 103.838 121.801 103.449C121.772 101.261 120.393 98.8831 117.923 99.3865C115.01 99.98 114.745 102.804 114.88 105.254L114.898 105.543C114.965 106.532 114.142 107.487 113.224 107.741C113.11 107.772 112.986 107.788 112.862 107.8L112.618 107.822C111.652 107.923 110.651 107.044 110.42 106.149ZM150.71 100.831C152.753 97.1006 157.306 94.8512 161.526 96.2591C163.826 97.0261 165.648 98.9741 166.586 101.164C167.301 102.833 167.661 105.75 165.656 106.718C165.39 106.847 165.124 106.816 164.902 106.621C164.133 105.947 163.69 105.075 163.253 104.216C162.618 102.965 161.996 101.74 160.401 101.184C158.097 100.38 155.568 101.895 154.945 104.193L154.922 104.273C154.373 106.051 151.901 106.789 150.581 105.345C149.737 104.422 149.521 103.655 149.377 102.438C149.277 101.591 149.993 101.039 150.71 100.831ZM152.597 83.0222C154.937 76.5788 163.854 79.9552 167.273 83.4445C171.019 87.2658 173.316 93.5546 172.725 98.904C172.702 99.115 172.457 99.1902 172.33 99.0112C171.347 97.6192 170.618 96.0538 169.89 94.4892C168.696 91.9236 167.503 89.3602 165.188 87.567C163.843 86.5246 162.088 85.9623 160.405 85.8297C159.474 85.7566 158.587 85.8988 157.703 86.0405C156.615 86.2149 155.533 86.3884 154.378 86.1587C153.1 85.9042 152.152 84.2494 152.597 83.0222ZM115.556 79.9877C117.837 79.2767 120.407 79.2081 122.676 80.0096C123.772 80.3967 124.77 80.9124 125.685 81.6261C126.362 82.155 126.75 82.6907 127.186 83.2947C127.33 83.4939 127.48 83.7004 127.647 83.9166C127.781 84.0914 127.559 84.3323 127.37 84.2762C123.819 83.2262 118.982 83.9361 116.032 86.1643C114.784 87.1074 113.754 88.3914 113.153 89.8426C113.005 90.1996 112.873 90.5532 112.744 90.8984C112.079 92.6775 111.497 94.2328 109.296 94.8696C108.122 95.2097 106.825 94.8407 105.965 93.9891L105.75 93.7767L105.678 93.7034C104.078 92.0302 104.842 89.6784 106.63 88.6463C106.793 88.3413 106.95 87.934 107.102 87.5393C107.258 87.1343 107.409 86.7425 107.556 86.4881C108.104 85.5401 108.786 84.6495 109.523 83.8424C111.149 82.0648 113.258 80.7042 115.556 79.9877Z" fill="black"/>
<path fill-rule="evenodd" clip-rule="evenodd" d="M139.539 142.867C141.88 141.912 143.968 140.32 145.494 138.285C145.789 137.893 146.163 137.031 146.052 136.348C145.926 135.58 145.472 134.884 144.852 134.417C144.231 133.948 143.453 133.717 142.701 133.835C142.048 133.937 141.398 134.295 140.883 135.037L140.776 135.185C139.868 136.413 138.685 137.421 137.337 138.07C136.039 138.696 134.586 138.988 133.082 138.818C130.219 138.495 128.246 136.946 126.148 134.844C125.888 134.578 125.628 134.304 125.367 134.026C125.202 133.774 124.973 133.612 124.718 133.527C124.436 133.432 124.116 133.438 123.824 133.54C123.541 133.638 123.289 133.825 123.12 134.073C122.959 134.31 122.868 134.601 122.897 134.937C123.089 137.116 123.619 138.285 125.847 140.388C127.644 142.084 130.027 143.257 132.27 143.669C134.741 144.122 137.259 143.797 139.539 142.867ZM131.104 109.449C128.475 111.047 124.469 114.774 127.297 118.735C130.627 122.229 135.42 118.223 137.782 116.412C139.972 115.008 142.433 118.619 140.401 120.258C123.333 132.894 116.406 109.867 129.774 107.57C131.246 107.317 131.793 108.955 131.104 109.449Z" fill="black"/>
</g>
<defs>
<linearGradient id="paint0_linear_4379_8190" x1="137.157" y1="167.588" x2="137.157" y2="395.657" gradientUnits="userSpaceOnUse">
<stop offset="0.950966" stop-color="#131416"/>
<stop offset="1" stop-color="#131416" stop-opacity="0"/>
</linearGradient>
<clipPath id="clip0_4379_8190">
<rect width="274.824" height="250.641" fill="white" transform="translate(0.176147 145.359)"/>
</clipPath>
<clipPath id="clip1_4379_8190">
<rect width="135.219" height="178.651" fill="white" transform="matrix(-1 0 0 1 224.692 0.000495911)"/>
</clipPath>
</defs>
</svg>
