<svg width="40" height="40" viewBox="0 0 40 40" fill="none" xmlns="http://www.w3.org/2000/svg">
<rect width="40" height="40" rx="20" fill="#EEEDEC"/>
<rect x="2" y="2" width="36" height="36" rx="18" fill="#090A0B"/>
<path d="M23.0679 14.2763C24.212 15.2265 24.3612 16.9148 23.4012 18.0472L19.632 22.4931C19.5534 22.5859 19.5534 22.7208 19.632 22.8136L25.6479 29.9097C25.6961 29.9665 25.7675 29.9994 25.8427 29.9994L29.9958 30C30.2111 30 30.3286 29.7525 30.1906 29.5898L24.4459 22.8136C24.3673 22.7208 24.3673 22.5859 24.4459 22.4931L26.2261 20.3933C28.4953 17.7167 28.1425 13.7262 25.4383 11.4803C24.2398 10.4849 22.7806 9.99926 21.3296 10L13.0104 10.0001C12.7951 10.0001 12.6776 10.2476 12.8156 10.4104L15.486 13.5603C15.5342 13.6171 15.6056 13.65 15.6808 13.65L21.3296 13.65C21.418 13.65 21.5064 13.6542 21.5945 13.6627C22.1189 13.7133 22.6338 13.9158 23.0679 14.2763Z" fill="#EEEDEC"/>
<path d="M17.4825 22.4958C17.4039 22.5886 17.404 22.7234 17.4826 22.8162L23.2229 29.5872C23.3609 29.75 23.2435 29.9974 23.0282 29.9975L18.8764 29.9984C18.8011 29.9984 18.7297 29.9655 18.6815 29.9086L15.3863 26.0217C15.2342 25.8423 14.9377 25.9483 14.9377 26.1819L14.9377 29.7478C14.9377 29.8859 14.824 29.9979 14.6838 29.9978L11.5038 29.9974C11.3636 29.9974 11.25 29.8855 11.25 29.7474L11.25 11.791C11.25 11.5573 11.5465 11.4513 11.6986 11.6307L14.8787 15.3818C14.9168 15.4267 14.9377 15.4835 14.9377 15.542V19.1193C14.9377 19.353 15.2342 19.4589 15.3863 19.2796L18.712 15.3566C18.7602 15.2997 18.8316 15.2669 18.9068 15.2669H21.3275C21.8889 15.2669 22.3826 15.735 22.3826 16.3267C22.3826 16.6707 22.2026 16.9172 22.1509 16.981L17.4825 22.4958Z" fill="#CF4520"/>
</svg>
