<svg width="556" height="600" viewBox="0 0 556 600" fill="none" xmlns="http://www.w3.org/2000/svg">
<path d="M350.895 128.289C384.866 156.795 389.297 207.444 360.792 241.416L444.669 311.8C512.045 231.502 501.572 111.787 421.277 44.4084C385.691 14.5477 342.365 -0.0222323 299.282 2.54625e-05L14.6222 0.00423644C6.54654 0.0043559 -1.76575e-06 6.55124 0 14.6272L0.000124774 585.302C0.00012654 593.377 6.54553 599.924 14.6205 599.925L94.8691 599.937C102.946 599.938 109.494 593.391 109.494 585.314L109.494 464.778L45.8436 388.92C41.2823 383.484 41.2823 375.558 45.8436 370.121L109.494 294.263L109.494 124.124C109.494 116.048 116.04 109.501 124.116 109.501L299.282 109.501C301.906 109.499 304.531 109.626 307.149 109.881C322.718 111.4 338.007 117.474 350.895 128.289Z" fill="url(#paint0_linear)"/>
<path d="M444.669 311.8L360.792 241.416L252.732 370.203C248.17 375.639 248.17 383.566 252.732 389.002L425.378 594.762C428.156 598.072 432.256 599.984 436.577 599.985L541.347 600C553.769 600.002 560.535 585.493 552.551 575.978L395.666 389.002C391.104 383.566 391.104 375.639 395.666 370.203L444.669 311.8Z" fill="url(#paint1_linear)"/>
<path d="M334.475 599.93C346.894 599.927 353.656 585.422 345.673 575.908L188.908 389.075C184.349 383.642 184.346 375.721 188.901 370.284L323.667 209.432C325.205 207.518 330.548 200.123 330.548 189.801C330.548 172.051 315.888 158.006 299.221 158.006H230.639C226.317 158.006 222.216 159.919 219.438 163.23L109.494 294.263L45.8436 370.121C41.2823 375.558 41.2823 383.484 45.8436 388.92L109.494 464.778L218.532 594.73C221.311 598.042 225.413 599.954 229.736 599.953L334.475 599.93Z" fill="url(#paint2_linear)"/>
<defs>
<linearGradient id="paint0_linear" x1="0" y1="0" x2="572.734" y2="600.129" gradientUnits="userSpaceOnUse">
<stop stop-color="#3F805D"/>
<stop offset="1" stop-color="#3F5E80"/>
</linearGradient>
<linearGradient id="paint1_linear" x1="0" y1="0" x2="572.734" y2="600.129" gradientUnits="userSpaceOnUse">
<stop stop-color="#3F805D"/>
<stop offset="1" stop-color="#3F5E80"/>
</linearGradient>
<linearGradient id="paint2_linear" x1="0" y1="0" x2="572.734" y2="600.129" gradientUnits="userSpaceOnUse">
<stop stop-color="#3F805D"/>
<stop offset="1" stop-color="#3F5E80"/>
</linearGradient>
</defs>
</svg>
