<svg width="20" height="21" viewBox="0 0 20 21" fill="none" xmlns="http://www.w3.org/2000/svg">
<path fill-rule="evenodd" clip-rule="evenodd" d="M7.7625 6.54725C10.163 3.46334 13.9121 1.47772 18.125 1.47754C18.2908 1.47753 18.4497 1.54338 18.5669 1.66059C18.6842 1.7778 18.75 1.93677 18.75 2.10254C18.75 6.31557 16.7644 10.065 13.6804 12.4657C13.7262 12.7549 13.75 13.0511 13.75 13.3525C13.75 16.4591 11.2316 18.9775 8.125 18.9775C7.77982 18.9775 7.5 18.6977 7.5 18.3525V14.9096C7.49229 14.904 7.48469 14.8983 7.4772 14.8923C6.68386 14.2633 5.96499 13.5444 5.33593 12.7511C5.32981 12.7434 5.32388 12.7355 5.31816 12.7275H1.875C1.52982 12.7275 1.25 12.4477 1.25 12.1025C1.25 8.99594 3.7684 6.47754 6.875 6.47754C7.17665 6.47754 7.4731 6.50134 7.7625 6.54725ZM12.5 5.85254C11.4645 5.85254 10.625 6.69201 10.625 7.72754C10.625 8.76307 11.4645 9.60254 12.5 9.60254C13.5355 9.60254 14.375 8.76307 14.375 7.72754C14.375 6.69201 13.5355 5.85254 12.5 5.85254Z" fill="#CF4520"/>
<path d="M4.38364 14.5957C4.66031 14.3893 4.71728 13.9977 4.51089 13.7211C4.30449 13.4444 3.91288 13.3874 3.63621 13.5938C2.56841 14.3904 1.875 15.6655 1.875 17.1025C1.875 17.3321 1.89274 17.558 1.92705 17.7788C1.96882 18.0477 2.17979 18.2586 2.44869 18.3004C2.66947 18.3347 2.89537 18.3525 3.125 18.3525C4.56195 18.3525 5.8371 17.6591 6.63367 16.5913C6.84006 16.3146 6.78309 15.923 6.50642 15.7166C6.22974 15.5102 5.83814 15.5672 5.63174 15.8438C5.06094 16.609 4.15068 17.1025 3.125 17.1025C3.125 16.0768 3.61848 15.1665 4.38364 14.5957Z" fill="#CF4520"/>
</svg>
