<svg width="53" height="51" viewBox="0 0 53 51" fill="none" xmlns="http://www.w3.org/2000/svg">
<path d="M12.75 37.2168L14.1494 34.8026L25.8856 14.5357C25.8856 14.5357 25.9134 14.4911 25.9302 14.4688C26.9226 12.8909 28.6732 11.8427 30.6748 11.8427C31.7676 11.8427 32.7823 12.155 33.6465 12.6958L26.7888 0.842269C26.5881 0.496588 26.0919 0.496588 25.8911 0.842269L4.53752 37.713C4.3368 38.0587 4.5877 38.4936 4.98355 38.4936H12.0141L12.75 37.2224V37.2168Z" fill="url(#paint0_linear_5163_16546)"/>
<path d="M48.144 37.713L33.6536 12.6958C32.795 12.1549 31.7748 11.8427 30.682 11.8427C28.9592 11.8427 27.4204 12.6233 26.3945 13.8499L26.7904 14.5357L36.0957 30.6043C36.1458 30.6823 36.1904 30.766 36.235 30.8496L36.3521 31.0503C36.38 31.1005 36.3967 31.1507 36.4079 31.2008C36.7312 31.9089 36.9097 32.6951 36.9097 33.5203C36.9097 35.6835 35.6831 37.5569 33.8878 38.488H47.6924C48.0938 38.488 48.3391 38.0531 48.1384 37.7075L48.144 37.713Z" fill="url(#paint1_linear_5163_16546)"/>
<path d="M36.4047 31.2008C36.4047 31.2008 36.3657 31.7194 36.0367 31.8086L21.7359 35.1316L7.27344 38.4936H33.879C35.6743 37.5625 36.9009 35.6891 36.9009 33.5258C36.9009 32.6951 36.7169 31.9145 36.3991 31.2064L36.4047 31.2008Z" fill="url(#paint2_linear_5163_16546)"/>
<path d="M0.333984 50.3166V49.5367C0.333984 49.39 0.453668 49.2703 0.600378 49.2703H4.12784C4.7816 49.2703 5.10848 48.9538 5.10848 48.3219C5.10848 47.9847 5.02998 47.7428 4.87169 47.5948C4.7134 47.4481 4.4663 47.3734 4.12913 47.3734H2.65946C1.93235 47.3734 1.37125 47.1791 0.976161 46.7879C0.581075 46.3979 0.382888 45.8394 0.382888 45.1123C0.382888 44.3852 0.581075 43.8292 0.976161 43.4444C1.37125 43.0596 1.93235 42.8679 2.65946 42.8679H6.18693C6.33364 42.8679 6.45332 42.9876 6.45332 43.1343V43.9142C6.45332 44.0609 6.33364 44.1806 6.18693 44.1806H3.08543C2.74826 44.1806 2.49731 44.2513 2.33516 44.3942C2.17172 44.537 2.09064 44.7764 2.09064 45.1136C2.09064 45.4507 2.17172 45.694 2.33516 45.8407C2.4986 45.9887 2.74826 46.062 3.08543 46.062H4.53966C5.27707 46.062 5.84074 46.2512 6.23068 46.6309C6.62062 47.0105 6.81495 47.5742 6.81495 48.3219C6.81495 49.0696 6.61933 49.6075 6.23068 49.9975C5.84203 50.3874 5.27707 50.583 4.53966 50.583H0.600378C0.453668 50.583 0.333984 50.4633 0.333984 50.3166Z" fill="white"/>
<path d="M11.0062 50.583C10.2469 50.583 9.65751 50.372 9.2354 49.9511C8.81328 49.529 8.60352 48.9396 8.60352 48.1803C8.60352 47.421 8.81457 46.8316 9.2354 46.4095C9.65622 45.9874 10.2469 45.7776 11.0062 45.7776H13.9777V45.5241C13.9777 45.0286 13.8799 44.6812 13.6856 44.4804C13.49 44.2796 13.1451 44.1806 12.6496 44.1806H9.0771V43.1523C9.0771 42.9953 9.20451 42.8679 9.36152 42.8679H12.6818C13.7461 42.8679 14.5079 43.097 14.9661 43.5551C15.4242 44.0133 15.6533 44.7751 15.6533 45.8394V49.6487C15.6533 50.1635 15.235 50.5817 14.7203 50.5817H11.0062V50.583ZM13.9945 47.0736H11.418C10.6806 47.0736 10.3113 47.4429 10.3113 48.1803C10.3113 48.9177 10.6806 49.2871 11.418 49.2871H13.9945V47.0736Z" fill="white"/>
<path d="M20.3157 50.583L17.2168 42.8692H18.2412C18.6723 42.8692 19.0584 43.1343 19.2154 43.5358L21.2642 48.8122L23.3284 43.5332C23.4854 43.133 23.8715 42.8692 24.3013 42.8692H25.2794L22.1805 50.583H20.3157Z" fill="white"/>
<path d="M28.8988 50.583C28.1395 50.583 27.5501 50.372 27.128 49.9511C26.7059 49.5303 26.4961 48.9396 26.4961 48.1803C26.4961 47.421 26.7072 46.8316 27.128 46.4095C27.5488 45.9874 28.1395 45.7776 28.8988 45.7776H31.8703V45.5241C31.8703 45.0286 31.7725 44.6812 31.5782 44.4804C31.3826 44.2796 31.0377 44.1806 30.5435 44.1806H26.971V43.1459C26.971 42.9927 27.0958 42.8679 27.2489 42.8679H30.5757C31.6399 42.8679 32.4018 43.097 32.8599 43.5551C33.3181 44.0133 33.5472 44.7751 33.5472 45.8394V49.6487C33.5472 50.1635 33.1289 50.5817 32.6141 50.5817H28.9001L28.8988 50.583ZM31.887 47.0736H29.3106C28.5732 47.0736 28.2038 47.4429 28.2038 48.1803C28.2038 48.9177 28.5732 49.2871 29.3106 49.2871H31.887V47.0736Z" fill="white"/>
<path d="M47.6937 50.583C46.9344 50.583 46.345 50.372 45.9229 49.9511C45.5008 49.5303 45.291 48.9396 45.291 48.1803C45.291 47.421 45.5021 46.8316 45.9229 46.4095C46.3437 45.9874 46.9344 45.7776 47.6937 45.7776H50.6652V45.5241C50.6652 45.0286 50.5674 44.6812 50.3731 44.4804C50.1775 44.2796 49.8326 44.1806 49.3384 44.1806H45.7659V43.1459C45.7659 42.9927 45.8907 42.8679 46.0439 42.8679H49.3706C50.4349 42.8679 51.1967 43.097 51.6549 43.5551C52.113 44.0133 52.3421 44.7751 52.3421 45.8394V49.6487C52.3421 50.1635 51.9238 50.5817 51.4091 50.5817H47.695L47.6937 50.583ZM50.682 47.0736H48.1055C47.3681 47.0736 46.9988 47.4429 46.9988 48.1803C46.9988 48.9177 47.3681 49.2871 48.1055 49.2871H50.682V47.0736Z" fill="white"/>
<path d="M41.4818 50.583V45.999C41.4818 45.3671 41.3428 44.9102 41.0636 44.631C40.7843 44.3517 40.3287 44.2114 39.6956 44.2114H37.7986V50.5817H36.123V43.8022C36.123 43.2874 36.5413 42.8692 37.0561 42.8692H39.98C41.097 42.8692 41.9052 43.1188 42.4071 43.6194C42.9077 44.1201 43.1587 44.9295 43.1587 46.0466V50.583H41.4831H41.4818Z" fill="white"/>
<defs>
<linearGradient id="paint0_linear_5163_16546" x1="20.7674" y1="38.5605" x2="14.8405" y2="-7.20314" gradientUnits="userSpaceOnUse">
<stop stop-color="#6E8F23"/>
<stop offset="0.07" stop-color="#8CB12F"/>
<stop offset="0.12" stop-color="#9FC636"/>
<stop offset="0.15" stop-color="#A6CE39"/>
<stop offset="0.31" stop-color="#93C93C"/>
<stop offset="0.62" stop-color="#62BC44"/>
<stop offset="0.73" stop-color="#50B848"/>
</linearGradient>
<linearGradient id="paint1_linear_5163_16546" x1="40.2772" y1="36.1965" x2="25.5911" y2="12.2501" gradientUnits="userSpaceOnUse">
<stop stop-color="#058EC8"/>
<stop offset="0.43" stop-color="#068CC7"/>
<stop offset="0.59" stop-color="#0D87C3"/>
<stop offset="0.7" stop-color="#197DBD"/>
<stop offset="0.79" stop-color="#2A70B5"/>
<stop offset="0.86" stop-color="#405FAA"/>
<stop offset="0.91" stop-color="#5251A2"/>
</linearGradient>
<linearGradient id="paint2_linear_5163_16546" x1="9.80465" y1="34.8416" x2="37.2466" y2="34.8416" gradientUnits="userSpaceOnUse">
<stop stop-color="#EE4F9C"/>
<stop offset="0.4" stop-color="#EC4E9B"/>
<stop offset="0.54" stop-color="#E54E9B"/>
<stop offset="0.65" stop-color="#D94D99"/>
<stop offset="0.73" stop-color="#C84C97"/>
<stop offset="0.8" stop-color="#B24B95"/>
<stop offset="0.86" stop-color="#974A92"/>
<stop offset="0.92" stop-color="#77488E"/>
<stop offset="0.97" stop-color="#52468A"/>
<stop offset="1" stop-color="#3A4588"/>
</linearGradient>
</defs>
</svg>
