<svg width="80" height="80" viewBox="0 0 80 80" fill="none" xmlns="http://www.w3.org/2000/svg">
<path d="M64.6826 65.1383C64.913 65.3109 65.1594 65.3714 65.4219 65.3197C65.6844 65.268 65.9404 65.1061 66.1899 64.8338C66.3594 64.6488 66.4764 64.4686 66.5408 64.2932C66.6069 64.1194 66.6258 63.9568 66.5975 63.8056C66.5675 63.6561 66.4949 63.5286 66.3797 63.423C66.2869 63.3315 66.1847 63.2748 66.0732 63.2529C65.96 63.2327 65.8413 63.2379 65.7169 63.2684C65.5943 63.3006 65.4667 63.3506 65.3339 63.4184C65.2029 63.4878 65.0707 63.5689 64.9373 63.6619L64.3807 64.038C64.114 64.2239 63.8475 64.3747 63.5811 64.4902C63.3146 64.6057 63.0521 64.6766 62.7936 64.703C62.535 64.7293 62.2833 64.7026 62.0386 64.6228C61.7922 64.5448 61.5565 64.4042 61.3315 64.2013C61.005 63.8988 60.7972 63.5543 60.7083 63.1678C60.6195 62.7846 60.6512 62.3769 60.8032 61.9446C60.9554 61.5157 61.2315 61.0831 61.6313 60.6468C62.028 60.2139 62.4398 59.8977 62.8668 59.6981C63.2921 59.5002 63.7172 59.4306 64.142 59.4891C64.567 59.551 64.9763 59.7543 65.37 60.0991L64.3648 61.1961C64.1738 61.0435 63.9765 60.9575 63.7729 60.9379C63.5694 60.9216 63.3668 60.9623 63.165 61.0599C62.9633 61.1609 62.7728 61.3091 62.5937 61.5046C62.4178 61.6966 62.2929 61.8888 62.2192 62.0814C62.1439 62.2757 62.12 62.4577 62.1476 62.6274C62.1751 62.7971 62.2534 62.9412 62.3826 63.0595C62.503 63.1699 62.637 63.2269 62.7846 63.2305C62.9306 63.2359 63.0948 63.1969 63.2772 63.1135C63.4579 63.0319 63.6614 62.9149 63.8877 62.7626L64.5693 62.3131C65.0936 61.9619 65.5926 61.7625 66.0664 61.715C66.5402 61.6675 66.9744 61.8262 67.369 62.191C67.6952 62.4867 67.8997 62.8331 67.9824 63.2299C68.0634 63.6285 68.0313 64.0438 67.8859 64.4758C67.7405 64.9077 67.4887 65.3192 67.1304 65.7101C66.7658 66.1081 66.3794 66.393 65.9714 66.565C65.5617 66.7387 65.1596 66.7973 64.765 66.7408C64.3705 66.6843 64.0111 66.5123 63.6869 66.2248L64.6826 65.1383Z" fill="#AEAEB0"/>
<path d="M52.1524 72.8071L53.5359 72.0964C53.6531 72.2624 53.7864 72.3949 53.9357 72.4939C54.0861 72.5949 54.2478 72.6636 54.4208 72.6998C54.5937 72.7361 54.7738 72.7394 54.9609 72.7098C55.1458 72.6813 55.331 72.6195 55.5163 72.5243C55.8511 72.3523 56.1001 72.1193 56.2631 71.8253C56.4272 71.5334 56.4966 71.1944 56.4712 70.8082C56.4469 70.4241 56.3196 70.0078 56.0892 69.5593C55.8523 69.0981 55.5848 68.7458 55.2868 68.5023C54.9866 68.2599 54.6712 68.1225 54.3405 68.0901C54.0098 68.0577 53.6812 68.1253 53.3548 68.293C53.1716 68.3871 53.0145 68.4984 52.8836 68.6269C52.7505 68.7564 52.6467 68.8989 52.5722 69.0543C52.4987 69.2118 52.4566 69.3785 52.4458 69.5544C52.4329 69.7313 52.455 69.9143 52.5121 70.1032L51.1253 70.8075C51.0086 70.4922 50.951 70.1599 50.9525 69.8104C50.9529 69.4642 51.0175 69.121 51.1461 68.7808C51.2738 68.4437 51.4704 68.1271 51.7362 67.8309C52.0009 67.538 52.3406 67.2849 52.7555 67.0718C53.3325 66.7754 53.9155 66.641 54.5045 66.6685C55.0914 66.697 55.6435 66.8911 56.161 67.2508C56.6763 67.6115 57.1146 68.1436 57.4759 68.847C57.8383 69.5524 58.0139 70.2207 58.0027 70.8519C57.9916 71.4831 57.8251 72.045 57.5033 72.5377C57.1826 73.0324 56.7379 73.4258 56.1693 73.7179C55.7945 73.9104 55.42 74.0363 55.0458 74.0954C54.6695 74.1556 54.3052 74.1485 53.9529 74.0739C53.6016 74.0015 53.2734 73.86 52.9683 73.6495C52.6611 73.44 52.3891 73.1592 52.1524 72.8071Z" fill="#AEAEB0"/>
<path d="M45.1903 69.6323L45.9182 76.8685L43.0633 77.1556C42.5168 77.2106 42.0406 77.1598 41.6346 77.0031C41.2265 76.849 40.9033 76.6044 40.6649 76.2691C40.4245 75.9363 40.2802 75.5309 40.2321 75.0527C40.1837 74.5722 40.2458 74.1484 40.4183 73.7812C40.591 73.4165 40.8648 73.1225 41.2397 72.8992C41.6122 72.6761 42.0764 72.5366 42.6323 72.4807L44.5438 72.2884L44.6675 73.518L43.0033 73.6854C42.7112 73.7148 42.4727 73.7792 42.2876 73.8787C42.1025 73.9783 41.9708 74.1128 41.8927 74.2825C41.8123 74.4524 41.784 74.6563 41.8079 74.8942C41.8321 75.1345 41.9008 75.3322 42.0139 75.4874C42.1247 75.6428 42.2822 75.753 42.4862 75.8182C42.6881 75.8859 42.9363 75.905 43.2307 75.8753L44.2625 75.7716L43.6604 69.7861L45.1903 69.6323ZM41.6137 73.3184L39.4841 70.2062L41.173 70.0363L43.2638 73.1524L41.6137 73.3184Z" fill="#AEAEB0"/>
<path d="M27.2691 71.426C27.4736 70.6597 27.7929 70.0466 28.2268 69.5866C28.6585 69.126 29.1615 68.8204 29.7359 68.6699C30.3073 68.5211 30.903 68.5294 31.5229 68.6948C32.1473 68.8615 32.6698 69.1529 33.0905 69.569C33.5111 69.9851 33.7938 70.5004 33.9385 71.1149C34.0833 71.7293 34.0537 72.4185 33.8498 73.1825C33.6452 73.9488 33.3271 74.5622 32.8954 75.0228C32.4637 75.4834 31.9622 75.7881 31.3907 75.937C30.8187 76.0881 30.2204 76.0803 29.596 75.9137C28.9761 75.7482 28.4558 75.4574 28.0352 75.0413C27.6117 74.6269 27.3275 74.1124 27.1828 73.498C27.0358 72.8829 27.0645 72.1922 27.2691 71.426ZM28.7753 71.828C28.6428 72.3244 28.6054 72.7628 28.6631 73.1433C28.7185 73.5232 28.8565 73.8369 29.0771 74.0845C29.2978 74.332 29.5876 74.5037 29.9467 74.5996C30.3058 74.6954 30.6427 74.691 30.9573 74.5863C31.272 74.4816 31.5491 74.2787 31.7888 73.9776C32.0261 73.6759 32.2111 73.2768 32.3435 72.7805C32.476 72.2841 32.5146 71.846 32.4591 71.4661C32.4014 71.0856 32.2623 70.7716 32.0417 70.524C31.8211 70.2765 31.5312 70.1048 31.1721 70.0089C30.813 69.913 30.4761 69.9175 30.1615 70.0221C29.8469 70.1268 29.5709 70.3301 29.3335 70.6318C29.0938 70.9329 28.9078 71.3317 28.7753 71.828Z" fill="#AEAEB0"/>
<path d="M23.5025 65.1476L19.0966 70.9338L17.8732 70.0023L21.5111 65.2247L19.0305 63.3358L19.7986 62.3272L23.5025 65.1476Z" fill="#AEAEB0"/>
<path d="M15.878 57.9675L9.75633 61.8941L8.92614 60.5999L13.9807 57.3577L12.2973 54.7333L13.3644 54.0489L15.878 57.9675Z" fill="#AEAEB0"/>
<path d="M14.4072 15.7993C14.1712 15.6344 13.923 15.582 13.6623 15.6422C13.4016 15.7025 13.1511 15.8727 12.9106 16.153C12.7472 16.3435 12.6362 16.5274 12.5776 16.7048C12.5171 16.8807 12.5036 17.0438 12.5369 17.194C12.5718 17.3424 12.6485 17.4675 12.7671 17.5693C12.8628 17.6576 12.9668 17.711 13.079 17.7292C13.1927 17.7457 13.3112 17.7367 13.4345 17.7021C13.556 17.6659 13.682 17.6118 13.8124 17.5397C13.9411 17.466 14.0706 17.3806 14.2008 17.2833L14.7449 16.8891C15.0053 16.6946 15.2668 16.5353 15.5293 16.4111C15.7918 16.2869 16.0518 16.2074 16.3094 16.1726C16.5669 16.1378 16.8193 16.1563 17.0666 16.2281C17.3154 16.298 17.5556 16.4307 17.7871 16.6263C18.1233 16.9179 18.3422 17.2554 18.4437 17.6388C18.545 18.0189 18.5267 18.4274 18.3889 18.8644C18.2508 19.298 17.9891 19.7395 17.6037 20.1887C17.2214 20.6343 16.8202 20.9638 16.4 21.1773C15.9813 21.3889 15.5588 21.4724 15.1323 21.4278C14.7055 21.3799 14.2897 21.1901 13.8849 20.8584L14.8538 19.7291C15.0496 19.8753 15.2496 19.9548 15.4538 19.9678C15.6576 19.9774 15.8589 19.9301 16.0574 19.8259C16.2557 19.7184 16.4411 19.564 16.6138 19.3628C16.7834 19.1651 16.9018 18.9689 16.9692 18.774C17.0381 18.5774 17.056 18.3947 17.023 18.2259C16.9899 18.0572 16.9069 17.9158 16.7739 17.8017C16.65 17.6954 16.5141 17.6428 16.3665 17.644C16.2204 17.6435 16.0576 17.6878 15.878 17.7771C15.7 17.8646 15.5005 17.9881 15.2793 18.1477L14.6127 18.6193C14.1003 18.9875 13.6081 19.2032 13.1361 19.2661C12.6641 19.3291 12.2249 19.1847 11.8186 18.833C11.4828 18.5481 11.2672 18.2086 11.1716 17.8147C11.0775 17.4189 11.096 17.0028 11.2272 16.5664C11.3583 16.1299 11.5966 15.7104 11.9419 15.3079C12.2933 14.8982 12.6702 14.6008 13.0724 14.4156C13.4761 14.2286 13.8761 14.1568 14.2723 14.2004C14.6685 14.244 15.0333 14.4041 15.3667 14.6808L14.4072 15.7993Z" fill="#AEAEB0"/>
<path d="M26.6254 7.69297L25.2662 8.44927C25.1436 8.28724 25.006 8.15926 24.8534 8.06532C24.6998 7.9693 24.5359 7.90607 24.3618 7.87561C24.1877 7.84514 24.0077 7.8478 23.8217 7.88356C23.6377 7.91818 23.4548 7.98614 23.2727 8.08744C22.9438 8.27048 22.7027 8.51162 22.5496 8.81089C22.3952 9.10808 22.3372 9.44924 22.3754 9.83437C22.4125 10.2174 22.5536 10.6293 22.7988 11.0699C23.0509 11.523 23.3299 11.8662 23.6359 12.0996C23.944 12.3319 24.2638 12.4587 24.5954 12.4801C24.927 12.5015 25.2531 12.423 25.5737 12.2445C25.7537 12.1444 25.907 12.0279 26.0336 11.8952C26.1623 11.7612 26.2613 11.6154 26.3306 11.4576C26.3988 11.2977 26.4354 11.1297 26.4403 10.9536C26.4473 10.7763 26.4192 10.5942 26.3558 10.4073L27.7184 9.65721C27.8455 9.96846 27.9142 10.2987 27.9243 10.648C27.9353 10.9941 27.8822 11.3393 27.765 11.6836C27.6486 12.0247 27.4626 12.3476 27.2069 12.6525C26.9521 12.9541 26.6209 13.2183 26.2134 13.4451C25.6465 13.7605 25.0683 13.9143 24.4787 13.9064C23.8912 13.8974 23.3329 13.7217 22.8038 13.3795C22.2768 13.0361 21.821 12.5189 21.4365 11.828C21.0509 11.1349 20.8531 10.4728 20.8433 9.84164C20.8334 9.21045 20.9811 8.6433 21.2864 8.1402C21.5905 7.63503 22.0218 7.22705 22.5803 6.91624C22.9486 6.71133 23.3187 6.57311 23.6907 6.50157C24.0648 6.42888 24.4291 6.42392 24.7837 6.48668C25.1372 6.54737 25.4699 6.67787 25.7818 6.87816C26.0958 7.07731 26.377 7.34891 26.6254 7.69297Z" fill="#AEAEB0"/>
<path d="M33.7312 10.5708L32.7535 3.36413L35.5968 2.9784C36.141 2.90457 36.6187 2.93891 37.0299 3.08143C37.443 3.22128 37.7745 3.45464 38.0243 3.78151C38.2762 4.10571 38.4344 4.50593 38.499 4.98215C38.5639 5.46072 38.5166 5.88644 38.3569 6.2593C38.1969 6.62981 37.9335 6.93313 37.5665 7.16926C37.2019 7.40508 36.7428 7.56054 36.1892 7.63564L34.2854 7.89391L34.1193 6.66933L35.7767 6.44448C36.0676 6.40502 36.3038 6.33236 36.4854 6.2265C36.6669 6.12064 36.7938 5.98158 36.866 5.80933C36.9405 5.63676 36.9617 5.432 36.9296 5.19506C36.8971 4.95578 36.8217 4.76055 36.7032 4.60938C36.5871 4.4579 36.4259 4.35314 36.2198 4.2951C36.0156 4.2344 35.7669 4.22393 35.4737 4.26372L34.4462 4.40311L35.2549 10.3641L33.7312 10.5708ZM37.1782 6.76324L39.4142 9.79987L37.7322 10.0281L35.5348 6.98618L37.1782 6.76324Z" fill="#AEAEB0"/>
<path d="M51.5573 8.13677C51.3791 8.90957 51.081 9.53326 50.663 10.0078C50.2474 10.4829 49.7551 10.8055 49.1862 10.9756C48.6202 11.1439 48.0246 11.156 47.3994 11.0118C46.7697 10.8666 46.2375 10.5933 45.8028 10.1918C45.3682 9.79029 45.068 9.28497 44.9024 8.67583C44.7367 8.06668 44.7427 7.37686 44.9204 6.60636C45.0986 5.83355 45.3955 5.2096 45.8112 4.73451C46.2269 4.25942 46.7177 3.93771 47.2837 3.7694C47.8503 3.59877 48.4485 3.58607 49.0783 3.73129C49.7034 3.87545 50.2333 4.14827 50.668 4.54976C51.1054 4.94947 51.407 5.4539 51.5727 6.06304C51.7406 6.67272 51.7355 7.36396 51.5573 8.13677ZM50.0382 7.78648C50.1537 7.28589 50.176 6.84644 50.1053 6.46813C50.037 6.09036 49.8883 5.78154 49.6593 5.54168C49.4304 5.30181 49.1348 5.14012 48.7727 5.0566C48.4105 4.97309 48.0739 4.98903 47.7631 5.10442C47.4522 5.21981 47.1822 5.43208 46.953 5.74123C46.7261 6.05091 46.5549 6.45605 46.4395 6.95665C46.324 7.45724 46.3005 7.89642 46.3689 8.2742C46.4396 8.6525 46.5894 8.96158 46.8183 9.20145C47.0473 9.44132 47.3429 9.60301 47.705 9.68653C48.0672 9.77004 48.4037 9.7541 48.7146 9.63871C49.0255 9.52332 49.2944 9.31078 49.5213 9.0011C49.7505 8.69195 49.9228 8.28708 50.0382 7.78648Z" fill="#AEAEB0"/>
<path d="M55.5452 14.2388L59.7587 8.31098L61.012 9.20181L57.533 14.0963L60.0743 15.9027L59.3398 16.936L55.5452 14.2388Z" fill="#AEAEB0"/>
<path d="M63.4936 21.2158L69.4824 17.0895L70.3549 18.3557L65.41 21.7627L67.1789 24.3302L66.135 25.0495L63.4936 21.2158Z" fill="#AEAEB0"/>
<path fill-rule="evenodd" clip-rule="evenodd" d="M5.95398 41.5247L5.95512 41.5234L5.96856 41.5067C5.98194 41.4898 6.00355 41.4618 6.03087 41.4237C6.08581 41.3473 6.16211 41.2328 6.24076 41.0893C6.40152 40.796 6.55306 40.416 6.58146 40.0099C6.60985 39.6039 6.51267 39.2065 6.39429 38.8937C6.33638 38.7406 6.27675 38.6167 6.23299 38.5333C6.21122 38.4918 6.19373 38.4611 6.18283 38.4425L6.17184 38.4241L6.17078 38.4224V38.4224L6.16723 38.4168L6.15834 38.4025C6.15134 38.3911 6.14223 38.376 6.13134 38.3574C6.10959 38.3203 6.08061 38.269 6.04709 38.2052C5.98028 38.0779 5.89408 37.8981 5.81098 37.6784C5.64733 37.2459 5.48174 36.6225 5.5304 35.9267C5.57905 35.2308 5.82979 34.6365 6.05204 34.231C6.1649 34.0251 6.27529 33.859 6.35917 33.7423C6.40125 33.6837 6.43709 33.637 6.46379 33.6032C6.47716 33.5864 6.48828 33.5727 6.49679 33.5624L6.50759 33.5495L6.51146 33.5449L6.51299 33.5431L6.51366 33.5423C6.51366 33.5423 6.51425 33.5416 7.08312 34.0304L6.51366 33.5423C6.78359 33.2281 7.25771 33.1916 7.57189 33.4615C7.8859 33.7313 7.92189 34.2045 7.65241 34.5187L7.65448 34.5162L7.65374 34.5171L7.65241 34.5187L7.63964 34.5346C7.62626 34.5515 7.60465 34.5795 7.57733 34.6175C7.52239 34.694 7.44609 34.8084 7.36744 34.9519C7.20668 35.2453 7.05513 35.6253 7.02674 36.0313C6.99835 36.4373 7.09553 36.8347 7.2139 37.1476C7.27182 37.3006 7.33145 37.4246 7.37521 37.508C7.39698 37.5494 7.41447 37.5802 7.42537 37.5988L7.43636 37.6172L7.43743 37.6189L7.44097 37.6245L7.44986 37.6388C7.45686 37.6502 7.46597 37.6653 7.47685 37.6839C7.49861 37.721 7.52759 37.7722 7.56111 37.8361C7.62792 37.9634 7.71412 38.1432 7.79722 38.3628C7.96087 38.7953 8.12646 39.4187 8.0778 40.1146C8.02914 40.8104 7.77841 41.4047 7.55615 41.8102C7.44329 42.0162 7.3329 42.1823 7.24903 42.299C7.20694 42.3576 7.17111 42.4043 7.14441 42.438C7.13104 42.4549 7.11992 42.4686 7.1114 42.4789L7.10061 42.4918L7.09674 42.4964L7.09521 42.4982L7.09454 42.499C7.09454 42.499 7.09394 42.4996 6.52507 42.0109L7.09454 42.499C6.82461 42.8131 6.35049 42.8497 6.03631 42.5798C5.723 42.3106 5.68648 41.8389 5.95398 41.5247V41.5247Z" fill="#AEAEB0"/>
<path fill-rule="evenodd" clip-rule="evenodd" d="M73.2224 39.0427L72.6709 38.5344C72.9516 38.2298 73.4261 38.2105 73.7307 38.4912C74.0351 38.7719 74.0545 39.2461 73.7741 39.5507L73.7749 39.5499L73.7756 39.549V39.549L73.7749 39.5499L73.7609 39.566C73.747 39.5824 73.7244 39.6097 73.6958 39.6467C73.6382 39.7212 73.5579 39.833 73.4743 39.9736C73.3034 40.2612 73.1387 40.6357 73.0962 41.0405C73.0536 41.4452 73.1369 41.8458 73.2443 42.1626C73.2968 42.3176 73.3521 42.4435 73.3929 42.5284C73.4132 42.5706 73.4296 42.6019 73.4398 42.6209L73.4502 42.6396L73.4512 42.6414V42.6414L73.4545 42.6471L73.4629 42.6617C73.4695 42.6734 73.4781 42.6888 73.4883 42.7077C73.5088 42.7455 73.536 42.7978 73.5672 42.8628C73.6296 42.9923 73.7094 43.175 73.7848 43.3974C73.9333 43.8354 74.077 44.4642 74.0041 45.1579C73.9312 45.8517 73.6598 46.4368 73.4236 46.8343C73.3036 47.0362 73.1875 47.1983 73.0996 47.3121C73.0555 47.3691 73.018 47.4146 72.9902 47.4474C72.9762 47.4638 72.9646 47.477 72.9558 47.487L72.9445 47.4996L72.9405 47.504L72.9389 47.5058L72.9382 47.5065C72.9382 47.5065 72.9376 47.5072 72.3861 46.9989L72.9382 47.5065C72.6575 47.8111 72.1824 47.8311 71.8778 47.5503C71.5733 47.2697 71.5539 46.7954 71.8344 46.4909L71.8336 46.4917L71.8475 46.4756C71.8615 46.4591 71.8841 46.4319 71.9127 46.3948C71.9703 46.3203 72.0505 46.2086 72.1341 46.0679C72.305 45.7804 72.4698 45.4059 72.5123 45.0011C72.5548 44.5964 72.4716 44.1958 72.3642 43.879C72.3117 43.724 72.2564 43.598 72.2156 43.5132C72.1953 43.471 72.1789 43.4397 72.1686 43.4207L72.1583 43.4019L72.1573 43.4002L72.1539 43.3945L72.1455 43.3798C72.1389 43.3682 72.1304 43.3528 72.1201 43.3339C72.0997 43.296 72.0725 43.2438 72.0412 43.1788C71.9789 43.0493 71.899 42.8665 71.8237 42.6441C71.6752 42.2062 71.5315 41.5774 71.6044 40.8837C71.6773 40.1899 71.9486 39.6048 72.1849 39.2072C72.3049 39.0054 72.421 38.8432 72.5089 38.7295C72.553 38.6724 72.5904 38.627 72.6183 38.5942C72.6322 38.5778 72.6438 38.5646 72.6527 38.5545L72.664 38.542L72.668 38.5376L72.6696 38.5358L72.6709 38.5344C72.6709 38.5344 72.6709 38.5344 73.2224 39.0427Z" fill="#AEAEB0"/>
</svg>
