<svg width="80" height="80" viewBox="0 0 80 80" fill="none" xmlns="http://www.w3.org/2000/svg">
<path d="M69.4217 43.1947C70.291 43.1148 71.4168 42.5941 72.3778 41.5083C72.8525 40.975 73.1786 40.4196 73.3443 39.8611L73.7629 39.8951C73.9406 41.0433 74.6083 42.2111 75.5775 43.0021C76.0666 43.403 76.5563 43.6735 77.0765 43.8161L77.0425 44.2347C76.0221 44.3224 74.8427 45.0092 74.0094 46.0051C73.5985 46.4934 73.3056 47.0114 73.1415 47.5499L72.7229 47.5159C72.5835 46.391 71.7011 45.0251 70.7462 44.3055C70.2637 43.9453 69.8106 43.7179 69.3877 43.6133L69.4217 43.1947Z" fill="#AEAEB0"/>
<path d="M64.6843 65.1386C64.9147 65.3112 65.1611 65.3716 65.4236 65.3199C65.6861 65.2683 65.9421 65.1063 66.1916 64.834C66.3611 64.649 66.4781 64.4688 66.5425 64.2934C66.6087 64.1196 66.6275 63.9571 66.5992 63.8058C66.5692 63.6563 66.4966 63.5288 66.3814 63.4233C66.2886 63.3318 66.1864 63.2751 66.0749 63.2531C65.9617 63.2329 65.843 63.2381 65.7186 63.2687C65.5961 63.3009 65.4684 63.3508 65.3356 63.4186C65.2046 63.488 65.0724 63.5692 64.9391 63.6621L64.3824 64.0383C64.1157 64.2242 63.8492 64.3749 63.5828 64.4904C63.3164 64.6059 63.0539 64.6769 62.7953 64.7032C62.5367 64.7296 62.285 64.7029 62.0403 64.6231C61.7939 64.545 61.5582 64.4045 61.3332 64.2015C61.0067 63.8991 60.7989 63.5546 60.71 63.168C60.6213 62.7848 60.6529 62.3771 60.805 61.9449C60.9571 61.516 61.2332 61.0834 61.633 60.647C62.0297 60.2141 62.4415 59.8979 62.8685 59.6983C63.2938 59.5005 63.7189 59.4308 64.1437 59.4894C64.5687 59.5512 64.978 59.7546 65.3717 60.0993L64.3665 61.1963C64.1755 61.0438 63.9782 60.9577 63.7746 60.9381C63.5712 60.9219 63.3685 60.9625 63.1667 61.0602C62.965 61.1611 62.7746 61.3093 62.5954 61.5048C62.4195 61.6968 62.2947 61.8891 62.2209 62.0816C62.1456 62.276 62.1217 62.458 62.1493 62.6277C62.1768 62.7974 62.2551 62.9414 62.3843 63.0598C62.5047 63.1701 62.6387 63.2271 62.7863 63.2307C62.9323 63.2361 63.0965 63.1971 63.2789 63.1137C63.4596 63.0321 63.6632 62.9152 63.8894 62.7629L64.5711 62.3134C65.0953 61.9621 65.5943 61.7627 66.0681 61.7152C66.5419 61.6677 66.9761 61.8264 67.3707 62.1912C67.6969 62.487 67.9014 62.8333 67.9841 63.2302C68.0651 63.6288 68.033 64.0441 67.8876 64.476C67.7423 64.908 67.4904 65.3194 67.1322 65.7104C66.7675 66.1083 66.3811 66.3933 65.9731 66.5653C65.5634 66.739 65.1613 66.7976 64.7668 66.741C64.3722 66.6845 64.0128 66.5125 63.6886 66.2251L64.6843 65.1386Z" fill="#AEAEB0"/>
<path d="M52.1541 72.8073L53.5376 72.0966C53.6548 72.2626 53.7881 72.3951 53.9374 72.4941C54.0878 72.5952 54.2495 72.6638 54.4225 72.7001C54.5954 72.7363 54.7755 72.7396 54.9626 72.7101C55.1475 72.6816 55.3327 72.6197 55.518 72.5246C55.8528 72.3526 56.1018 72.1196 56.2648 71.8256C56.4289 71.5337 56.4983 71.1946 56.4729 70.8084C56.4486 70.4244 56.3213 70.008 56.0909 69.5595C55.854 69.0983 55.5865 68.746 55.2885 68.5025C54.9883 68.2602 54.6729 68.1228 54.3422 68.0904C54.0115 68.058 53.6829 68.1256 53.3565 68.2932C53.1733 68.3873 53.0162 68.4986 52.8853 68.6271C52.7522 68.7567 52.6484 68.8992 52.5739 69.0546C52.5004 69.2121 52.4583 69.3787 52.4475 69.5546C52.4346 69.7316 52.4567 69.9145 52.5138 70.1034L51.127 70.8078C51.0103 70.4925 50.9527 70.1601 50.9542 69.8107C50.9546 69.4644 51.0192 69.1212 51.1479 68.781C51.2755 68.444 51.4722 68.1274 51.7379 67.8312C52.0026 67.5382 52.3423 67.2852 52.7572 67.0721C53.3342 66.7757 53.9172 66.6412 54.5062 66.6687C55.0931 66.6973 55.6452 66.8914 56.1627 67.251C56.678 67.6118 57.1163 68.1438 57.4776 68.8472C57.84 69.5527 58.0156 70.221 58.0044 70.8521C57.9933 71.4833 57.8268 72.0452 57.505 72.5379C57.1843 73.0327 56.7396 73.4261 56.171 73.7181C55.7962 73.9107 55.4217 74.0365 55.0475 74.0956C54.6712 74.1559 54.3069 74.1487 53.9546 74.0742C53.6033 74.0018 53.2752 73.8603 52.97 73.6497C52.6628 73.4402 52.3908 73.1594 52.1541 72.8073Z" fill="#AEAEB0"/>
<path d="M45.1921 69.6325L45.9199 76.8687L43.065 77.1559C42.5185 77.2108 42.0423 77.16 41.6363 77.0033C41.2282 76.8493 40.905 76.6046 40.6666 76.2693C40.4262 75.9366 40.2819 75.5311 40.2338 75.053C40.1855 74.5724 40.2475 74.1486 40.42 73.7815C40.5927 73.4167 40.8665 73.1227 41.2414 72.8994C41.6139 72.6763 42.0781 72.5368 42.634 72.4809L44.5455 72.2887L44.6692 73.5183L43.005 73.6856C42.713 73.715 42.4744 73.7795 42.2893 73.879C42.1042 73.9785 41.9726 74.1131 41.8944 74.2827C41.814 74.4526 41.7857 74.6565 41.8096 74.8944C41.8338 75.1347 41.9025 75.3324 42.0156 75.4876C42.1264 75.643 42.2839 75.7533 42.4879 75.8184C42.6898 75.8861 42.938 75.9052 43.2324 75.8756L44.2642 75.7718L43.6621 69.7864L45.1921 69.6325ZM41.6154 73.3186L39.4858 70.2065L41.1747 70.0366L43.2655 73.1526L41.6154 73.3186Z" fill="#AEAEB0"/>
<path d="M27.2708 71.4262C27.4753 70.6599 27.7946 70.0468 28.2285 69.5868C28.6602 69.1262 29.1632 68.8207 29.7376 68.6702C30.309 68.5213 30.9047 68.5296 31.5246 68.6951C32.149 68.8617 32.6716 69.1531 33.0922 69.5693C33.5128 69.9854 33.7955 70.5007 33.9403 71.1151C34.085 71.7296 34.0554 72.4188 33.8515 73.1828C33.6469 73.949 33.3288 74.5624 32.8971 75.023C32.4655 75.4836 31.9639 75.7884 31.3924 75.9372C30.8204 76.0884 30.2221 76.0806 29.5977 75.9139C28.9778 75.7485 28.4575 75.4577 28.0369 75.0415C27.6134 74.6271 27.3292 74.1127 27.1845 73.4982C27.0375 72.8831 27.0662 72.1925 27.2708 71.4262ZM28.777 71.8283C28.6445 72.3246 28.6071 72.763 28.6648 73.1435C28.7202 73.5234 28.8583 73.8371 29.0789 74.0847C29.2995 74.3323 29.5893 74.504 29.9484 74.5998C30.3075 74.6957 30.6444 74.6913 30.9591 74.5866C31.2737 74.4819 31.5508 74.279 31.7905 73.9779C32.0278 73.6761 32.2128 73.2771 32.3452 72.7807C32.4777 72.2844 32.5163 71.8462 32.4609 71.4664C32.4031 71.0859 32.264 70.7718 32.0434 70.5243C31.8228 70.2767 31.5329 70.105 31.1738 70.0091C30.8147 69.9133 30.4778 69.9177 30.1632 70.0224C29.8486 70.1271 29.5726 70.3303 29.3352 70.632C29.0956 70.9332 28.9095 71.3319 28.777 71.8283Z" fill="#AEAEB0"/>
<path d="M23.5042 65.1478L19.0983 70.934L17.8749 70.0025L21.5129 65.2249L19.0322 63.3361L19.8003 62.3274L23.5042 65.1478Z" fill="#AEAEB0"/>
<path d="M15.8797 57.9678L9.75804 61.8944L8.92785 60.6001L13.9824 57.358L12.299 54.7336L13.3661 54.0491L15.8797 57.9678Z" fill="#AEAEB0"/>
<path d="M10.4884 37.8573C9.62237 37.9673 8.51529 38.5267 7.59252 39.6452C7.1366 40.1947 6.83005 40.7611 6.68379 41.3249L6.26424 41.3055C6.04684 40.1642 5.33904 39.0202 4.34301 38.2633C3.84023 37.8796 3.34143 37.6262 2.81662 37.5018L2.83607 37.0822C3.85285 36.9592 5.00776 36.2319 5.80602 35.2077C6.1997 34.7054 6.47443 34.1776 6.61976 33.6337L7.03931 33.6531C7.21768 34.7726 8.1469 36.107 9.12619 36.7931C9.62083 37.1364 10.0815 37.3479 10.5078 37.4378L10.4884 37.8573Z" fill="#AEAEB0"/>
<path d="M14.4089 15.7996C14.173 15.6346 13.9247 15.5823 13.664 15.6425C13.4033 15.7027 13.1528 15.873 12.9123 16.1533C12.7489 16.3437 12.6379 16.5277 12.5793 16.7051C12.5188 16.881 12.5053 17.044 12.5386 17.1942C12.5735 17.3427 12.6502 17.4678 12.7688 17.5695C12.8645 17.6579 12.9685 17.7112 13.0807 17.7295C13.1944 17.746 13.313 17.7369 13.4362 17.7023C13.5577 17.6661 13.6837 17.612 13.8142 17.5399C13.9428 17.4663 14.0723 17.3808 14.2025 17.2836L14.7466 16.8894C15.007 16.6949 15.2685 16.5355 15.531 16.4113C15.7935 16.2872 16.0535 16.2077 16.3111 16.1729C16.5686 16.1381 16.8211 16.1565 17.0683 16.2283C17.3171 16.2983 17.5573 16.431 17.7888 16.6265C18.125 16.9181 18.3439 17.2556 18.4455 17.639C18.5467 18.0191 18.5284 18.4276 18.3906 18.8646C18.2525 19.2983 17.9908 19.7397 17.6054 20.1889C17.2231 20.6345 16.8219 20.964 16.4017 21.1775C15.983 21.3892 15.5605 21.4727 15.134 21.4281C14.7072 21.3801 14.2914 21.1903 13.8866 20.8586L14.8555 19.7293C15.0513 19.8755 15.2513 19.9551 15.4555 19.968C15.6593 19.9776 15.8606 19.9303 16.0591 19.8262C16.2574 19.7187 16.4428 19.5643 16.6155 19.363C16.7851 19.1654 16.9035 18.9691 16.9709 18.7743C17.0398 18.5776 17.0577 18.3949 17.0247 18.2262C16.9916 18.0575 16.9086 17.9161 16.7756 17.802C16.6517 17.6956 16.5159 17.6431 16.3682 17.6443C16.2221 17.6437 16.0593 17.6881 15.8797 17.7773C15.7018 17.8648 15.5022 17.9884 15.281 18.148L14.6145 18.6195C14.102 18.9878 13.6098 19.2034 13.1378 19.2664C12.6658 19.3293 12.2266 19.1849 11.8203 18.8332C11.4846 18.5483 11.2689 18.2089 11.1733 17.8149C11.0792 17.4192 11.0978 17.0031 11.2289 16.5666C11.3601 16.1301 11.5983 15.7106 11.9436 15.3082C12.295 14.8985 12.6719 14.601 13.0741 14.4158C13.4778 14.2288 13.8778 14.1571 14.274 14.2007C14.6702 14.2442 15.035 14.4044 15.3684 14.6811L14.4089 15.7996Z" fill="#AEAEB0"/>
<path d="M26.6271 7.69321L25.2679 8.44951C25.1453 8.28749 25.0077 8.1595 24.8552 8.06556C24.7015 7.96955 24.5376 7.90631 24.3635 7.87585C24.1894 7.84539 24.0094 7.84804 23.8234 7.88381C23.6395 7.91843 23.4565 7.98639 23.2744 8.08769C22.9455 8.27072 22.7044 8.51187 22.5513 8.81113C22.397 9.10833 22.3389 9.44949 22.3771 9.83462C22.4142 10.2177 22.5553 10.6295 22.8005 11.0702C23.0526 11.5232 23.3316 11.8664 23.6376 12.0999C23.9457 12.3321 24.2655 12.4589 24.5971 12.4803C24.9287 12.5017 25.2548 12.4232 25.5755 12.2448C25.7554 12.1446 25.9087 12.0282 26.0353 11.8954C26.164 11.7615 26.263 11.6156 26.3324 11.4578C26.4005 11.298 26.4371 11.13 26.442 10.9538C26.449 10.7765 26.4209 10.5945 26.3575 10.4075L27.7201 9.65745C27.8472 9.96871 27.9159 10.299 27.926 10.6483C27.937 10.9943 27.8839 11.3395 27.7667 11.6838C27.6503 12.0249 27.4643 12.3479 27.2086 12.6527C26.9538 12.9544 26.6226 13.2186 26.2151 13.4453C25.6482 13.7607 25.07 13.9145 24.4805 13.9066C23.8929 13.8976 23.3346 13.722 22.8055 13.3797C22.2785 13.0363 21.8227 12.5191 21.4382 11.8282C21.0526 11.1352 20.8549 10.4731 20.845 9.84188C20.8351 9.21069 20.9828 8.64354 21.2881 8.14045C21.5922 7.63528 22.0235 7.22729 22.5821 6.91648C22.9503 6.71158 23.3204 6.57335 23.6924 6.50182C24.0665 6.42913 24.4308 6.42416 24.7854 6.48692C25.1389 6.54762 25.4716 6.67811 25.7835 6.87841C26.0976 7.07755 26.3787 7.34916 26.6271 7.69321Z" fill="#AEAEB0"/>
<path d="M33.7329 10.5711L32.7552 3.36437L35.5985 2.97865C36.1427 2.90481 36.6204 2.93915 37.0316 3.08167C37.4448 3.22153 37.7762 3.45489 38.0261 3.78176C38.2779 4.10596 38.4361 4.50617 38.5007 4.9824C38.5656 5.46097 38.5183 5.88668 38.3586 6.25954C38.1986 6.63005 37.9352 6.93338 37.5682 7.16951C37.2036 7.40532 36.7445 7.56078 36.1909 7.63589L34.2871 7.89415L34.121 6.66957L35.7784 6.44473C36.0693 6.40526 36.3055 6.3326 36.4871 6.22674C36.6686 6.12088 36.7955 5.98183 36.8677 5.80957C36.9422 5.637 36.9634 5.43225 36.9313 5.19531C36.8988 4.95602 36.8234 4.7608 36.7049 4.60963C36.5888 4.45814 36.4276 4.35338 36.2215 4.29534C36.0173 4.23464 35.7686 4.22418 35.4754 4.26396L34.4479 4.40336L35.2566 10.3644L33.7329 10.5711ZM37.1799 6.76348L39.4159 9.80011L37.7339 10.0283L35.5365 6.98642L37.1799 6.76348Z" fill="#AEAEB0"/>
<path d="M51.559 8.13701C51.3808 8.90982 51.0827 9.5335 50.6647 10.0081C50.2491 10.4832 49.7568 10.8057 49.1879 10.9758C48.6219 11.1442 48.0263 11.1562 47.4011 11.0121C46.7714 10.8669 46.2392 10.5935 45.8045 10.192C45.3699 9.79053 45.0697 9.28522 44.9041 8.67607C44.7384 8.06693 44.7444 7.37711 44.9221 6.60661C45.1003 5.8338 45.3972 5.20985 45.8129 4.73475C46.2286 4.25966 46.7194 3.93796 47.2855 3.76964C47.852 3.59902 48.4502 3.58632 49.08 3.73154C49.7051 3.8757 50.235 4.14852 50.6697 4.55C51.1071 4.94971 51.4087 5.45414 51.5744 6.06329C51.7423 6.67296 51.7372 7.3642 51.559 8.13701ZM50.0399 7.78672C50.1554 7.28613 50.1777 6.84668 50.107 6.46838C50.0387 6.09061 49.89 5.78179 49.6611 5.54192C49.4321 5.30205 49.1365 5.14036 48.7744 5.05685C48.4122 4.97333 48.0757 4.98927 47.7648 5.10466C47.4539 5.22006 47.1839 5.43233 46.9547 5.74148C46.7278 6.05116 46.5566 6.4563 46.4412 6.95689C46.3257 7.45749 46.3022 7.89667 46.3706 8.27444C46.4413 8.65274 46.5911 8.96183 46.8201 9.2017C47.049 9.44156 47.3446 9.60326 47.7067 9.68677C48.0689 9.77029 48.4055 9.75435 48.7163 9.63895C49.0272 9.52356 49.2961 9.31102 49.523 9.00134C49.7522 8.69219 49.9245 8.28732 50.0399 7.78672Z" fill="#AEAEB0"/>
<path d="M55.5469 14.2391L59.7604 8.31122L61.0137 9.20206L57.5347 14.0966L60.076 15.9029L59.3415 16.9363L55.5469 14.2391Z" fill="#AEAEB0"/>
<path d="M63.4953 21.216L69.4842 17.0898L70.3566 18.3559L65.4117 21.763L67.1807 24.3304L66.1367 25.0497L63.4953 21.216Z" fill="#AEAEB0"/>
</svg>
