<svg width="722" height="6" viewBox="0 0 722 6" fill="none" xmlns="http://www.w3.org/2000/svg">
<path d="M1 5C3.20914 5 5 3 5 3C5 3 6.79086 1 9 1C11.2091 1 13 3 13 3C13 3 14.7909 5 17 5C19.2091 5 21 3 21 3C21 3 22.7909 1 25 1C27.2091 1 29 3 29 3C29 3 30.7909 5 33 5C35.2091 5 37 3 37 3C37 3 38.7909 1 41 1C43.2091 1 45 3 45 3C45 3 46.7909 5 49 5C51.2091 5 53 3 53 3C53 3 54.7909 1 57 1C59.2091 1 61 3 61 3C61 3 62.7909 5 65 5C67.2091 5 69 3 69 3C69 3 70.7909 1 73 1C75.2091 1 77 3 77 3C77 3 78.7909 5 81 5C83.2091 5 85 3 85 3C85 3 86.7909 1 89 1C91.2091 1 93 3 93 3C93 3 94.7909 5 97 5C99.2091 5 101 3 101 3C101 3 102.791 1 105 1C107.209 1 109 3 109 3C109 3 110.791 5 113 5C115.209 5 117 3 117 3C117 3 118.791 1 121 1C123.209 1 125 3 125 3C125 3 126.791 5 129 5C131.209 5 133 3 133 3C133 3 134.791 1 137 1C139.209 1 141 3 141 3C141 3 142.791 5 145 5C147.209 5 149 3 149 3C149 3 150.791 1 153 1C155.209 1 157 3 157 3C157 3 158.791 5 161 5C163.209 5 165 3 165 3C165 3 166.791 1 169 1C171.209 1 173 3 173 3C173 3 174.791 5 177 5C179.209 5 181 3 181 3C181 3 182.791 1 185 1C187.209 1 189 3 189 3C189 3 190.791 5 193 5C195.209 5 197 3 197 3C197 3 198.791 1 201 1C203.209 1 205 3 205 3C205 3 206.791 5 209 5C211.209 5 213 3 213 3C213 3 214.791 1 217 1C219.209 1 221 3 221 3C221 3 222.791 5 225 5C227.209 5 229 3 229 3C229 3 230.791 1 233 1C235.209 1 237 3 237 3C237 3 238.791 5 241 5C243.209 5 245 3 245 3C245 3 246.791 1 249 1C251.209 1 253 3 253 3C253 3 254.791 5 257 5C259.209 5 261 3 261 3C261 3 262.791 1 265 1C267.209 1 269 3 269 3C269 3 270.791 5 273 5C275.209 5 277 3 277 3C277 3 278.791 1 281 1C283.209 1 285 3 285 3C285 3 286.791 5 289 5C291.209 5 293 3 293 3C293 3 294.791 1 297 1C299.209 1 301 3 301 3C301 3 302.791 5 305 5C307.209 5 309 3 309 3C309 3 310.791 1 313 1C315.209 1 317 3 317 3C317 3 318.791 5 321 5C323.209 5 325 3 325 3C325 3 326.791 1 329 1C331.209 1 333 3 333 3C333 3 334.791 5 337 5C339.209 5 341 3 341 3C341 3 342.791 1 345 1C347.209 1 349 3 349 3C349 3 350.791 5 353 5C355.209 5 357 3 357 3C357 3 358.791 1 361 1C363.209 1 365 3 365 3C365 3 366.791 5 369 5C371.209 5 373 3 373 3C373 3 374.791 1 377 1C379.209 1 381 3 381 3C381 3 382.791 5 385 5C387.209 5 389 3 389 3C389 3 390.791 1 393 1C395.209 1 397 3 397 3C397 3 398.791 5 401 5C403.209 5 405 3 405 3C405 3 406.791 1 409 1C411.209 1 413 3 413 3C413 3 414.791 5 417 5C419.209 5 421 3 421 3C421 3 422.791 1 425 1C427.209 1 429 3 429 3C429 3 430.791 5 433 5C435.209 5 437 3 437 3C437 3 438.791 1 441 1C443.209 1 445 3 445 3C445 3 446.791 5 449 5C451.209 5 453 3 453 3C453 3 454.791 1 457 1C459.209 1 461 3 461 3C461 3 462.791 5 465 5C467.209 5 469 3 469 3C469 3 470.791 1 473 1C475.209 1 477 3 477 3C477 3 478.791 5 481 5C483.209 5 485 3 485 3C485 3 486.791 1 489 1C491.209 1 493 3 493 3C493 3 494.791 5 497 5C499.209 5 501 3 501 3C501 3 502.791 1 505 1C507.209 1 509 3 509 3C509 3 510.791 5 513 5C515.209 5 517 3 517 3C517 3 518.791 1 521 1C523.209 1 525 3 525 3C525 3 526.791 5 529 5C531.209 5 533 3 533 3C533 3 534.791 1 537 1C539.209 1 541 3 541 3C541 3 542.791 5 545 5C547.209 5 549 3 549 3C549 3 550.791 1 553 1C555.209 1 557 3 557 3C557 3 558.791 5 561 5C563.209 5 565 3 565 3C565 3 566.791 1 569 1C571.209 1 573 3 573 3C573 3 574.791 5 577 5C579.209 5 581 3 581 3C581 3 582.791 1 585 1C587.209 1 589 3 589 3C589 3 590.791 5 593 5C595.209 5 597 3 597 3C597 3 598.791 1 601 1C603.209 1 605 3 605 3C605 3 606.791 5 609 5C611.209 5 613 3 613 3C613 3 614.791 1 617 1C619.209 1 621 3 621 3C621 3 622.791 5 625 5C627.209 5 629 3 629 3C629 3 630.791 1 633 1C635.209 1 637 3 637 3C637 3 638.791 5 641 5C643.209 5 645 3 645 3C645 3 646.791 1 649 1C651.209 1 653 3 653 3C653 3 654.791 5 657 5C659.209 5 661 3 661 3C661 3 662.791 1 665 1C667.209 1 669 3 669 3C669 3 670.791 5 673 5C675.209 5 677 3 677 3C677 3 678.791 1 681 1C683.209 1 685 3 685 3C685 3 686.791 5 689 5C691.209 5 693 3 693 3C693 3 694.791 1 697 1C699.209 1 701 3 701 3C701 3 702.791 5 705 5C707.209 5 709 3 709 3C709 3 710.791 1 713 1C715.209 1 717 3 717 3C717 3 718.791 5 721 5" stroke="#CF4520" stroke-width="2" stroke-linecap="round"/>
</svg>
