<svg width="722" height="6" viewBox="0 0 722 6" fill="none" xmlns="http://www.w3.org/2000/svg">
<path d="M1 3C1 3 3.68629 5 7 5C10.3137 5 13 3 13 3C13 3 15.6863 1 19 1C22.3137 1 25 3 25 3C25 3 27.6863 5 31 5C34.3137 5 37 3 37 3C37 3 39.6863 1 43 1C46.3137 1 49 3 49 3C49 3 51.6863 5 55 5C58.3137 5 61 3 61 3C61 3 63.6863 1 67 1C70.3137 1 73 3 73 3C73 3 75.6863 5 79 5C82.3137 5 85 3 85 3C85 3 87.6863 1 91 1C94.3137 1 97 3 97 3C97 3 99.6863 5 103 5C106.314 5 109 3 109 3C109 3 111.686 1 115 1C118.314 1 121 3 121 3C121 3 123.686 5 127 5C130.314 5 133 3 133 3C133 3 135.686 1 139 1C142.314 1 145 3 145 3C145 3 147.686 5 151 5C154.314 5 157 3 157 3C157 3 159.686 1 163 1C166.314 1 169 3 169 3C169 3 171.686 5 175 5C178.314 5 181 3 181 3C181 3 183.686 1 187 1C190.314 1 193 3 193 3C193 3 195.686 5 199 5C202.314 5 205 3 205 3C205 3 207.686 1 211 1C214.314 1 217 3 217 3C217 3 219.686 5 223 5C226.314 5 229 3 229 3C229 3 231.686 1 235 1C238.314 1 241 3 241 3C241 3 243.686 5 247 5C250.314 5 253 3 253 3C253 3 255.686 1 259 1C262.314 1 265 3 265 3C265 3 267.686 5 271 5C274.314 5 277 3 277 3C277 3 279.686 1 283 1C286.314 1 289 3 289 3C289 3 291.686 5 295 5C298.314 5 301 3 301 3C301 3 303.686 1 307 1C310.314 1 313 3 313 3C313 3 315.686 5 319 5C322.314 5 325 3 325 3C325 3 327.686 1 331 1C334.314 1 337 3 337 3C337 3 339.686 5 343 5C346.314 5 349 3 349 3C349 3 351.686 1 355 1C358.314 1 361 3 361 3C361 3 363.686 5 367 5C370.314 5 373 3 373 3C373 3 375.686 1 379 1C382.314 1 385 3 385 3C385 3 387.686 5 391 5C394.314 5 397 3 397 3C397 3 399.686 1 403 1C406.314 1 409 3 409 3C409 3 411.686 5 415 5C418.314 5 421 3 421 3C421 3 423.686 1 427 1C430.314 1 433 3 433 3C433 3 435.686 5 439 5C442.314 5 445 3 445 3C445 3 447.686 1 451 1C454.314 1 457 3 457 3C457 3 459.686 5 463 5C466.314 5 469 3 469 3C469 3 471.686 1 475 1C478.314 1 481 3 481 3C481 3 483.686 5 487 5C490.314 5 493 3 493 3C493 3 495.686 1 499 1C502.314 1 505 3 505 3C505 3 507.686 5 511 5C514.314 5 517 3 517 3C517 3 519.686 1 523 1C526.314 1 529 3 529 3C529 3 531.686 5 535 5C538.314 5 541 3 541 3C541 3 543.686 1 547 1C550.314 1 553 3 553 3C553 3 555.686 5 559 5C562.314 5 565 3 565 3C565 3 567.686 1 571 1C574.314 1 577 3 577 3C577 3 579.686 5 583 5C586.314 5 589 3 589 3C589 3 591.686 1 595 1C598.314 1 601 3 601 3C601 3 603.686 5 607 5C610.314 5 613 3 613 3C613 3 615.686 1 619 1C622.314 1 625 3 625 3C625 3 627.686 5 631 5C634.314 5 637 3 637 3C637 3 639.686 1 643 1C646.314 1 649 3 649 3C649 3 651.686 5 655 5C658.314 5 661 3 661 3C661 3 663.686 1 667 1C670.314 1 673 3 673 3C673 3 675.686 5 679 5C682.314 5 685 3 685 3C685 3 687.686 1 691 1C694.314 1 697 3 697 3C697 3 699.686 5 703 5C706.314 5 709 3 709 3C709 3 711.686 1 715 1C718.314 1 721 3 721 3" stroke="#CF4520" stroke-width="2" stroke-linecap="round"/>
</svg>
