<svg width="20" height="21" viewBox="0 0 20 21" fill="none" xmlns="http://www.w3.org/2000/svg">
<path fill-rule="evenodd" clip-rule="evenodd" d="M6.25003 5.22754C6.25003 3.15647 7.92896 1.47754 10 1.47754C12.0711 1.47754 13.75 3.15647 13.75 5.22754C13.75 7.29861 12.0711 8.97754 10 8.97754C7.92896 8.97754 6.25003 7.29861 6.25003 5.22754Z" fill="#CF4520"/>
<path fill-rule="evenodd" clip-rule="evenodd" d="M3.12607 16.982C3.19052 13.2405 6.24335 10.2275 10 10.2275C13.7568 10.2275 16.8097 13.2407 16.874 16.9822C16.8783 17.2304 16.7353 17.4575 16.5097 17.561C14.5273 18.4707 12.3221 18.9775 10.0003 18.9775C7.67825 18.9775 5.47289 18.4706 3.4903 17.5608C3.26474 17.4573 3.1218 17.2301 3.12607 16.982Z" fill="#CF4520"/>
</svg>
