<svg width="20" height="21" viewBox="0 0 20 21" fill="none" xmlns="http://www.w3.org/2000/svg">
<path fill-rule="evenodd" clip-rule="evenodd" d="M10 5.85254C10 3.43629 11.9588 1.47754 14.375 1.47754C14.8159 1.47754 15.2427 1.54297 15.6456 1.66508C15.8558 1.7288 16.0172 1.8982 16.0706 2.11127C16.124 2.32435 16.0616 2.54982 15.9063 2.70515L13.1407 5.47073C13.1921 5.86705 13.3699 6.24905 13.6742 6.55336C13.9785 6.85768 14.3605 7.03543 14.7568 7.08685L17.5224 4.32127C17.6777 4.16594 17.9032 4.10356 18.1163 4.15696C18.3293 4.21036 18.4987 4.3717 18.5625 4.58192C18.6846 4.98479 18.75 5.41159 18.75 5.85254C18.75 8.26878 16.7912 10.2275 14.375 10.2275C14.2496 10.2275 14.1253 10.2222 14.0023 10.2118C13.1546 10.1402 12.4448 10.2956 12.0787 10.7401L6.11939 17.9764C5.59737 18.6103 4.81923 18.9775 3.99807 18.9775C2.48035 18.9775 1.25 17.7472 1.25 16.2295C1.25 15.4083 1.61722 14.6302 2.2511 14.1081L9.4874 8.14885C9.93197 7.78273 10.0873 7.07298 10.0157 6.22527C10.0053 6.10227 10 5.97795 10 5.85254ZM3.43103 16.1651C3.43103 15.8199 3.71085 15.5401 4.05603 15.5401H4.06228C4.40746 15.5401 4.68728 15.8199 4.68728 16.1651V16.1713C4.68728 16.5165 4.40746 16.7963 4.06228 16.7963H4.05603C3.71085 16.7963 3.43103 16.5165 3.43103 16.1713V16.1651Z" fill="#CF4520"/>
<path d="M8.39664 7.4278L6.56251 5.59367V4.29005C6.56251 4.07051 6.44733 3.86707 6.25907 3.75412L3.13407 1.87912C2.88815 1.73157 2.57336 1.77032 2.37057 1.97311L1.74557 2.59811C1.54278 2.8009 1.50403 3.11569 1.65158 3.36161L3.52658 6.48661C3.63953 6.67487 3.84297 6.79005 4.06251 6.79005H5.36613L7.08448 8.5084L8.39664 7.4278Z" fill="#CF4520"/>
<path fill-rule="evenodd" clip-rule="evenodd" d="M10.4633 14.6681L13.9489 18.1537C15.0472 19.2521 16.828 19.2521 17.9263 18.1537C19.0247 17.0554 19.0247 15.2746 17.9263 14.1762L15.1716 11.4215C14.9114 11.4584 14.6455 11.4775 14.3751 11.4775C14.2145 11.4775 14.055 11.4707 13.8971 11.4574C13.5685 11.4296 13.3283 11.4522 13.1741 11.4923C13.0877 11.5147 13.0479 11.5369 13.0349 11.5454L10.4633 14.6681ZM13.3081 13.5356C13.5522 13.2915 13.9479 13.2915 14.192 13.5356L15.7545 15.0981C15.9986 15.3422 15.9986 15.7379 15.7545 15.982C15.5104 16.2261 15.1147 16.2261 14.8706 15.982L13.3081 14.4195C13.0641 14.1754 13.0641 13.7797 13.3081 13.5356Z" fill="#CF4520"/>
</svg>
